{"glyphs":{"0":{"ha":1039,"x_min":38,"x_max":1032,"o":"m 471 -15 q 133 139 229 -15 q 89 565 38 293 q 195 809 122 715 q 375 949 268 903 q 614 994 482 994 q 872 926 776 994 q 1000 730 968 857 q 997 426 1032 603 q 890 174 964 271 q 710 31 817 78 q 471 -15 604 -15 m 490 207 q 644 263 585 207 q 731 439 703 318 q 726 690 761 608 q 593 772 692 772 q 440 715 497 772 q 354 542 383 657 q 358 290 325 372 q 490 207 392 207 z "},"1":{"ha":1039,"x_min":97,"x_max":968,"o":"m 97 0 l 132 226 l 422 226 l 504 751 l 624 754 l 253 563 l 185 757 l 618 979 l 825 979 l 706 226 l 968 226 l 932 0 l 97 0 z "},"2":{"ha":1039,"x_min":67,"x_max":994,"o":"m 67 0 l 99 206 l 546 503 q 609 549 578 524 q 664 606 640 575 q 694 668 688 636 q 668 742 704 715 q 549 768 632 768 q 374 744 463 768 q 213 674 286 719 l 139 875 q 274 942 200 915 q 428 981 347 968 q 592 994 510 994 q 831 958 739 994 q 959 849 924 922 q 974 667 994 776 q 930 569 963 621 q 844 467 897 518 q 717 369 790 415 l 472 221 l 456 226 l 944 226 l 908 0 l 67 0 z "},"3":{"ha":1039,"x_min":21,"x_max":994,"o":"m 438 -15 q 267 -1 347 -15 q 123 39 186 14 q 21 96 60 64 l 136 306 q 283 235 204 260 q 460 211 363 211 q 571 221 525 211 q 644 249 617 231 q 676 297 671 268 q 644 363 688 340 q 500 385 600 385 l 283 385 l 318 600 l 503 600 q 603 610 561 600 q 669 640 644 621 q 699 685 693 658 q 668 747 707 725 q 542 768 629 768 q 371 745 453 768 q 217 674 289 722 l 143 875 q 349 963 229 931 q 597 994 469 994 q 824 964 733 994 q 955 870 915 933 q 975 711 994 807 q 932 622 964 664 q 849 547 900 579 q 728 497 799 515 l 729 508 q 859 465 807 497 q 933 382 911 433 q 939 254 956 331 q 852 108 922 168 q 675 16 782 47 q 438 -15 568 -15 z "},"4":{"ha":1039,"x_min":29,"x_max":1008,"o":"m 531 0 l 554 154 l 29 154 l 61 351 l 703 979 l 950 979 l 853 364 l 1008 364 l 975 154 l 819 154 l 796 0 l 531 0 m 593 364 l 649 706 l 700 706 l 260 283 l 258 364 l 593 364 z "},"5":{"ha":1039,"x_min":64,"x_max":1011,"o":"m 472 -15 q 305 -1 385 -15 q 163 38 225 14 q 64 94 101 63 l 181 304 q 323 236 246 261 q 496 211 400 211 q 604 223 558 211 q 678 257 650 235 q 714 314 706 279 q 682 396 725 367 q 546 425 639 425 q 427 411 482 425 q 313 368 372 397 l 132 368 l 231 979 l 1011 979 l 975 756 l 446 756 l 417 568 l 381 568 q 491 617 422 599 q 640 636 560 636 q 849 593 767 636 q 966 472 932 550 q 979 288 1000 394 q 890 119 958 186 q 715 18 821 51 q 472 -15 610 -15 z "},"6":{"ha":1039,"x_min":65,"x_max":1064,"o":"m 515 -15 q 242 51 347 -15 q 101 244 138 118 q 99 547 65 369 q 179 744 124 660 q 314 885 235 829 q 494 967 393 940 q 714 994 596 994 q 851 983 786 994 q 969 947 917 971 q 1064 890 1022 924 l 947 686 q 829 749 896 728 q 683 769 763 769 q 563 755 617 769 q 467 711 508 740 q 399 638 426 682 q 363 538 372 594 l 354 483 l 335 483 q 406 570 357 533 q 521 627 456 607 q 656 647 586 647 q 852 601 774 647 q 963 474 931 554 q 975 289 996 393 q 887 119 953 188 q 726 18 821 51 q 515 -15 631 -15 m 524 194 q 619 208 578 194 q 688 248 661 222 q 722 308 714 274 q 714 378 729 350 q 663 422 699 406 q 569 438 626 438 q 474 424 515 438 q 406 385 432 410 q 371 324 379 360 q 378 255 364 283 q 431 210 393 226 q 524 194 468 194 z "},"7":{"ha":1039,"x_min":43,"x_max":1065,"o":"m 43 0 l 774 829 l 776 743 l 139 743 l 176 979 l 1065 979 l 1031 768 l 385 0 l 43 0 z "},"8":{"ha":1039,"x_min":22,"x_max":1036,"o":"m 471 -17 q 210 21 313 -17 q 65 128 107 58 q 42 296 22 199 q 97 401 56 354 q 203 479 139 449 q 342 519 267 510 l 338 492 q 222 538 271 504 q 153 625 174 571 q 147 751 132 679 q 224 877 164 822 q 384 964 285 932 q 615 996 483 996 q 858 962 763 996 q 995 864 954 928 q 1017 704 1036 800 q 967 606 1006 649 q 871 532 928 563 q 746 488 814 501 l 750 515 q 886 475 831 508 q 966 385 942 442 q 974 253 990 329 q 892 114 957 175 q 720 18 826 53 q 471 -17 614 -17 m 496 192 q 656 217 599 192 q 724 288 714 242 q 687 365 736 338 q 529 392 638 392 q 368 367 425 392 q 300 296 311 342 q 339 219 289 247 q 496 192 389 192 m 558 599 q 658 609 617 599 q 725 640 700 619 q 756 689 750 660 q 723 762 765 738 q 589 786 681 786 q 454 765 504 786 q 394 700 404 744 q 426 624 383 650 q 558 599 468 599 z "},"9":{"ha":1039,"x_min":22,"x_max":1021,"o":"m 367 -15 q 230 -3 293 -15 q 115 32 167 8 q 22 89 64 56 l 138 293 q 253 230 188 250 q 399 210 319 210 q 522 225 467 210 q 618 269 578 240 q 685 342 658 299 q 722 442 713 385 l 731 496 l 750 496 q 680 410 729 447 q 566 352 631 372 q 431 332 501 332 q 232 376 311 332 q 120 500 153 419 q 110 690 88 581 q 197 860 131 793 q 361 961 264 928 q 574 994 458 994 q 844 928 742 994 q 984 738 947 863 q 988 436 1021 613 q 905 229 961 315 q 767 89 849 143 q 584 10 686 35 q 367 -15 482 -15 m 514 542 q 611 556 569 542 q 680 595 653 569 q 714 656 707 621 q 708 726 724 697 q 655 769 692 754 q 563 785 618 785 q 467 771 508 785 q 399 733 425 757 q 364 671 374 708 q 372 602 357 631 q 423 558 386 574 q 514 542 460 542 z "},"A":{"ha":1336,"x_min":-69,"x_max":1294,"o":"m -69 0 l 642 979 l 896 979 l 1294 0 l 1007 0 l 903 272 l 1014 176 l 286 176 l 431 274 l 240 0 l -69 0 m 735 718 l 463 322 l 414 393 l 954 393 l 886 324 l 740 718 l 735 718 z "},"Á":{"ha":1336,"x_min":-69,"x_max":1294,"o":"m -69 0 l 642 979 l 896 979 l 1294 0 l 1007 0 l 903 272 l 1014 176 l 286 176 l 431 274 l 240 0 l -69 0 m 735 718 l 463 322 l 414 393 l 954 393 l 886 324 l 740 718 l 735 718 m 683 1063 l 935 1318 l 1217 1318 l 881 1063 l 683 1063 z "},"Ă":{"ha":1336,"x_min":-69,"x_max":1294,"o":"m -69 0 l 642 979 l 896 979 l 1294 0 l 1007 0 l 903 272 l 1014 176 l 286 176 l 431 274 l 240 0 l -69 0 m 735 718 l 463 322 l 414 393 l 954 393 l 886 324 l 740 718 l 735 718 m 779 1056 q 609 1085 676 1056 q 513 1174 542 1115 q 496 1318 485 1232 l 650 1331 q 685 1244 647 1274 q 808 1215 722 1215 q 943 1244 894 1215 q 1008 1331 992 1274 l 1158 1318 q 1031 1123 1129 1190 q 779 1056 932 1056 z "},"Ắ":{"ha":1336,"x_min":-69,"x_max":1294,"o":"m -69 0 l 642 979 l 896 979 l 1294 0 l 1007 0 l 903 272 l 1014 176 l 286 176 l 431 274 l 240 0 l -69 0 m 735 718 l 463 322 l 414 393 l 954 393 l 886 324 l 740 718 l 735 718 m 775 1056 q 558 1115 625 1056 q 500 1292 490 1175 l 636 1304 q 678 1221 638 1247 q 803 1194 719 1194 q 936 1221 886 1194 q 1008 1304 986 1247 l 1139 1292 q 1015 1115 1106 1175 q 775 1056 925 1056 m 719 1263 l 868 1439 l 1124 1439 l 886 1263 l 719 1263 z "},"Ặ":{"ha":1336,"x_min":-69,"x_max":1294,"o":"m -69 0 l 642 979 l 896 979 l 1294 0 l 1007 0 l 903 272 l 1014 176 l 286 176 l 431 274 l 240 0 l -69 0 m 735 718 l 463 322 l 414 393 l 954 393 l 886 324 l 740 718 l 735 718 m 432 -324 l 468 -96 l 710 -96 l 674 -324 l 432 -324 m 779 1056 q 609 1085 676 1056 q 513 1174 542 1115 q 496 1318 485 1232 l 650 1331 q 685 1244 647 1274 q 808 1215 722 1215 q 943 1244 894 1215 q 1008 1331 992 1274 l 1158 1318 q 1031 1123 1129 1190 q 779 1056 932 1056 z "},"Ằ":{"ha":1336,"x_min":-69,"x_max":1294,"o":"m -69 0 l 642 979 l 896 979 l 1294 0 l 1007 0 l 903 272 l 1014 176 l 286 176 l 431 274 l 240 0 l -69 0 m 735 718 l 463 322 l 414 393 l 954 393 l 886 324 l 740 718 l 735 718 m 775 1058 q 558 1118 625 1058 q 500 1294 490 1178 l 636 1307 q 678 1224 638 1250 q 803 1197 719 1197 q 936 1224 886 1197 q 1008 1307 986 1250 l 1139 1294 q 1015 1118 1106 1178 q 775 1058 925 1058 m 746 1265 l 568 1442 l 824 1442 l 913 1265 l 746 1265 z "},"Ẳ":{"ha":1336,"x_min":-69,"x_max":1294,"o":"m -69 0 l 642 979 l 896 979 l 1294 0 l 1007 0 l 903 272 l 1014 176 l 286 176 l 431 274 l 240 0 l -69 0 m 735 718 l 463 322 l 414 393 l 954 393 l 886 324 l 740 718 l 735 718 m 778 1058 q 560 1118 628 1058 q 501 1294 493 1178 l 639 1307 q 681 1224 640 1250 q 806 1197 721 1197 q 938 1224 888 1197 q 1011 1307 988 1250 l 1142 1294 q 1017 1118 1108 1178 q 778 1058 926 1058 m 744 1263 q 758 1294 746 1283 q 785 1313 769 1306 q 815 1327 801 1321 q 831 1343 828 1333 q 822 1360 835 1353 q 785 1367 808 1367 q 740 1362 764 1367 q 681 1347 715 1357 l 664 1438 q 755 1460 707 1453 q 854 1468 803 1468 q 990 1445 947 1468 q 1025 1382 1033 1422 q 999 1340 1019 1356 q 955 1315 979 1325 q 912 1294 931 1306 q 892 1263 893 1283 l 744 1263 z "},"Ẵ":{"ha":1336,"x_min":-69,"x_max":1294,"o":"m -69 0 l 642 979 l 896 979 l 1294 0 l 1007 0 l 903 272 l 1014 176 l 286 176 l 431 274 l 240 0 l -69 0 m 735 718 l 463 322 l 414 393 l 954 393 l 886 324 l 740 718 l 735 718 m 775 1058 q 573 1106 642 1058 q 499 1240 504 1153 l 625 1268 q 684 1212 638 1231 q 801 1193 731 1193 q 926 1212 872 1193 q 1007 1268 981 1231 l 1122 1240 q 1049 1141 1097 1182 q 933 1079 1001 1100 q 775 1058 865 1058 m 622 1297 l 500 1304 q 544 1391 514 1354 q 621 1448 574 1428 q 731 1468 668 1468 q 803 1459 771 1468 q 864 1440 835 1450 q 913 1426 889 1433 q 963 1419 936 1419 q 1019 1433 999 1419 q 1051 1467 1040 1446 l 1174 1460 q 1093 1340 1151 1383 q 939 1296 1035 1296 q 867 1305 899 1296 q 808 1324 836 1314 q 762 1338 785 1332 q 711 1344 739 1344 q 660 1333 685 1344 q 622 1297 635 1322 z "},"Ǎ":{"ha":1336,"x_min":-69,"x_max":1294,"o":"m -69 0 l 642 979 l 896 979 l 1294 0 l 1007 0 l 903 272 l 1014 176 l 286 176 l 431 274 l 240 0 l -69 0 m 735 718 l 463 322 l 414 393 l 954 393 l 886 324 l 740 718 l 735 718 m 667 1063 l 499 1319 l 694 1319 l 807 1196 l 967 1319 l 1157 1319 l 897 1063 l 667 1063 z "},"Â":{"ha":1336,"x_min":-69,"x_max":1294,"o":"m -69 0 l 642 979 l 896 979 l 1294 0 l 1007 0 l 903 272 l 1014 176 l 286 176 l 431 274 l 240 0 l -69 0 m 735 718 l 463 322 l 414 393 l 954 393 l 886 324 l 740 718 l 735 718 m 456 1063 l 714 1318 l 944 1318 l 1113 1063 l 921 1063 l 806 1185 l 647 1063 l 456 1063 z "},"Ấ":{"ha":1336,"x_min":-69,"x_max":1403,"o":"m -69 0 l 642 979 l 896 979 l 1294 0 l 1007 0 l 903 272 l 1014 176 l 286 176 l 431 274 l 240 0 l -69 0 m 735 718 l 463 322 l 414 393 l 954 393 l 886 324 l 740 718 l 735 718 m 467 1063 l 711 1318 l 942 1318 l 1093 1063 l 915 1063 l 803 1188 l 643 1063 l 467 1063 m 1017 1233 l 1183 1442 l 1403 1442 l 1169 1233 l 1017 1233 z "},"Ậ":{"ha":1336,"x_min":-69,"x_max":1294,"o":"m -69 0 l 642 979 l 896 979 l 1294 0 l 1007 0 l 903 272 l 1014 176 l 286 176 l 431 274 l 240 0 l -69 0 m 735 718 l 463 322 l 414 393 l 954 393 l 886 324 l 740 718 l 735 718 m 432 -324 l 468 -96 l 710 -96 l 674 -324 l 432 -324 m 456 1063 l 714 1318 l 944 1318 l 1113 1063 l 921 1063 l 806 1185 l 647 1063 l 456 1063 z "},"Ầ":{"ha":1336,"x_min":-69,"x_max":1294,"o":"m -69 0 l 642 979 l 896 979 l 1294 0 l 1007 0 l 903 272 l 1014 176 l 286 176 l 431 274 l 240 0 l -69 0 m 735 718 l 463 322 l 414 393 l 954 393 l 886 324 l 740 718 l 735 718 m 467 1063 l 711 1318 l 942 1318 l 1093 1063 l 915 1063 l 803 1188 l 643 1063 l 467 1063 m 1083 1233 l 928 1442 l 1146 1442 l 1236 1233 l 1083 1233 z "},"Ẩ":{"ha":1336,"x_min":-69,"x_max":1304,"o":"m -69 0 l 642 979 l 896 979 l 1294 0 l 1007 0 l 903 272 l 1014 176 l 286 176 l 431 274 l 240 0 l -69 0 m 735 718 l 463 322 l 414 393 l 954 393 l 886 324 l 740 718 l 735 718 m 467 1063 l 707 1297 l 938 1297 l 1093 1063 l 915 1063 l 800 1178 l 643 1063 l 467 1063 m 1024 1229 q 1035 1262 1024 1249 q 1064 1288 1047 1275 q 1092 1310 1081 1300 q 1107 1329 1104 1319 q 1099 1344 1108 1339 q 1065 1349 1089 1349 q 1021 1345 1042 1349 q 968 1331 1000 1342 l 953 1419 q 1036 1442 993 1435 q 1131 1449 1079 1449 q 1262 1428 1219 1449 q 1296 1367 1304 1407 q 1271 1322 1290 1340 q 1228 1290 1251 1304 q 1188 1263 1206 1276 q 1169 1229 1171 1249 l 1024 1229 z "},"Ẫ":{"ha":1336,"x_min":-69,"x_max":1294,"o":"m -69 0 l 642 979 l 896 979 l 1294 0 l 1007 0 l 903 272 l 1014 176 l 286 176 l 431 274 l 240 0 l -69 0 m 735 718 l 463 322 l 414 393 l 954 393 l 886 324 l 740 718 l 735 718 m 468 1063 l 701 1256 l 932 1256 l 1094 1063 l 913 1063 l 797 1151 l 651 1063 l 468 1063 m 619 1290 l 497 1297 q 577 1418 518 1375 q 729 1461 636 1461 q 802 1452 769 1461 q 864 1433 835 1443 q 911 1420 888 1426 q 961 1414 935 1414 q 1018 1426 996 1414 q 1050 1460 1040 1439 l 1172 1453 q 1090 1333 1150 1376 q 938 1289 1031 1289 q 866 1298 897 1289 q 807 1315 835 1307 q 760 1331 782 1325 q 710 1338 738 1338 q 658 1326 683 1338 q 619 1290 633 1315 z "},"Ȁ":{"ha":1336,"x_min":-69,"x_max":1294,"o":"m -69 0 l 642 979 l 896 979 l 1294 0 l 1007 0 l 903 272 l 1014 176 l 286 176 l 431 274 l 240 0 l -69 0 m 735 718 l 463 322 l 414 393 l 954 393 l 886 324 l 740 718 l 735 718 m 846 1063 l 661 1318 l 897 1318 l 999 1063 l 846 1063 m 564 1063 l 356 1318 l 593 1318 l 717 1063 l 564 1063 z "},"Ä":{"ha":1336,"x_min":-69,"x_max":1294,"o":"m -69 0 l 642 979 l 896 979 l 1294 0 l 1007 0 l 903 272 l 1014 176 l 286 176 l 431 274 l 240 0 l -69 0 m 735 718 l 463 322 l 414 393 l 954 393 l 886 324 l 740 718 l 735 718 m 849 1064 l 885 1286 l 1125 1286 l 1089 1064 l 849 1064 m 475 1064 l 511 1286 l 751 1286 l 715 1064 l 475 1064 z "},"Ȧ":{"ha":1336,"x_min":-69,"x_max":1294,"o":"m -69 0 l 642 979 l 896 979 l 1294 0 l 1007 0 l 903 272 l 1014 176 l 286 176 l 431 274 l 240 0 l -69 0 m 735 718 l 463 322 l 414 393 l 954 393 l 886 324 l 740 718 l 735 718 m 660 1063 l 699 1290 l 940 1290 l 903 1063 l 660 1063 z "},"Ạ":{"ha":1336,"x_min":-69,"x_max":1294,"o":"m -69 0 l 642 979 l 896 979 l 1294 0 l 1007 0 l 903 272 l 1014 176 l 286 176 l 431 274 l 240 0 l -69 0 m 735 718 l 463 322 l 414 393 l 954 393 l 886 324 l 740 718 l 735 718 m 432 -324 l 468 -96 l 710 -96 l 674 -324 l 432 -324 z "},"À":{"ha":1336,"x_min":-69,"x_max":1294,"o":"m -69 0 l 642 979 l 896 979 l 1294 0 l 1007 0 l 903 272 l 1014 176 l 286 176 l 431 274 l 240 0 l -69 0 m 735 718 l 463 322 l 414 393 l 954 393 l 886 324 l 740 718 l 735 718 m 688 1063 l 442 1318 l 719 1318 l 876 1063 l 688 1063 z "},"Ả":{"ha":1336,"x_min":-69,"x_max":1294,"o":"m -69 0 l 642 979 l 896 979 l 1294 0 l 1007 0 l 903 272 l 1014 176 l 286 176 l 431 274 l 240 0 l -69 0 m 735 718 l 463 322 l 414 393 l 954 393 l 886 324 l 740 718 l 735 718 m 701 1063 l 704 1082 q 722 1113 707 1100 q 758 1136 738 1125 q 792 1156 778 1147 q 810 1176 807 1165 q 800 1194 814 1189 q 754 1200 786 1200 q 701 1195 726 1200 q 649 1179 676 1190 l 626 1282 q 722 1310 668 1300 q 836 1319 775 1319 q 983 1294 936 1319 q 1021 1221 1031 1268 q 991 1173 1014 1192 q 940 1140 968 1154 q 888 1111 911 1125 q 863 1076 865 1097 l 860 1063 l 701 1063 z "},"Ȃ":{"ha":1336,"x_min":-69,"x_max":1294,"o":"m -69 0 l 642 979 l 896 979 l 1294 0 l 1007 0 l 903 272 l 1014 176 l 286 176 l 431 274 l 240 0 l -69 0 m 735 718 l 463 322 l 414 393 l 954 393 l 886 324 l 740 718 l 735 718 m 601 1056 l 453 1068 q 579 1263 482 1196 q 831 1331 676 1331 q 1002 1301 935 1331 q 1098 1213 1069 1272 q 1115 1068 1126 1154 l 958 1056 q 926 1142 963 1113 q 803 1171 889 1171 q 669 1142 718 1171 q 601 1056 619 1113 z "},"Ā":{"ha":1336,"x_min":-69,"x_max":1294,"o":"m -69 0 l 642 979 l 896 979 l 1294 0 l 1007 0 l 903 272 l 1014 176 l 286 176 l 431 274 l 240 0 l -69 0 m 735 718 l 463 322 l 414 393 l 954 393 l 886 324 l 740 718 l 735 718 m 476 1097 l 501 1258 l 1124 1258 l 1099 1097 l 476 1097 z "},"Ą":{"ha":1336,"x_min":-69,"x_max":1294,"o":"m -69 0 l 642 979 l 896 979 l 1294 0 l 1007 0 l 903 272 l 1014 176 l 286 176 l 431 274 l 240 0 l -69 0 m 735 718 l 463 322 l 414 393 l 954 393 l 886 324 l 740 718 l 735 718 m 1093 -281 q 928 -242 979 -281 q 892 -132 876 -204 q 958 -22 904 -71 q 1118 67 1013 26 l 1183 0 q 1126 -28 1150 -14 q 1087 -58 1101 -42 q 1068 -92 1072 -75 q 1085 -133 1063 -119 q 1150 -147 1107 -147 q 1199 -143 1176 -147 q 1249 -132 1221 -139 l 1253 -254 q 1174 -274 1210 -268 q 1093 -281 1138 -281 z "},"Å":{"ha":1336,"x_min":-69,"x_max":1294,"o":"m -69 0 l 642 979 l 896 979 l 1294 0 l 1007 0 l 903 272 l 1014 176 l 286 176 l 431 274 l 240 0 l -69 0 m 735 718 l 463 322 l 414 393 l 954 393 l 886 324 l 740 718 l 735 718 m 811 1044 q 704 1069 751 1044 q 631 1137 657 1094 q 604 1232 604 1179 q 631 1328 604 1286 q 704 1395 657 1371 q 811 1419 751 1419 q 920 1395 874 1419 q 993 1328 967 1371 q 1019 1232 1019 1285 q 993 1137 1019 1179 q 920 1069 967 1094 q 811 1044 874 1044 m 811 1142 q 878 1167 854 1142 q 901 1233 901 1193 q 878 1297 901 1271 q 811 1322 854 1322 q 747 1297 771 1322 q 722 1233 722 1271 q 746 1167 722 1193 q 811 1142 769 1142 z "},"Ǻ":{"ha":1336,"x_min":-69,"x_max":1294,"o":"m -69 0 l 642 979 l 896 979 l 1294 0 l 1007 0 l 903 272 l 1014 176 l 286 176 l 431 274 l 240 0 l -69 0 m 735 718 l 463 322 l 414 393 l 954 393 l 886 324 l 740 718 l 735 718 m 825 1050 q 712 1076 761 1050 q 634 1147 663 1101 q 606 1247 606 1192 q 634 1349 606 1304 q 712 1419 663 1393 q 825 1446 761 1446 q 877 1440 851 1446 q 924 1426 903 1435 l 1021 1522 l 1233 1522 l 1021 1339 q 1037 1297 1031 1319 q 1043 1247 1043 1274 q 1015 1147 1043 1192 q 938 1076 988 1101 q 825 1050 889 1050 m 825 1153 q 893 1180 868 1153 q 918 1247 918 1207 q 893 1316 918 1289 q 824 1343 868 1343 q 756 1316 782 1343 q 731 1247 731 1289 q 756 1180 731 1207 q 825 1153 782 1153 z "},"Ã":{"ha":1336,"x_min":-69,"x_max":1294,"o":"m -69 0 l 642 979 l 896 979 l 1294 0 l 1007 0 l 903 272 l 1014 176 l 286 176 l 431 274 l 240 0 l -69 0 m 735 718 l 463 322 l 414 393 l 954 393 l 886 324 l 740 718 l 735 718 m 521 1054 l 378 1061 q 436 1188 396 1133 q 535 1272 476 1242 q 663 1303 593 1303 q 751 1289 707 1303 q 836 1258 794 1275 q 908 1233 874 1244 q 974 1222 942 1222 q 1045 1245 1017 1222 q 1089 1310 1074 1268 l 1233 1303 q 1129 1127 1206 1193 q 949 1061 1053 1061 q 858 1076 901 1061 q 772 1106 815 1090 q 702 1131 736 1119 q 636 1142 668 1142 q 565 1119 593 1142 q 521 1054 538 1097 z "},"Æ":{"ha":1761,"x_min":-137,"x_max":1764,"o":"m -137 0 l 768 979 l 1764 979 l 1728 760 l 1000 760 l 1085 822 l 1126 528 l 1038 607 l 1667 607 l 1633 388 l 1053 388 l 1135 468 l 1181 142 l 1086 219 l 1642 219 l 1608 0 l 925 0 l 889 269 l 965 175 l 300 175 l 440 260 l 207 0 l -137 0 m 828 703 l 501 335 l 469 397 l 954 397 l 882 326 l 833 703 l 828 703 z "},"Ǽ":{"ha":1761,"x_min":-137,"x_max":1764,"o":"m -137 0 l 768 979 l 1764 979 l 1728 760 l 1000 760 l 1085 822 l 1126 528 l 1038 607 l 1667 607 l 1633 388 l 1053 388 l 1135 468 l 1181 142 l 1086 219 l 1642 219 l 1608 0 l 925 0 l 889 269 l 965 175 l 300 175 l 440 260 l 207 0 l -137 0 m 828 703 l 501 335 l 469 397 l 954 397 l 882 326 l 833 703 l 828 703 m 883 1063 l 1135 1318 l 1417 1318 l 1081 1063 l 883 1063 z "},"B":{"ha":1250,"x_min":74,"x_max":1210,"o":"m 74 0 l 229 979 l 826 979 q 1043 949 956 979 q 1170 858 1131 919 q 1192 707 1210 797 q 1108 581 1175 638 q 949 500 1040 524 l 951 513 q 1076 468 1025 499 q 1147 385 1126 438 q 1151 253 1168 332 q 1071 114 1133 169 q 907 29 1008 58 q 672 0 806 0 l 74 0 m 389 208 l 690 208 q 744 210 718 208 q 791 218 769 213 q 830 233 813 224 q 858 258 847 243 q 875 296 869 274 q 873 342 881 324 q 845 372 865 361 q 794 388 825 382 q 724 393 764 393 l 418 393 l 389 208 m 451 599 l 724 599 q 853 618 813 599 q 903 681 893 638 q 878 750 913 729 q 751 771 844 771 l 479 771 l 451 599 z "},"Ɓ":{"ha":1539,"x_min":43,"x_max":1499,"o":"m 361 0 l 486 789 l 450 789 q 331 767 368 789 q 285 689 294 746 l 271 608 l 43 608 l 57 694 q 190 908 81 836 q 493 979 300 979 l 1114 979 q 1331 949 1243 979 q 1458 858 1418 919 q 1479 707 1499 797 q 1395 581 1463 638 q 1236 500 1328 524 l 1239 513 q 1364 468 1314 499 q 1435 385 1414 438 q 1439 253 1456 332 q 1358 114 1421 169 q 1195 29 1296 58 q 961 0 1094 0 l 361 0 m 676 208 l 979 208 q 1109 229 1065 208 q 1163 296 1153 250 q 1161 342 1168 324 q 1133 372 1154 361 q 1082 388 1113 382 q 1013 393 1051 393 l 706 393 l 676 208 m 739 599 l 1011 599 q 1140 618 1100 599 q 1190 681 1181 638 q 1166 750 1200 729 q 1039 771 1132 771 l 767 771 l 739 599 z "},"C":{"ha":1204,"x_min":86,"x_max":1206,"o":"m 675 -17 q 328 53 464 -17 q 140 249 193 124 q 119 542 86 375 q 206 742 143 657 q 360 883 269 826 q 565 967 451 939 q 803 994 678 994 q 1035 966 932 994 q 1206 879 1139 938 l 1099 658 q 960 728 1031 708 q 799 749 889 749 q 619 724 697 749 q 492 644 542 699 q 424 506 442 590 q 433 356 406 417 q 528 262 460 294 q 700 229 596 229 q 874 251 794 229 q 1040 324 954 274 l 1111 103 q 985 38 1054 64 q 836 -3 915 11 q 675 -17 757 -17 z "},"Ć":{"ha":1204,"x_min":86,"x_max":1251,"o":"m 675 -17 q 328 53 464 -17 q 140 249 193 124 q 119 542 86 375 q 206 742 143 657 q 360 883 269 826 q 565 967 451 939 q 803 994 678 994 q 1035 966 932 994 q 1206 879 1139 938 l 1099 658 q 960 728 1031 708 q 799 749 889 749 q 619 724 697 749 q 492 644 542 699 q 424 506 442 590 q 433 356 406 417 q 528 262 460 294 q 700 229 596 229 q 874 251 794 229 q 1040 324 954 274 l 1111 103 q 985 38 1054 64 q 836 -3 915 11 q 675 -17 757 -17 m 719 1063 l 971 1318 l 1253 1318 l 917 1063 l 719 1063 z "},"Č":{"ha":1204,"x_min":86,"x_max":1206,"o":"m 675 -17 q 328 53 464 -17 q 140 249 193 124 q 119 542 86 375 q 206 742 143 657 q 360 883 269 826 q 565 967 451 939 q 803 994 678 994 q 1035 966 932 994 q 1206 879 1139 938 l 1099 658 q 960 728 1031 708 q 799 749 889 749 q 619 724 697 749 q 492 644 542 699 q 424 506 442 590 q 433 356 406 417 q 528 262 460 294 q 700 229 596 229 q 874 251 794 229 q 1040 324 954 274 l 1111 103 q 985 38 1054 64 q 836 -3 915 11 q 675 -17 757 -17 m 703 1063 l 535 1319 l 731 1319 l 843 1196 l 1003 1319 l 1193 1319 l 933 1063 l 703 1063 z "},"Ç":{"ha":1204,"x_min":86,"x_max":1206,"o":"m 675 -17 q 328 53 464 -17 q 140 249 193 124 q 119 542 86 375 q 206 742 143 657 q 360 883 269 826 q 565 967 451 939 q 803 994 678 994 q 1035 966 932 994 q 1206 879 1139 938 l 1099 658 q 960 728 1031 708 q 799 749 889 749 q 619 724 697 749 q 492 644 542 699 q 424 506 442 590 q 433 356 406 417 q 528 262 460 294 q 700 229 596 229 q 874 251 794 229 q 1040 324 954 274 l 1111 103 q 985 38 1054 64 q 836 -3 915 11 q 675 -17 757 -17 m 601 -281 q 496 -272 547 -281 q 411 -249 444 -264 l 469 -146 q 536 -167 504 -160 q 615 -174 568 -174 q 679 -167 660 -174 q 701 -146 699 -161 q 688 -125 706 -131 q 636 -119 669 -119 q 604 -120 624 -119 q 563 -125 585 -121 l 533 -92 l 571 28 l 700 28 l 667 -83 l 611 -56 q 663 -46 638 -49 q 718 -43 689 -43 q 799 -54 767 -43 q 847 -90 832 -65 q 853 -154 863 -115 q 776 -251 840 -221 q 601 -281 711 -281 z "},"Ḉ":{"ha":1204,"x_min":86,"x_max":1251,"o":"m 675 -17 q 328 53 464 -17 q 140 249 193 124 q 119 542 86 375 q 206 742 143 657 q 360 883 269 826 q 565 967 451 939 q 803 994 678 994 q 1035 966 932 994 q 1206 879 1139 938 l 1099 658 q 960 728 1031 708 q 799 749 889 749 q 619 724 697 749 q 492 644 542 699 q 424 506 442 590 q 433 356 406 417 q 528 262 460 294 q 700 229 596 229 q 874 251 794 229 q 1040 324 954 274 l 1111 103 q 985 38 1054 64 q 836 -3 915 11 q 675 -17 757 -17 m 601 -281 q 496 -272 547 -281 q 411 -249 444 -264 l 469 -146 q 536 -167 504 -160 q 615 -174 568 -174 q 679 -167 660 -174 q 701 -146 699 -161 q 688 -125 706 -131 q 636 -119 669 -119 q 604 -120 624 -119 q 563 -125 585 -121 l 533 -92 l 571 28 l 700 28 l 667 -83 l 611 -56 q 663 -46 638 -49 q 718 -43 689 -43 q 799 -54 767 -43 q 847 -90 832 -65 q 853 -154 863 -115 q 776 -251 840 -221 q 601 -281 711 -281 m 719 1063 l 971 1318 l 1253 1318 l 917 1063 l 719 1063 z "},"Ĉ":{"ha":1204,"x_min":86,"x_max":1206,"o":"m 675 -17 q 328 53 464 -17 q 140 249 193 124 q 119 542 86 375 q 206 742 143 657 q 360 883 269 826 q 565 967 451 939 q 803 994 678 994 q 1035 966 932 994 q 1206 879 1139 938 l 1099 658 q 960 728 1031 708 q 799 749 889 749 q 619 724 697 749 q 492 644 542 699 q 424 506 442 590 q 433 356 406 417 q 528 262 460 294 q 700 229 596 229 q 874 251 794 229 q 1040 324 954 274 l 1111 103 q 985 38 1054 64 q 836 -3 915 11 q 675 -17 757 -17 m 492 1063 l 750 1318 l 981 1318 l 1149 1063 l 957 1063 l 842 1185 l 683 1063 l 492 1063 z "},"Ċ":{"ha":1204,"x_min":86,"x_max":1206,"o":"m 675 -17 q 328 53 464 -17 q 140 249 193 124 q 119 542 86 375 q 206 742 143 657 q 360 883 269 826 q 565 967 451 939 q 803 994 678 994 q 1035 966 932 994 q 1206 879 1139 938 l 1099 658 q 960 728 1031 708 q 799 749 889 749 q 619 724 697 749 q 492 644 542 699 q 424 506 442 590 q 433 356 406 417 q 528 262 460 294 q 700 229 596 229 q 874 251 794 229 q 1040 324 954 274 l 1111 103 q 985 38 1054 64 q 836 -3 915 11 q 675 -17 757 -17 m 696 1063 l 735 1290 l 976 1290 l 939 1063 l 696 1063 z "},"D":{"ha":1368,"x_min":74,"x_max":1347,"o":"m 74 0 l 229 979 l 753 979 q 1208 844 1069 979 q 1293 436 1347 708 q 1209 236 1269 319 q 1057 101 1149 153 q 842 24 965 49 q 568 0 719 0 l 74 0 m 407 235 l 590 235 q 750 247 681 235 q 869 288 819 260 q 949 362 918 317 q 994 472 981 407 q 950 681 1024 617 q 683 744 876 744 l 486 744 l 407 235 z "},"Ǆ":{"ha":2435,"x_min":74,"x_max":2468,"o":"m 74 0 l 229 979 l 753 979 q 1208 844 1069 979 q 1293 436 1347 708 q 1209 236 1269 319 q 1057 101 1149 153 q 842 24 965 49 q 568 0 719 0 l 74 0 m 407 235 l 590 235 q 750 247 681 235 q 869 288 819 260 q 949 362 918 317 q 994 472 981 407 q 950 681 1024 617 q 683 744 876 744 l 486 744 l 407 235 m 1372 0 l 1404 206 l 2128 829 l 2122 754 l 1490 754 l 1528 979 l 2468 979 l 2435 775 l 1710 150 l 1715 225 l 2371 225 l 2336 0 l 1372 0 m 1906 1063 l 1738 1319 l 1933 1319 l 2046 1196 l 2206 1319 l 2396 1319 l 2136 1063 l 1906 1063 z "},"Ð":{"ha":1368,"x_min":-7,"x_max":1347,"o":"m 74 0 l 229 979 l 753 979 q 1208 844 1069 979 q 1293 436 1347 708 q 1209 236 1269 319 q 1057 101 1149 153 q 842 24 965 49 q 568 0 719 0 l 74 0 m 407 235 l 590 235 q 750 247 681 235 q 869 288 819 260 q 949 362 918 317 q 994 472 981 407 q 950 681 1024 617 q 683 744 876 744 l 486 744 l 407 235 m -7 397 l 24 590 l 775 590 l 744 397 l -7 397 z "},"Ď":{"ha":1368,"x_min":74,"x_max":1347,"o":"m 74 0 l 229 979 l 753 979 q 1208 844 1069 979 q 1293 436 1347 708 q 1209 236 1269 319 q 1057 101 1149 153 q 842 24 965 49 q 568 0 719 0 l 74 0 m 407 235 l 590 235 q 750 247 681 235 q 869 288 819 260 q 949 362 918 317 q 994 472 981 407 q 950 681 1024 617 q 683 744 876 744 l 486 744 l 407 235 m 679 1063 l 511 1319 l 707 1319 l 819 1196 l 979 1319 l 1169 1319 l 910 1063 l 679 1063 z "},"Đ":{"ha":1368,"x_min":-7,"x_max":1347,"o":"m 74 0 l 229 979 l 753 979 q 1208 844 1069 979 q 1293 436 1347 708 q 1209 236 1269 319 q 1057 101 1149 153 q 842 24 965 49 q 568 0 719 0 l 74 0 m 407 235 l 590 235 q 750 247 681 235 q 869 288 819 260 q 949 362 918 317 q 994 472 981 407 q 950 681 1024 617 q 683 744 876 744 l 486 744 l 407 235 m -7 397 l 24 590 l 775 590 l 744 397 l -7 397 z "},"Ḍ":{"ha":1368,"x_min":74,"x_max":1347,"o":"m 74 0 l 229 979 l 753 979 q 1208 844 1069 979 q 1293 436 1347 708 q 1209 236 1269 319 q 1057 101 1149 153 q 842 24 965 49 q 568 0 719 0 l 74 0 m 407 235 l 590 235 q 750 247 681 235 q 869 288 819 260 q 949 362 918 317 q 994 472 981 407 q 950 681 1024 617 q 683 744 876 744 l 486 744 l 407 235 m 447 -324 l 483 -96 l 725 -96 l 689 -324 l 447 -324 z "},"Ɗ":{"ha":1656,"x_min":43,"x_max":1635,"o":"m 361 0 l 486 789 l 450 789 q 331 767 368 789 q 285 689 294 746 l 271 608 l 43 608 l 57 694 q 190 908 81 836 q 493 979 300 979 l 1040 979 q 1496 844 1357 979 q 1582 436 1635 708 q 1497 236 1557 319 q 1345 101 1438 153 q 1130 24 1253 49 q 856 0 1007 0 l 361 0 m 694 235 l 878 235 q 1039 247 969 235 q 1158 288 1108 260 q 1238 362 1207 317 q 1282 472 1268 407 q 1238 681 1311 617 q 972 744 1164 744 l 774 744 l 694 235 z "},"Ḏ":{"ha":1368,"x_min":74,"x_max":1347,"o":"m 74 0 l 229 979 l 753 979 q 1208 844 1069 979 q 1293 436 1347 708 q 1209 236 1269 319 q 1057 101 1149 153 q 842 24 965 49 q 568 0 719 0 l 74 0 m 407 235 l 590 235 q 750 247 681 235 q 869 288 819 260 q 949 362 918 317 q 994 472 981 407 q 950 681 1024 617 q 683 744 876 744 l 486 744 l 407 235 m 279 -264 l 306 -103 l 901 -103 l 875 -264 l 279 -264 z "},"ǅ":{"ha":2238,"x_min":74,"x_max":2250,"o":"m 74 0 l 229 979 l 753 979 q 1208 844 1069 979 q 1293 436 1347 708 q 1209 236 1269 319 q 1057 101 1149 153 q 842 24 965 49 q 568 0 719 0 l 74 0 m 407 235 l 590 235 q 750 247 681 235 q 869 288 819 260 q 949 362 918 317 q 994 472 981 407 q 950 681 1024 617 q 683 744 876 744 l 486 744 l 407 235 m 1396 0 l 1426 186 l 1939 560 l 1919 494 l 1475 494 l 1506 692 l 2226 692 l 2197 508 l 1678 136 l 1697 197 l 2168 197 l 2135 0 l 1396 0 m 1765 776 l 1621 1075 l 1799 1075 l 1908 913 l 2072 1075 l 2250 1075 l 2000 776 l 1765 776 z "},"E":{"ha":1083,"x_min":74,"x_max":1086,"o":"m 74 0 l 229 979 l 1086 979 l 1050 760 l 476 760 l 453 607 l 985 607 l 950 388 l 419 388 l 392 219 l 965 219 l 931 0 l 74 0 z "},"É":{"ha":1083,"x_min":74,"x_max":1133,"o":"m 74 0 l 229 979 l 1086 979 l 1050 760 l 476 760 l 453 607 l 985 607 l 950 388 l 419 388 l 392 219 l 965 219 l 931 0 l 74 0 m 600 1063 l 851 1318 l 1133 1318 l 797 1063 l 600 1063 z "},"Ĕ":{"ha":1083,"x_min":74,"x_max":1086,"o":"m 74 0 l 229 979 l 1086 979 l 1050 760 l 476 760 l 453 607 l 985 607 l 950 388 l 419 388 l 392 219 l 965 219 l 931 0 l 74 0 m 696 1056 q 526 1085 593 1056 q 430 1174 458 1115 q 413 1318 401 1232 l 567 1331 q 601 1244 564 1274 q 725 1215 639 1215 q 860 1244 811 1215 q 925 1331 908 1274 l 1075 1318 q 947 1123 1046 1190 q 696 1056 849 1056 z "},"Ě":{"ha":1083,"x_min":74,"x_max":1086,"o":"m 74 0 l 229 979 l 1086 979 l 1050 760 l 476 760 l 453 607 l 985 607 l 950 388 l 419 388 l 392 219 l 965 219 l 931 0 l 74 0 m 583 1063 l 415 1319 l 611 1319 l 724 1196 l 883 1319 l 1074 1319 l 814 1063 l 583 1063 z "},"Ȩ":{"ha":1083,"x_min":74,"x_max":1086,"o":"m 74 0 l 229 979 l 1086 979 l 1050 760 l 476 760 l 453 607 l 985 607 l 950 388 l 419 388 l 392 219 l 965 219 l 931 0 l 74 0 m 497 -281 q 392 -272 443 -281 q 307 -249 340 -264 l 365 -146 q 432 -167 400 -160 q 511 -174 464 -174 q 575 -167 556 -174 q 597 -146 594 -161 q 583 -125 601 -131 q 532 -119 565 -119 q 500 -120 519 -119 q 458 -125 481 -121 l 429 -92 l 467 28 l 596 28 l 563 -83 l 507 -56 q 559 -46 533 -49 q 614 -43 585 -43 q 695 -54 663 -43 q 743 -90 728 -65 q 749 -154 758 -115 q 672 -251 736 -221 q 497 -281 607 -281 z "},"Ḝ":{"ha":1083,"x_min":74,"x_max":1086,"o":"m 74 0 l 229 979 l 1086 979 l 1050 760 l 476 760 l 453 607 l 985 607 l 950 388 l 419 388 l 392 219 l 965 219 l 931 0 l 74 0 m 497 -281 q 392 -272 443 -281 q 307 -249 340 -264 l 365 -146 q 432 -167 400 -160 q 511 -174 464 -174 q 575 -167 556 -174 q 597 -146 594 -161 q 583 -125 601 -131 q 532 -119 565 -119 q 500 -120 519 -119 q 458 -125 481 -121 l 429 -92 l 467 28 l 596 28 l 563 -83 l 507 -56 q 559 -46 533 -49 q 614 -43 585 -43 q 695 -54 663 -43 q 743 -90 728 -65 q 749 -154 758 -115 q 672 -251 736 -221 q 497 -281 607 -281 m 696 1056 q 526 1085 593 1056 q 430 1174 458 1115 q 413 1318 401 1232 l 567 1331 q 601 1244 564 1274 q 725 1215 639 1215 q 860 1244 811 1215 q 925 1331 908 1274 l 1075 1318 q 947 1123 1046 1190 q 696 1056 849 1056 z "},"Ê":{"ha":1083,"x_min":74,"x_max":1086,"o":"m 74 0 l 229 979 l 1086 979 l 1050 760 l 476 760 l 453 607 l 985 607 l 950 388 l 419 388 l 392 219 l 965 219 l 931 0 l 74 0 m 372 1063 l 631 1318 l 861 1318 l 1029 1063 l 838 1063 l 722 1185 l 564 1063 l 372 1063 z "},"Ế":{"ha":1083,"x_min":74,"x_max":1319,"o":"m 74 0 l 229 979 l 1086 979 l 1050 760 l 476 760 l 453 607 l 985 607 l 950 388 l 419 388 l 392 219 l 965 219 l 931 0 l 74 0 m 383 1063 l 628 1318 l 858 1318 l 1010 1063 l 832 1063 l 719 1188 l 560 1063 l 383 1063 m 933 1233 l 1100 1442 l 1319 1442 l 1086 1233 l 933 1233 z "},"Ệ":{"ha":1083,"x_min":74,"x_max":1086,"o":"m 74 0 l 229 979 l 1086 979 l 1050 760 l 476 760 l 453 607 l 985 607 l 950 388 l 419 388 l 392 219 l 965 219 l 931 0 l 74 0 m 356 -324 l 392 -96 l 633 -96 l 597 -324 l 356 -324 m 372 1063 l 631 1318 l 861 1318 l 1029 1063 l 838 1063 l 722 1185 l 564 1063 l 372 1063 z "},"Ề":{"ha":1083,"x_min":74,"x_max":1153,"o":"m 74 0 l 229 979 l 1086 979 l 1050 760 l 476 760 l 453 607 l 985 607 l 950 388 l 419 388 l 392 219 l 965 219 l 931 0 l 74 0 m 383 1063 l 628 1318 l 858 1318 l 1010 1063 l 832 1063 l 719 1188 l 560 1063 l 383 1063 m 1000 1233 l 844 1442 l 1063 1442 l 1153 1233 l 1000 1233 z "},"Ể":{"ha":1083,"x_min":74,"x_max":1221,"o":"m 74 0 l 229 979 l 1086 979 l 1050 760 l 476 760 l 453 607 l 985 607 l 950 388 l 419 388 l 392 219 l 965 219 l 931 0 l 74 0 m 383 1063 l 624 1297 l 854 1297 l 1010 1063 l 832 1063 l 717 1178 l 560 1063 l 383 1063 m 940 1229 q 952 1262 940 1249 q 981 1288 964 1275 q 1009 1310 997 1300 q 1024 1329 1021 1319 q 1015 1344 1025 1339 q 982 1349 1006 1349 q 938 1345 958 1349 q 885 1331 917 1342 l 869 1419 q 953 1442 910 1435 q 1047 1449 996 1449 q 1178 1428 1136 1449 q 1213 1367 1221 1407 q 1188 1322 1207 1340 q 1145 1290 1168 1304 q 1105 1263 1122 1276 q 1086 1229 1088 1249 l 940 1229 z "},"Ễ":{"ha":1083,"x_min":74,"x_max":1089,"o":"m 74 0 l 229 979 l 1086 979 l 1050 760 l 476 760 l 453 607 l 985 607 l 950 388 l 419 388 l 392 219 l 965 219 l 931 0 l 74 0 m 385 1063 l 618 1256 l 849 1256 l 1011 1063 l 829 1063 l 714 1151 l 568 1063 l 385 1063 m 536 1290 l 414 1297 q 494 1418 435 1375 q 646 1461 553 1461 q 719 1452 686 1461 q 781 1433 751 1443 q 828 1420 804 1426 q 878 1414 851 1414 q 935 1426 913 1414 q 967 1460 957 1439 l 1089 1453 q 1007 1333 1067 1376 q 854 1289 947 1289 q 783 1298 814 1289 q 724 1315 751 1307 q 676 1331 699 1325 q 626 1338 654 1338 q 575 1326 600 1338 q 536 1290 550 1315 z "},"Ȅ":{"ha":1083,"x_min":74,"x_max":1086,"o":"m 74 0 l 229 979 l 1086 979 l 1050 760 l 476 760 l 453 607 l 985 607 l 950 388 l 419 388 l 392 219 l 965 219 l 931 0 l 74 0 m 763 1063 l 578 1318 l 814 1318 l 915 1063 l 763 1063 m 481 1063 l 272 1318 l 510 1318 l 633 1063 l 481 1063 z "},"Ë":{"ha":1083,"x_min":74,"x_max":1086,"o":"m 74 0 l 229 979 l 1086 979 l 1050 760 l 476 760 l 453 607 l 985 607 l 950 388 l 419 388 l 392 219 l 965 219 l 931 0 l 74 0 m 765 1064 l 801 1286 l 1042 1286 l 1006 1064 l 765 1064 m 392 1064 l 428 1286 l 668 1286 l 632 1064 l 392 1064 z "},"Ė":{"ha":1083,"x_min":74,"x_max":1086,"o":"m 74 0 l 229 979 l 1086 979 l 1050 760 l 476 760 l 453 607 l 985 607 l 950 388 l 419 388 l 392 219 l 965 219 l 931 0 l 74 0 m 576 1063 l 615 1290 l 857 1290 l 819 1063 l 576 1063 z "},"Ẹ":{"ha":1083,"x_min":74,"x_max":1086,"o":"m 74 0 l 229 979 l 1086 979 l 1050 760 l 476 760 l 453 607 l 985 607 l 950 388 l 419 388 l 392 219 l 965 219 l 931 0 l 74 0 m 356 -324 l 392 -96 l 633 -96 l 597 -324 l 356 -324 z "},"È":{"ha":1083,"x_min":74,"x_max":1086,"o":"m 74 0 l 229 979 l 1086 979 l 1050 760 l 476 760 l 453 607 l 985 607 l 950 388 l 419 388 l 392 219 l 965 219 l 931 0 l 74 0 m 604 1063 l 358 1318 l 636 1318 l 793 1063 l 604 1063 z "},"Ẻ":{"ha":1083,"x_min":74,"x_max":1086,"o":"m 74 0 l 229 979 l 1086 979 l 1050 760 l 476 760 l 453 607 l 985 607 l 950 388 l 419 388 l 392 219 l 965 219 l 931 0 l 74 0 m 618 1063 l 621 1082 q 639 1113 624 1100 q 674 1136 654 1125 q 709 1156 694 1147 q 726 1176 724 1165 q 717 1194 731 1189 q 671 1200 703 1200 q 618 1195 643 1200 q 565 1179 593 1190 l 543 1282 q 638 1310 585 1300 q 753 1319 692 1319 q 900 1294 853 1319 q 938 1221 947 1268 q 908 1173 931 1192 q 856 1140 885 1154 q 805 1111 828 1125 q 779 1076 782 1097 l 776 1063 l 618 1063 z "},"Ȇ":{"ha":1083,"x_min":74,"x_max":1086,"o":"m 74 0 l 229 979 l 1086 979 l 1050 760 l 476 760 l 453 607 l 985 607 l 950 388 l 419 388 l 392 219 l 965 219 l 931 0 l 74 0 m 518 1056 l 369 1068 q 496 1263 399 1196 q 747 1331 593 1331 q 919 1301 851 1331 q 1015 1213 986 1272 q 1032 1068 1043 1154 l 875 1056 q 842 1142 879 1113 q 719 1171 806 1171 q 585 1142 635 1171 q 518 1056 536 1113 z "},"Ē":{"ha":1083,"x_min":74,"x_max":1086,"o":"m 74 0 l 229 979 l 1086 979 l 1050 760 l 476 760 l 453 607 l 985 607 l 950 388 l 419 388 l 392 219 l 965 219 l 931 0 l 74 0 m 393 1097 l 418 1258 l 1040 1258 l 1015 1097 l 393 1097 z "},"Ḗ":{"ha":1083,"x_min":74,"x_max":1086,"o":"m 74 0 l 229 979 l 1086 979 l 1050 760 l 476 760 l 453 607 l 985 607 l 950 388 l 419 388 l 392 219 l 965 219 l 931 0 l 74 0 m 404 1082 l 429 1233 l 1024 1233 l 999 1082 l 404 1082 m 642 1275 l 790 1451 l 1050 1451 l 813 1275 l 642 1275 z "},"Ḕ":{"ha":1083,"x_min":74,"x_max":1086,"o":"m 74 0 l 229 979 l 1086 979 l 1050 760 l 476 760 l 453 607 l 985 607 l 950 388 l 419 388 l 392 219 l 965 219 l 931 0 l 74 0 m 651 1275 l 478 1451 l 738 1451 l 822 1275 l 651 1275 m 404 1082 l 429 1233 l 1024 1233 l 999 1082 l 404 1082 z "},"Ę":{"ha":1083,"x_min":74,"x_max":1086,"o":"m 74 0 l 229 979 l 1086 979 l 1050 760 l 476 760 l 453 607 l 985 607 l 950 388 l 419 388 l 392 219 l 965 219 l 931 0 l 74 0 m 769 -281 q 604 -242 656 -281 q 568 -132 553 -204 q 635 -22 581 -71 q 794 67 689 26 l 860 0 q 802 -28 826 -14 q 763 -58 778 -42 q 744 -92 749 -75 q 761 -133 739 -119 q 826 -147 783 -147 q 875 -143 853 -147 q 925 -132 897 -139 l 929 -254 q 850 -274 886 -268 q 769 -281 814 -281 z "},"Ẽ":{"ha":1083,"x_min":74,"x_max":1150,"o":"m 74 0 l 229 979 l 1086 979 l 1050 760 l 476 760 l 453 607 l 985 607 l 950 388 l 419 388 l 392 219 l 965 219 l 931 0 l 74 0 m 438 1054 l 294 1061 q 353 1188 313 1133 q 451 1272 393 1242 q 579 1303 510 1303 q 667 1289 624 1303 q 753 1258 711 1275 q 824 1233 790 1244 q 890 1222 858 1222 q 962 1245 933 1222 q 1006 1310 990 1268 l 1150 1303 q 1046 1127 1122 1193 q 865 1061 969 1061 q 775 1076 818 1061 q 689 1106 732 1090 q 619 1131 653 1119 q 553 1142 585 1142 q 482 1119 510 1142 q 438 1054 454 1097 z "},"Ə":{"ha":1417,"x_min":96,"x_max":1378,"o":"m 675 -15 q 413 22 526 -15 q 227 127 300 58 q 125 290 154 196 q 115 496 96 383 l 131 594 l 1156 594 l 1122 388 l 310 388 l 407 489 q 417 338 390 399 q 509 244 443 276 q 682 211 575 211 q 853 238 776 211 q 982 322 931 265 q 1051 467 1033 379 q 1041 633 1072 568 q 928 728 1010 697 q 710 760 846 760 q 563 750 632 760 q 432 722 494 740 q 310 674 369 703 l 224 888 q 380 946 293 922 q 560 982 467 969 q 744 994 654 994 q 1123 928 978 994 q 1323 738 1268 861 q 1343 446 1378 614 q 1255 238 1318 325 q 1100 95 1192 151 q 899 12 1008 39 q 675 -15 790 -15 z "},"F":{"ha":1024,"x_min":74,"x_max":1076,"o":"m 74 0 l 229 979 l 1076 979 l 1040 760 l 490 760 l 463 593 l 976 593 l 942 372 l 428 372 l 369 0 l 74 0 z "},"G":{"ha":1314,"x_min":85,"x_max":1251,"o":"m 699 -15 q 335 53 475 -15 q 140 247 194 122 q 118 538 85 371 q 207 742 144 656 q 363 884 269 828 q 574 967 457 940 q 822 994 692 994 q 991 983 911 994 q 1138 948 1071 972 q 1251 886 1204 924 l 1143 668 q 993 734 1071 715 q 817 753 915 753 q 624 728 707 753 q 490 649 542 703 q 418 503 438 594 q 465 292 390 365 q 717 219 539 219 q 847 228 785 219 q 978 254 910 236 l 929 196 l 956 365 l 703 365 l 733 558 l 1226 558 l 1150 69 q 1006 25 1083 44 q 849 -5 928 6 q 699 -15 769 -15 z "},"Ğ":{"ha":1314,"x_min":85,"x_max":1251,"o":"m 699 -15 q 335 53 475 -15 q 140 247 194 122 q 118 538 85 371 q 207 742 144 656 q 363 884 269 828 q 574 967 457 940 q 822 994 692 994 q 991 983 911 994 q 1138 948 1071 972 q 1251 886 1204 924 l 1143 668 q 993 734 1071 715 q 817 753 915 753 q 624 728 707 753 q 490 649 542 703 q 418 503 438 594 q 465 292 390 365 q 717 219 539 219 q 847 228 785 219 q 978 254 910 236 l 929 196 l 956 365 l 703 365 l 733 558 l 1226 558 l 1150 69 q 1006 25 1083 44 q 849 -5 928 6 q 699 -15 769 -15 m 844 1056 q 674 1085 742 1056 q 578 1174 607 1115 q 561 1318 550 1232 l 715 1331 q 750 1244 713 1274 q 874 1215 788 1215 q 1008 1244 960 1215 q 1074 1331 1057 1274 l 1224 1318 q 1096 1123 1194 1190 q 844 1056 997 1056 z "},"Ǧ":{"ha":1314,"x_min":85,"x_max":1251,"o":"m 699 -15 q 335 53 475 -15 q 140 247 194 122 q 118 538 85 371 q 207 742 144 656 q 363 884 269 828 q 574 967 457 940 q 822 994 692 994 q 991 983 911 994 q 1138 948 1071 972 q 1251 886 1204 924 l 1143 668 q 993 734 1071 715 q 817 753 915 753 q 624 728 707 753 q 490 649 542 703 q 418 503 438 594 q 465 292 390 365 q 717 219 539 219 q 847 228 785 219 q 978 254 910 236 l 929 196 l 956 365 l 703 365 l 733 558 l 1226 558 l 1150 69 q 1006 25 1083 44 q 849 -5 928 6 q 699 -15 769 -15 m 732 1063 l 564 1319 l 760 1319 l 872 1196 l 1032 1319 l 1222 1319 l 963 1063 l 732 1063 z "},"Ĝ":{"ha":1314,"x_min":85,"x_max":1251,"o":"m 699 -15 q 335 53 475 -15 q 140 247 194 122 q 118 538 85 371 q 207 742 144 656 q 363 884 269 828 q 574 967 457 940 q 822 994 692 994 q 991 983 911 994 q 1138 948 1071 972 q 1251 886 1204 924 l 1143 668 q 993 734 1071 715 q 817 753 915 753 q 624 728 707 753 q 490 649 542 703 q 418 503 438 594 q 465 292 390 365 q 717 219 539 219 q 847 228 785 219 q 978 254 910 236 l 929 196 l 956 365 l 703 365 l 733 558 l 1226 558 l 1150 69 q 1006 25 1083 44 q 849 -5 928 6 q 699 -15 769 -15 m 521 1063 l 779 1318 l 1010 1318 l 1178 1063 l 986 1063 l 871 1185 l 713 1063 l 521 1063 z "},"Ģ":{"ha":1314,"x_min":85,"x_max":1251,"o":"m 699 -15 q 335 53 475 -15 q 140 247 194 122 q 118 538 85 371 q 207 742 144 656 q 363 884 269 828 q 574 967 457 940 q 822 994 692 994 q 991 983 911 994 q 1138 948 1071 972 q 1251 886 1204 924 l 1143 668 q 993 734 1071 715 q 817 753 915 753 q 624 728 707 753 q 490 649 542 703 q 418 503 438 594 q 465 292 390 365 q 717 219 539 219 q 847 228 785 219 q 978 254 910 236 l 929 196 l 956 365 l 703 365 l 733 558 l 1226 558 l 1150 69 q 1006 25 1083 44 q 849 -5 928 6 q 699 -15 769 -15 m 583 -450 l 521 -396 q 598 -314 572 -350 q 629 -244 624 -278 l 667 -283 l 507 -283 l 539 -86 l 760 -86 l 739 -221 q 690 -340 728 -285 q 583 -450 651 -396 z "},"Ġ":{"ha":1314,"x_min":85,"x_max":1251,"o":"m 699 -15 q 335 53 475 -15 q 140 247 194 122 q 118 538 85 371 q 207 742 144 656 q 363 884 269 828 q 574 967 457 940 q 822 994 692 994 q 991 983 911 994 q 1138 948 1071 972 q 1251 886 1204 924 l 1143 668 q 993 734 1071 715 q 817 753 915 753 q 624 728 707 753 q 490 649 542 703 q 418 503 438 594 q 465 292 390 365 q 717 219 539 219 q 847 228 785 219 q 978 254 910 236 l 929 196 l 956 365 l 703 365 l 733 558 l 1226 558 l 1150 69 q 1006 25 1083 44 q 849 -5 928 6 q 699 -15 769 -15 m 725 1063 l 764 1290 l 1006 1290 l 968 1063 l 725 1063 z "},"Ḡ":{"ha":1314,"x_min":85,"x_max":1251,"o":"m 699 -15 q 335 53 475 -15 q 140 247 194 122 q 118 538 85 371 q 207 742 144 656 q 363 884 269 828 q 574 967 457 940 q 822 994 692 994 q 991 983 911 994 q 1138 948 1071 972 q 1251 886 1204 924 l 1143 668 q 993 734 1071 715 q 817 753 915 753 q 624 728 707 753 q 490 649 542 703 q 418 503 438 594 q 465 292 390 365 q 717 219 539 219 q 847 228 785 219 q 978 254 910 236 l 929 196 l 956 365 l 703 365 l 733 558 l 1226 558 l 1150 69 q 1006 25 1083 44 q 849 -5 928 6 q 699 -15 769 -15 m 542 1097 l 567 1258 l 1189 1258 l 1164 1097 l 542 1097 z "},"H":{"ha":1386,"x_min":74,"x_max":1358,"o":"m 74 0 l 229 979 l 525 979 l 467 613 l 1004 613 l 1063 979 l 1358 979 l 1203 0 l 907 0 l 965 379 l 428 379 l 369 0 l 74 0 z "},"Ħ":{"ha":1472,"x_min":85,"x_max":1526,"o":"m 117 0 l 225 686 l 85 686 l 115 879 l 256 879 l 272 979 l 568 979 l 551 875 l 1089 875 l 1106 979 l 1401 979 l 1385 879 l 1526 879 l 1496 686 l 1354 686 l 1246 0 l 950 0 l 1001 322 l 464 322 l 413 0 l 117 0 m 500 556 l 1038 556 l 1060 690 l 522 690 l 500 556 z "},"Ḫ":{"ha":1386,"x_min":74,"x_max":1358,"o":"m 74 0 l 229 979 l 525 979 l 467 613 l 1004 613 l 1063 979 l 1358 979 l 1203 0 l 907 0 l 965 379 l 428 379 l 369 0 l 74 0 m 582 -299 q 369 -237 439 -299 q 313 -67 300 -176 l 468 -53 q 506 -122 469 -99 q 611 -144 542 -144 q 725 -122 681 -144 q 788 -53 769 -99 l 938 -67 q 818 -237 911 -175 q 582 -299 725 -299 z "},"Ĥ":{"ha":1386,"x_min":74,"x_max":1358,"o":"m 74 0 l 229 979 l 525 979 l 467 613 l 1004 613 l 1063 979 l 1358 979 l 1203 0 l 907 0 l 965 379 l 428 379 l 369 0 l 74 0 m 481 1063 l 739 1318 l 969 1318 l 1138 1063 l 946 1063 l 831 1185 l 672 1063 l 481 1063 z "},"Ḥ":{"ha":1386,"x_min":74,"x_max":1358,"o":"m 74 0 l 229 979 l 525 979 l 467 613 l 1004 613 l 1063 979 l 1358 979 l 1203 0 l 907 0 l 965 379 l 428 379 l 369 0 l 74 0 m 464 -324 l 500 -96 l 742 -96 l 706 -324 l 464 -324 z "},"I":{"ha":553,"x_min":74,"x_max":525,"o":"m 74 0 l 229 979 l 525 979 l 369 0 l 74 0 z "},"Ĳ":{"ha":1243,"x_min":74,"x_max":1215,"o":"m 74 0 l 229 979 l 525 979 l 369 0 l 74 0 m 501 -15 l 525 214 l 667 222 q 744 238 713 225 q 793 272 775 250 q 815 324 811 294 l 919 979 l 1215 979 l 1111 325 q 1038 152 1094 225 q 888 39 981 79 q 675 -8 796 -1 l 501 -15 z "},"Í":{"ha":553,"x_min":74,"x_max":824,"o":"m 74 0 l 229 979 l 525 979 l 369 0 l 74 0 m 292 1063 l 543 1318 l 825 1318 l 489 1063 l 292 1063 z "},"Ĭ":{"ha":553,"x_min":74,"x_max":767,"o":"m 74 0 l 229 979 l 525 979 l 369 0 l 74 0 m 388 1056 q 217 1085 285 1056 q 122 1174 150 1115 q 104 1318 93 1232 l 258 1331 q 293 1244 256 1274 q 417 1215 331 1215 q 551 1244 503 1215 q 617 1331 600 1274 l 767 1318 q 639 1123 738 1190 q 388 1056 540 1056 z "},"Î":{"ha":553,"x_min":64,"x_max":721,"o":"m 74 0 l 229 979 l 525 979 l 369 0 l 74 0 m 64 1063 l 322 1318 l 553 1318 l 721 1063 l 529 1063 l 414 1185 l 256 1063 l 64 1063 z "},"Ȉ":{"ha":553,"x_min":-36,"x_max":607,"o":"m 74 0 l 229 979 l 525 979 l 369 0 l 74 0 m 454 1063 l 269 1318 l 506 1318 l 607 1063 l 454 1063 m 172 1063 l -36 1318 l 201 1318 l 325 1063 l 172 1063 z "},"Ï":{"ha":553,"x_min":74,"x_max":733,"o":"m 74 0 l 229 979 l 525 979 l 369 0 l 74 0 m 457 1064 l 493 1286 l 733 1286 l 697 1064 l 457 1064 m 83 1064 l 119 1286 l 360 1286 l 324 1064 l 83 1064 z "},"Ḯ":{"ha":553,"x_min":74,"x_max":742,"o":"m 74 0 l 229 979 l 525 979 l 369 0 l 74 0 m 333 1267 l 482 1442 l 742 1442 l 504 1267 l 333 1267 m 89 1065 l 114 1224 l 354 1224 l 329 1065 l 89 1065 m 453 1065 l 478 1224 l 719 1224 l 694 1065 l 453 1065 z "},"İ":{"ha":553,"x_min":74,"x_max":549,"o":"m 74 0 l 229 979 l 525 979 l 369 0 l 74 0 m 268 1063 l 307 1290 l 549 1290 l 511 1063 l 268 1063 z "},"Ị":{"ha":553,"x_min":50,"x_max":525,"o":"m 74 0 l 229 979 l 525 979 l 369 0 l 74 0 m 50 -324 l 86 -96 l 328 -96 l 292 -324 l 50 -324 z "},"Ì":{"ha":553,"x_min":50,"x_max":525,"o":"m 74 0 l 229 979 l 525 979 l 369 0 l 74 0 m 296 1063 l 50 1318 l 328 1318 l 485 1063 l 296 1063 z "},"Ỉ":{"ha":553,"x_min":74,"x_max":639,"o":"m 74 0 l 229 979 l 525 979 l 369 0 l 74 0 m 310 1063 l 313 1082 q 331 1113 315 1100 q 366 1136 346 1125 q 401 1156 386 1147 q 418 1176 415 1165 q 408 1194 422 1189 q 363 1200 394 1200 q 310 1195 335 1200 q 257 1179 285 1190 l 235 1282 q 330 1310 276 1300 q 444 1319 383 1319 q 592 1294 544 1319 q 629 1221 639 1268 q 599 1173 622 1192 q 548 1140 576 1154 q 497 1111 519 1125 q 471 1076 474 1097 l 468 1063 l 310 1063 z "},"Ȋ":{"ha":553,"x_min":61,"x_max":735,"o":"m 74 0 l 229 979 l 525 979 l 369 0 l 74 0 m 210 1056 l 61 1068 q 188 1263 90 1196 q 439 1331 285 1331 q 610 1301 543 1331 q 706 1213 678 1272 q 724 1068 735 1154 l 567 1056 q 534 1142 571 1113 q 411 1171 497 1171 q 277 1142 326 1171 q 210 1056 228 1113 z "},"Ī":{"ha":553,"x_min":74,"x_max":732,"o":"m 74 0 l 229 979 l 525 979 l 369 0 l 74 0 m 85 1097 l 110 1258 l 732 1258 l 707 1097 l 85 1097 z "},"Į":{"ha":553,"x_min":0,"x_max":525,"o":"m 74 0 l 229 979 l 525 979 l 369 0 l 74 0 m 217 -281 q 51 -242 103 -281 q 15 -132 0 -204 q 82 -22 28 -71 q 242 67 136 26 l 307 0 q 249 -28 274 -14 q 210 -58 225 -42 q 192 -92 196 -75 q 208 -133 186 -119 q 274 -147 231 -147 q 322 -143 300 -147 q 372 -132 344 -139 l 376 -254 q 297 -274 333 -268 q 217 -281 261 -281 z "},"Ĩ":{"ha":553,"x_min":-14,"x_max":842,"o":"m 74 0 l 229 979 l 525 979 l 369 0 l 74 0 m 129 1054 l -14 1061 q 44 1188 4 1133 q 143 1272 85 1242 q 271 1303 201 1303 q 359 1289 315 1303 q 444 1258 403 1275 q 516 1233 482 1244 q 582 1222 550 1222 q 653 1245 625 1222 q 697 1310 682 1268 l 842 1303 q 738 1127 814 1193 q 557 1061 661 1061 q 467 1076 510 1061 q 381 1106 424 1090 q 310 1131 344 1119 q 244 1142 276 1142 q 174 1119 201 1142 q 129 1054 146 1097 z "},"J":{"ha":690,"x_min":-51,"x_max":663,"o":"m -51 -15 l -28 214 l 114 222 q 191 238 160 225 q 240 272 222 250 q 263 324 258 294 l 367 979 l 663 979 l 558 325 q 485 152 542 225 q 335 39 428 79 q 122 -8 243 -1 l -51 -15 z "},"Ĵ":{"ha":690,"x_min":-51,"x_max":858,"o":"m -51 -15 l -28 214 l 114 222 q 191 238 160 225 q 240 272 222 250 q 263 324 258 294 l 367 979 l 663 979 l 558 325 q 485 152 542 225 q 335 39 428 79 q 122 -8 243 -1 l -51 -15 m 201 1063 l 460 1318 l 690 1318 l 858 1063 l 667 1063 l 551 1185 l 393 1063 l 201 1063 z "},"K":{"ha":1236,"x_min":74,"x_max":1360,"o":"m 74 0 l 229 979 l 525 979 l 458 568 l 464 568 l 971 979 l 1360 979 l 682 461 l 685 550 l 1232 0 l 853 0 l 443 436 l 438 436 l 369 0 l 74 0 z "},"Ķ":{"ha":1236,"x_min":74,"x_max":1360,"o":"m 74 0 l 229 979 l 525 979 l 458 568 l 464 568 l 971 979 l 1360 979 l 682 461 l 685 550 l 1232 0 l 853 0 l 443 436 l 438 436 l 369 0 l 74 0 m 478 -450 l 415 -396 q 492 -314 467 -350 q 524 -244 518 -278 l 561 -283 l 401 -283 l 433 -86 l 654 -86 l 633 -221 q 584 -340 622 -285 q 478 -450 546 -396 z "},"L":{"ha":1024,"x_min":74,"x_max":960,"o":"m 74 0 l 229 979 l 525 979 l 407 236 l 960 236 l 922 0 l 74 0 z "},"Ǉ":{"ha":1783,"x_min":74,"x_max":1756,"o":"m 74 0 l 229 979 l 525 979 l 407 236 l 960 236 l 922 0 l 74 0 m 1042 -15 l 1065 214 l 1207 222 q 1284 238 1253 225 q 1333 272 1315 250 q 1356 324 1351 294 l 1460 979 l 1756 979 l 1651 325 q 1578 152 1635 225 q 1428 39 1521 79 q 1215 -8 1336 -1 l 1042 -15 z "},"Ĺ":{"ha":1024,"x_min":74,"x_max":960,"o":"m 74 0 l 229 979 l 525 979 l 407 236 l 960 236 l 922 0 l 74 0 m 290 1063 l 542 1318 l 824 1318 l 488 1063 l 290 1063 z "},"Ľ":{"ha":1024,"x_min":74,"x_max":960,"o":"m 74 0 l 229 979 l 525 979 l 407 236 l 960 236 l 922 0 l 74 0 m 629 632 l 685 979 l 894 979 l 796 632 l 629 632 z "},"Ļ":{"ha":1024,"x_min":74,"x_max":960,"o":"m 74 0 l 229 979 l 525 979 l 407 236 l 960 236 l 922 0 l 74 0 m 418 -450 l 356 -396 q 433 -314 407 -350 q 464 -244 458 -278 l 501 -283 l 342 -283 l 374 -86 l 594 -86 l 574 -221 q 524 -340 563 -285 q 418 -450 486 -396 z "},"Ŀ":{"ha":1024,"x_min":74,"x_max":972,"o":"m 74 0 l 229 979 l 525 979 l 407 236 l 960 236 l 922 0 l 74 0 m 635 438 l 674 678 l 971 678 l 933 438 l 635 438 z "},"Ḷ":{"ha":1024,"x_min":74,"x_max":960,"o":"m 74 0 l 229 979 l 525 979 l 407 236 l 960 236 l 922 0 l 74 0 m 325 -324 l 361 -96 l 603 -96 l 567 -324 l 325 -324 z "},"ǈ":{"ha":1513,"x_min":74,"x_max":1526,"o":"m 74 0 l 229 979 l 525 979 l 407 236 l 960 236 l 922 0 l 74 0 m 1196 801 l 1233 1042 l 1526 1042 l 1488 801 l 1196 801 m 846 -268 l 865 -72 l 961 -64 q 1044 -37 1014 -58 q 1081 33 1074 -15 l 1186 692 l 1465 692 l 1367 64 q 1331 -66 1356 -8 q 1258 -165 1306 -124 q 1133 -230 1210 -206 q 940 -261 1056 -254 l 846 -268 z "},"Ḻ":{"ha":1024,"x_min":74,"x_max":960,"o":"m 74 0 l 229 979 l 525 979 l 407 236 l 960 236 l 922 0 l 74 0 m 157 -264 l 183 -103 l 779 -103 l 753 -264 l 157 -264 z "},"Ł":{"ha":1024,"x_min":-51,"x_max":960,"o":"m 74 0 l 229 979 l 525 979 l 407 236 l 960 236 l 922 0 l 74 0 m 7 253 l -51 428 l 764 819 l 822 644 l 7 253 z "},"M":{"ha":1582,"x_min":76,"x_max":1551,"o":"m 76 0 l 232 979 l 501 979 l 824 400 l 783 400 l 1283 979 l 1551 979 l 1396 0 l 1128 0 l 1224 601 l 1258 601 l 846 151 l 694 151 l 431 604 l 442 604 l 344 0 l 76 0 z "},"Ṃ":{"ha":1582,"x_min":76,"x_max":1551,"o":"m 76 0 l 232 979 l 501 979 l 824 400 l 783 400 l 1283 979 l 1551 979 l 1396 0 l 1128 0 l 1224 601 l 1258 601 l 846 151 l 694 151 l 431 604 l 442 604 l 344 0 l 76 0 m 549 -324 l 585 -96 l 826 -96 l 790 -324 l 549 -324 z "},"N":{"ha":1353,"x_min":74,"x_max":1325,"o":"m 74 0 l 229 979 l 447 979 l 969 371 l 949 371 l 1046 979 l 1325 979 l 1169 0 l 946 0 l 428 603 l 449 603 l 354 0 l 74 0 z "},"Ǌ":{"ha":2043,"x_min":74,"x_max":2015,"o":"m 74 0 l 229 979 l 447 979 l 969 371 l 949 371 l 1046 979 l 1325 979 l 1169 0 l 946 0 l 428 603 l 449 603 l 354 0 l 74 0 m 1301 -15 l 1325 214 l 1467 222 q 1544 238 1513 225 q 1593 272 1575 250 q 1615 324 1611 294 l 1719 979 l 2015 979 l 1911 325 q 1838 152 1894 225 q 1688 39 1781 79 q 1475 -8 1596 -1 l 1301 -15 z "},"Ń":{"ha":1353,"x_min":74,"x_max":1325,"o":"m 74 0 l 229 979 l 447 979 l 969 371 l 949 371 l 1046 979 l 1325 979 l 1169 0 l 946 0 l 428 603 l 449 603 l 354 0 l 74 0 m 697 1063 l 949 1318 l 1231 1318 l 894 1063 l 697 1063 z "},"Ň":{"ha":1353,"x_min":74,"x_max":1325,"o":"m 74 0 l 229 979 l 447 979 l 969 371 l 949 371 l 1046 979 l 1325 979 l 1169 0 l 946 0 l 428 603 l 449 603 l 354 0 l 74 0 m 681 1063 l 513 1319 l 708 1319 l 821 1196 l 981 1319 l 1171 1319 l 911 1063 l 681 1063 z "},"Ņ":{"ha":1353,"x_min":74,"x_max":1325,"o":"m 74 0 l 229 979 l 447 979 l 969 371 l 949 371 l 1046 979 l 1325 979 l 1169 0 l 946 0 l 428 603 l 449 603 l 354 0 l 74 0 m 540 -450 l 478 -396 q 555 -314 529 -350 q 586 -244 581 -278 l 624 -283 l 464 -283 l 496 -86 l 717 -86 l 696 -221 q 647 -340 685 -285 q 540 -450 608 -396 z "},"Ṅ":{"ha":1353,"x_min":74,"x_max":1325,"o":"m 74 0 l 229 979 l 447 979 l 969 371 l 949 371 l 1046 979 l 1325 979 l 1169 0 l 946 0 l 428 603 l 449 603 l 354 0 l 74 0 m 674 1063 l 713 1290 l 954 1290 l 917 1063 l 674 1063 z "},"Ṇ":{"ha":1353,"x_min":74,"x_max":1325,"o":"m 74 0 l 229 979 l 447 979 l 969 371 l 949 371 l 1046 979 l 1325 979 l 1169 0 l 946 0 l 428 603 l 449 603 l 354 0 l 74 0 m 447 -324 l 483 -96 l 725 -96 l 689 -324 l 447 -324 z "},"ǋ":{"ha":1840,"x_min":74,"x_max":1856,"o":"m 74 0 l 229 979 l 447 979 l 969 371 l 949 371 l 1046 979 l 1325 979 l 1169 0 l 946 0 l 428 603 l 449 603 l 354 0 l 74 0 m 1525 801 l 1563 1042 l 1856 1042 l 1817 801 l 1525 801 m 1175 -268 l 1194 -72 l 1290 -64 q 1373 -37 1343 -58 q 1410 33 1403 -15 l 1515 692 l 1794 692 l 1696 64 q 1660 -66 1685 -8 q 1587 -165 1635 -124 q 1462 -230 1539 -206 q 1269 -261 1385 -254 l 1175 -268 z "},"Ṉ":{"ha":1353,"x_min":74,"x_max":1325,"o":"m 74 0 l 229 979 l 447 979 l 969 371 l 949 371 l 1046 979 l 1325 979 l 1169 0 l 946 0 l 428 603 l 449 603 l 354 0 l 74 0 m 279 -264 l 306 -103 l 901 -103 l 875 -264 l 279 -264 z "},"Ñ":{"ha":1353,"x_min":74,"x_max":1325,"o":"m 74 0 l 229 979 l 447 979 l 969 371 l 949 371 l 1046 979 l 1325 979 l 1169 0 l 946 0 l 428 603 l 449 603 l 354 0 l 74 0 m 535 1054 l 392 1061 q 450 1188 410 1133 q 549 1272 490 1242 q 676 1303 607 1303 q 765 1289 721 1303 q 850 1258 808 1275 q 922 1233 888 1244 q 988 1222 956 1222 q 1059 1245 1031 1222 q 1103 1310 1088 1268 l 1247 1303 q 1143 1127 1219 1193 q 963 1061 1067 1061 q 872 1076 915 1061 q 786 1106 829 1090 q 716 1131 750 1119 q 650 1142 682 1142 q 579 1119 607 1142 q 535 1054 551 1097 z "},"Ŋ":{"ha":1353,"x_min":74,"x_max":1325,"o":"m 667 -267 l 688 -75 l 783 -67 q 858 -43 831 -61 q 892 17 885 -25 l 906 106 l 944 3 l 428 603 l 449 603 l 354 0 l 74 0 l 229 979 l 447 979 l 969 371 l 949 371 l 1046 979 l 1325 979 l 1181 61 q 1147 -60 1169 -4 q 1077 -158 1124 -115 q 953 -228 1031 -201 q 754 -261 875 -254 l 667 -267 z "},"O":{"ha":1418,"x_min":88,"x_max":1376,"o":"m 669 -15 q 333 56 467 -15 q 143 254 199 128 q 119 546 88 381 q 206 738 144 654 q 360 878 268 821 q 562 965 451 935 q 796 994 672 994 q 1132 923 999 994 q 1321 725 1265 851 q 1343 435 1376 599 q 1258 242 1319 326 q 1105 101 1196 158 q 902 15 1014 44 q 669 -15 790 -15 m 685 222 q 851 252 776 222 q 977 337 926 282 q 1044 469 1028 392 q 1000 679 1071 601 q 779 757 929 757 q 611 728 686 757 q 487 644 536 699 q 419 510 438 589 q 463 300 392 378 q 685 222 535 222 z "},"Ó":{"ha":1418,"x_min":88,"x_max":1376,"o":"m 669 -15 q 333 56 467 -15 q 143 254 199 128 q 119 546 88 381 q 206 738 144 654 q 360 878 268 821 q 562 965 451 935 q 796 994 672 994 q 1132 923 999 994 q 1321 725 1265 851 q 1343 435 1376 599 q 1258 242 1319 326 q 1105 101 1196 158 q 902 15 1014 44 q 669 -15 790 -15 m 685 222 q 851 252 776 222 q 977 337 926 282 q 1044 469 1028 392 q 1000 679 1071 601 q 779 757 929 757 q 611 728 686 757 q 487 644 536 699 q 419 510 438 589 q 463 300 392 378 q 685 222 535 222 m 731 1063 l 982 1318 l 1264 1318 l 928 1063 l 731 1063 z "},"Ŏ":{"ha":1418,"x_min":88,"x_max":1376,"o":"m 669 -15 q 333 56 467 -15 q 143 254 199 128 q 119 546 88 381 q 206 738 144 654 q 360 878 268 821 q 562 965 451 935 q 796 994 672 994 q 1132 923 999 994 q 1321 725 1265 851 q 1343 435 1376 599 q 1258 242 1319 326 q 1105 101 1196 158 q 902 15 1014 44 q 669 -15 790 -15 m 685 222 q 851 252 776 222 q 977 337 926 282 q 1044 469 1028 392 q 1000 679 1071 601 q 779 757 929 757 q 611 728 686 757 q 487 644 536 699 q 419 510 438 589 q 463 300 392 378 q 685 222 535 222 m 826 1056 q 656 1085 724 1056 q 560 1174 589 1115 q 543 1318 532 1232 l 697 1331 q 732 1244 694 1274 q 856 1215 769 1215 q 990 1244 942 1215 q 1056 1331 1039 1274 l 1206 1318 q 1078 1123 1176 1190 q 826 1056 979 1056 z "},"Ô":{"ha":1418,"x_min":88,"x_max":1376,"o":"m 669 -15 q 333 56 467 -15 q 143 254 199 128 q 119 546 88 381 q 206 738 144 654 q 360 878 268 821 q 562 965 451 935 q 796 994 672 994 q 1132 923 999 994 q 1321 725 1265 851 q 1343 435 1376 599 q 1258 242 1319 326 q 1105 101 1196 158 q 902 15 1014 44 q 669 -15 790 -15 m 685 222 q 851 252 776 222 q 977 337 926 282 q 1044 469 1028 392 q 1000 679 1071 601 q 779 757 929 757 q 611 728 686 757 q 487 644 536 699 q 419 510 438 589 q 463 300 392 378 q 685 222 535 222 m 503 1063 l 761 1318 l 992 1318 l 1160 1063 l 968 1063 l 853 1185 l 694 1063 l 503 1063 z "},"Ố":{"ha":1418,"x_min":88,"x_max":1450,"o":"m 669 -15 q 333 56 467 -15 q 143 254 199 128 q 119 546 88 381 q 206 738 144 654 q 360 878 268 821 q 562 965 451 935 q 796 994 672 994 q 1132 923 999 994 q 1321 725 1265 851 q 1343 435 1376 599 q 1258 242 1319 326 q 1105 101 1196 158 q 902 15 1014 44 q 669 -15 790 -15 m 685 222 q 851 252 776 222 q 977 337 926 282 q 1044 469 1028 392 q 1000 679 1071 601 q 779 757 929 757 q 611 728 686 757 q 487 644 536 699 q 419 510 438 589 q 463 300 392 378 q 685 222 535 222 m 514 1063 l 758 1318 l 989 1318 l 1140 1063 l 963 1063 l 850 1188 l 690 1063 l 514 1063 m 1064 1233 l 1231 1442 l 1450 1442 l 1217 1233 l 1064 1233 z "},"Ộ":{"ha":1418,"x_min":88,"x_max":1376,"o":"m 669 -15 q 333 56 467 -15 q 143 254 199 128 q 119 546 88 381 q 206 738 144 654 q 360 878 268 821 q 562 965 451 935 q 796 994 672 994 q 1132 923 999 994 q 1321 725 1265 851 q 1343 435 1376 599 q 1258 242 1319 326 q 1105 101 1196 158 q 902 15 1014 44 q 669 -15 790 -15 m 685 222 q 851 252 776 222 q 977 337 926 282 q 1044 469 1028 392 q 1000 679 1071 601 q 779 757 929 757 q 611 728 686 757 q 487 644 536 699 q 419 510 438 589 q 463 300 392 378 q 685 222 535 222 m 481 -324 l 517 -96 l 758 -96 l 722 -324 l 481 -324 m 503 1063 l 761 1318 l 992 1318 l 1160 1063 l 968 1063 l 853 1185 l 694 1063 l 503 1063 z "},"Ồ":{"ha":1418,"x_min":88,"x_max":1376,"o":"m 669 -15 q 333 56 467 -15 q 143 254 199 128 q 119 546 88 381 q 206 738 144 654 q 360 878 268 821 q 562 965 451 935 q 796 994 672 994 q 1132 923 999 994 q 1321 725 1265 851 q 1343 435 1376 599 q 1258 242 1319 326 q 1105 101 1196 158 q 902 15 1014 44 q 669 -15 790 -15 m 685 222 q 851 252 776 222 q 977 337 926 282 q 1044 469 1028 392 q 1000 679 1071 601 q 779 757 929 757 q 611 728 686 757 q 487 644 536 699 q 419 510 438 589 q 463 300 392 378 q 685 222 535 222 m 514 1063 l 758 1318 l 989 1318 l 1140 1063 l 963 1063 l 850 1188 l 690 1063 l 514 1063 m 1131 1233 l 975 1442 l 1193 1442 l 1283 1233 l 1131 1233 z "},"Ổ":{"ha":1418,"x_min":88,"x_max":1376,"o":"m 669 -15 q 333 56 467 -15 q 143 254 199 128 q 119 546 88 381 q 206 738 144 654 q 360 878 268 821 q 562 965 451 935 q 796 994 672 994 q 1132 923 999 994 q 1321 725 1265 851 q 1343 435 1376 599 q 1258 242 1319 326 q 1105 101 1196 158 q 902 15 1014 44 q 669 -15 790 -15 m 685 222 q 851 252 776 222 q 977 337 926 282 q 1044 469 1028 392 q 1000 679 1071 601 q 779 757 929 757 q 611 728 686 757 q 487 644 536 699 q 419 510 438 589 q 463 300 392 378 q 685 222 535 222 m 514 1063 l 754 1297 l 985 1297 l 1140 1063 l 963 1063 l 847 1178 l 690 1063 l 514 1063 m 1071 1229 q 1083 1262 1071 1249 q 1111 1288 1094 1275 q 1140 1310 1128 1300 q 1154 1329 1151 1319 q 1146 1344 1156 1339 q 1113 1349 1136 1349 q 1068 1345 1089 1349 q 1015 1331 1047 1342 l 1000 1419 q 1083 1442 1040 1435 q 1178 1449 1126 1449 q 1309 1428 1267 1449 q 1343 1367 1351 1407 q 1318 1322 1338 1340 q 1276 1290 1299 1304 q 1235 1263 1253 1276 q 1217 1229 1218 1249 l 1071 1229 z "},"Ỗ":{"ha":1418,"x_min":88,"x_max":1376,"o":"m 669 -15 q 333 56 467 -15 q 143 254 199 128 q 119 546 88 381 q 206 738 144 654 q 360 878 268 821 q 562 965 451 935 q 796 994 672 994 q 1132 923 999 994 q 1321 725 1265 851 q 1343 435 1376 599 q 1258 242 1319 326 q 1105 101 1196 158 q 902 15 1014 44 q 669 -15 790 -15 m 685 222 q 851 252 776 222 q 977 337 926 282 q 1044 469 1028 392 q 1000 679 1071 601 q 779 757 929 757 q 611 728 686 757 q 487 644 536 699 q 419 510 438 589 q 463 300 392 378 q 685 222 535 222 m 515 1063 l 749 1256 l 979 1256 l 1142 1063 l 960 1063 l 844 1151 l 699 1063 l 515 1063 m 667 1290 l 544 1297 q 624 1418 565 1375 q 776 1461 683 1461 q 849 1452 817 1461 q 911 1433 882 1443 q 958 1420 935 1426 q 1008 1414 982 1414 q 1065 1426 1043 1414 q 1097 1460 1088 1439 l 1219 1453 q 1138 1333 1197 1376 q 985 1289 1078 1289 q 913 1298 944 1289 q 854 1315 882 1307 q 807 1331 829 1325 q 757 1338 785 1338 q 706 1326 731 1338 q 667 1290 681 1315 z "},"Ȍ":{"ha":1418,"x_min":88,"x_max":1376,"o":"m 669 -15 q 333 56 467 -15 q 143 254 199 128 q 119 546 88 381 q 206 738 144 654 q 360 878 268 821 q 562 965 451 935 q 796 994 672 994 q 1132 923 999 994 q 1321 725 1265 851 q 1343 435 1376 599 q 1258 242 1319 326 q 1105 101 1196 158 q 902 15 1014 44 q 669 -15 790 -15 m 685 222 q 851 252 776 222 q 977 337 926 282 q 1044 469 1028 392 q 1000 679 1071 601 q 779 757 929 757 q 611 728 686 757 q 487 644 536 699 q 419 510 438 589 q 463 300 392 378 q 685 222 535 222 m 893 1063 l 708 1318 l 944 1318 l 1046 1063 l 893 1063 m 611 1063 l 403 1318 l 640 1318 l 764 1063 l 611 1063 z "},"Ö":{"ha":1418,"x_min":88,"x_max":1376,"o":"m 669 -15 q 333 56 467 -15 q 143 254 199 128 q 119 546 88 381 q 206 738 144 654 q 360 878 268 821 q 562 965 451 935 q 796 994 672 994 q 1132 923 999 994 q 1321 725 1265 851 q 1343 435 1376 599 q 1258 242 1319 326 q 1105 101 1196 158 q 902 15 1014 44 q 669 -15 790 -15 m 685 222 q 851 252 776 222 q 977 337 926 282 q 1044 469 1028 392 q 1000 679 1071 601 q 779 757 929 757 q 611 728 686 757 q 487 644 536 699 q 419 510 438 589 q 463 300 392 378 q 685 222 535 222 m 896 1064 l 932 1286 l 1172 1286 l 1136 1064 l 896 1064 m 522 1064 l 558 1286 l 799 1286 l 763 1064 l 522 1064 z "},"Ȫ":{"ha":1418,"x_min":88,"x_max":1376,"o":"m 669 -15 q 333 56 467 -15 q 143 254 199 128 q 119 546 88 381 q 206 738 144 654 q 360 878 268 821 q 562 965 451 935 q 796 994 672 994 q 1132 923 999 994 q 1321 725 1265 851 q 1343 435 1376 599 q 1258 242 1319 326 q 1105 101 1196 158 q 902 15 1014 44 q 669 -15 790 -15 m 685 222 q 851 252 776 222 q 977 337 926 282 q 1044 469 1028 392 q 1000 679 1071 601 q 779 757 929 757 q 611 728 686 757 q 487 644 536 699 q 419 510 438 589 q 463 300 392 378 q 685 222 535 222 m 567 1288 l 592 1442 l 1188 1442 l 1164 1288 l 567 1288 m 528 1074 l 553 1232 l 794 1232 l 768 1074 l 528 1074 m 893 1074 l 918 1232 l 1160 1232 l 1135 1074 l 893 1074 z "},"Ȱ":{"ha":1418,"x_min":88,"x_max":1376,"o":"m 669 -15 q 333 56 467 -15 q 143 254 199 128 q 119 546 88 381 q 206 738 144 654 q 360 878 268 821 q 562 965 451 935 q 796 994 672 994 q 1132 923 999 994 q 1321 725 1265 851 q 1343 435 1376 599 q 1258 242 1319 326 q 1105 101 1196 158 q 902 15 1014 44 q 669 -15 790 -15 m 685 222 q 851 252 776 222 q 977 337 926 282 q 1044 469 1028 392 q 1000 679 1071 601 q 779 757 929 757 q 611 728 686 757 q 487 644 536 699 q 419 510 438 589 q 463 300 392 378 q 685 222 535 222 m 575 1285 l 599 1435 l 1179 1435 l 1154 1285 l 575 1285 m 714 1076 l 739 1235 l 975 1235 l 950 1076 l 714 1076 z "},"Ọ":{"ha":1418,"x_min":88,"x_max":1376,"o":"m 669 -15 q 333 56 467 -15 q 143 254 199 128 q 119 546 88 381 q 206 738 144 654 q 360 878 268 821 q 562 965 451 935 q 796 994 672 994 q 1132 923 999 994 q 1321 725 1265 851 q 1343 435 1376 599 q 1258 242 1319 326 q 1105 101 1196 158 q 902 15 1014 44 q 669 -15 790 -15 m 685 222 q 851 252 776 222 q 977 337 926 282 q 1044 469 1028 392 q 1000 679 1071 601 q 779 757 929 757 q 611 728 686 757 q 487 644 536 699 q 419 510 438 589 q 463 300 392 378 q 685 222 535 222 m 481 -324 l 517 -96 l 758 -96 l 722 -324 l 481 -324 z "},"Ò":{"ha":1418,"x_min":88,"x_max":1376,"o":"m 669 -15 q 333 56 467 -15 q 143 254 199 128 q 119 546 88 381 q 206 738 144 654 q 360 878 268 821 q 562 965 451 935 q 796 994 672 994 q 1132 923 999 994 q 1321 725 1265 851 q 1343 435 1376 599 q 1258 242 1319 326 q 1105 101 1196 158 q 902 15 1014 44 q 669 -15 790 -15 m 685 222 q 851 252 776 222 q 977 337 926 282 q 1044 469 1028 392 q 1000 679 1071 601 q 779 757 929 757 q 611 728 686 757 q 487 644 536 699 q 419 510 438 589 q 463 300 392 378 q 685 222 535 222 m 735 1063 l 489 1318 l 767 1318 l 924 1063 l 735 1063 z "},"Ỏ":{"ha":1418,"x_min":88,"x_max":1376,"o":"m 669 -15 q 333 56 467 -15 q 143 254 199 128 q 119 546 88 381 q 206 738 144 654 q 360 878 268 821 q 562 965 451 935 q 796 994 672 994 q 1132 923 999 994 q 1321 725 1265 851 q 1343 435 1376 599 q 1258 242 1319 326 q 1105 101 1196 158 q 902 15 1014 44 q 669 -15 790 -15 m 685 222 q 851 252 776 222 q 977 337 926 282 q 1044 469 1028 392 q 1000 679 1071 601 q 779 757 929 757 q 611 728 686 757 q 487 644 536 699 q 419 510 438 589 q 463 300 392 378 q 685 222 535 222 m 749 1063 l 751 1082 q 769 1113 754 1100 q 805 1136 785 1125 q 840 1156 825 1147 q 857 1176 854 1165 q 847 1194 861 1189 q 801 1200 833 1200 q 749 1195 774 1200 q 696 1179 724 1190 l 674 1282 q 769 1310 715 1300 q 883 1319 822 1319 q 1031 1294 983 1319 q 1068 1221 1078 1268 q 1038 1173 1061 1192 q 987 1140 1015 1154 q 935 1111 958 1125 q 910 1076 913 1097 l 907 1063 l 749 1063 z "},"Ơ":{"ha":1418,"x_min":88,"x_max":1463,"o":"m 669 -15 q 333 56 467 -15 q 143 254 199 128 q 119 546 88 381 q 206 738 144 654 q 360 878 268 821 q 562 965 451 935 q 796 994 672 994 q 1132 923 999 994 q 1321 725 1265 851 q 1343 435 1376 599 q 1258 242 1319 326 q 1105 101 1196 158 q 902 15 1014 44 q 669 -15 790 -15 m 685 222 q 851 252 776 222 q 977 337 926 282 q 1044 469 1028 392 q 1000 679 1071 601 q 779 757 929 757 q 611 728 686 757 q 487 644 536 699 q 419 510 438 589 q 463 300 392 378 q 685 222 535 222 m 981 860 l 935 985 q 991 981 964 983 q 1044 979 1018 979 q 1141 991 1106 979 q 1195 1031 1176 1003 q 1221 1110 1214 1060 l 1226 1150 l 1461 1150 l 1450 1078 q 1398 969 1440 1019 q 1294 890 1356 919 q 1165 860 1232 860 l 981 860 z "},"Ớ":{"ha":1418,"x_min":88,"x_max":1463,"o":"m 669 -15 q 333 56 467 -15 q 143 254 199 128 q 119 546 88 381 q 206 738 144 654 q 360 878 268 821 q 562 965 451 935 q 796 994 672 994 q 1132 923 999 994 q 1321 725 1265 851 q 1343 435 1376 599 q 1258 242 1319 326 q 1105 101 1196 158 q 902 15 1014 44 q 669 -15 790 -15 m 685 222 q 851 252 776 222 q 977 337 926 282 q 1044 469 1028 392 q 1000 679 1071 601 q 779 757 929 757 q 611 728 686 757 q 487 644 536 699 q 419 510 438 589 q 463 300 392 378 q 685 222 535 222 m 981 860 l 935 985 q 991 981 964 983 q 1044 979 1018 979 q 1141 991 1106 979 q 1195 1031 1176 1003 q 1221 1110 1214 1060 l 1226 1150 l 1461 1150 l 1450 1078 q 1398 969 1440 1019 q 1294 890 1356 919 q 1165 860 1232 860 l 981 860 m 697 1063 l 949 1318 l 1231 1318 l 894 1063 l 697 1063 z "},"Ợ":{"ha":1418,"x_min":88,"x_max":1463,"o":"m 669 -15 q 333 56 467 -15 q 143 254 199 128 q 119 546 88 381 q 206 738 144 654 q 360 878 268 821 q 562 965 451 935 q 796 994 672 994 q 1132 923 999 994 q 1321 725 1265 851 q 1343 435 1376 599 q 1258 242 1319 326 q 1105 101 1196 158 q 902 15 1014 44 q 669 -15 790 -15 m 685 222 q 851 252 776 222 q 977 337 926 282 q 1044 469 1028 392 q 1000 679 1071 601 q 779 757 929 757 q 611 728 686 757 q 487 644 536 699 q 419 510 438 589 q 463 300 392 378 q 685 222 535 222 m 981 860 l 935 985 q 991 981 964 983 q 1044 979 1018 979 q 1141 991 1106 979 q 1195 1031 1176 1003 q 1221 1110 1214 1060 l 1226 1150 l 1461 1150 l 1450 1078 q 1398 969 1440 1019 q 1294 890 1356 919 q 1165 860 1232 860 l 981 860 m 481 -324 l 517 -96 l 758 -96 l 722 -324 l 481 -324 z "},"Ờ":{"ha":1418,"x_min":88,"x_max":1463,"o":"m 669 -15 q 333 56 467 -15 q 143 254 199 128 q 119 546 88 381 q 206 738 144 654 q 360 878 268 821 q 562 965 451 935 q 796 994 672 994 q 1132 923 999 994 q 1321 725 1265 851 q 1343 435 1376 599 q 1258 242 1319 326 q 1105 101 1196 158 q 902 15 1014 44 q 669 -15 790 -15 m 685 222 q 851 252 776 222 q 977 337 926 282 q 1044 469 1028 392 q 1000 679 1071 601 q 779 757 929 757 q 611 728 686 757 q 487 644 536 699 q 419 510 438 589 q 463 300 392 378 q 685 222 535 222 m 981 860 l 935 985 q 991 981 964 983 q 1044 979 1018 979 q 1141 991 1106 979 q 1195 1031 1176 1003 q 1221 1110 1214 1060 l 1226 1150 l 1461 1150 l 1450 1078 q 1398 969 1440 1019 q 1294 890 1356 919 q 1165 860 1232 860 l 981 860 m 701 1063 l 456 1318 l 733 1318 l 890 1063 l 701 1063 z "},"Ở":{"ha":1418,"x_min":88,"x_max":1463,"o":"m 669 -15 q 333 56 467 -15 q 143 254 199 128 q 119 546 88 381 q 206 738 144 654 q 360 878 268 821 q 562 965 451 935 q 796 994 672 994 q 1132 923 999 994 q 1321 725 1265 851 q 1343 435 1376 599 q 1258 242 1319 326 q 1105 101 1196 158 q 902 15 1014 44 q 669 -15 790 -15 m 685 222 q 851 252 776 222 q 977 337 926 282 q 1044 469 1028 392 q 1000 679 1071 601 q 779 757 929 757 q 611 728 686 757 q 487 644 536 699 q 419 510 438 589 q 463 300 392 378 q 685 222 535 222 m 981 860 l 935 985 q 991 981 964 983 q 1044 979 1018 979 q 1141 991 1106 979 q 1195 1031 1176 1003 q 1221 1110 1214 1060 l 1226 1150 l 1461 1150 l 1450 1078 q 1398 969 1440 1019 q 1294 890 1356 919 q 1165 860 1232 860 l 981 860 m 715 1063 l 718 1082 q 736 1113 721 1100 q 772 1136 751 1125 q 806 1156 792 1147 q 824 1176 821 1165 q 814 1194 828 1189 q 768 1200 800 1200 q 715 1195 740 1200 q 663 1179 690 1190 l 640 1282 q 735 1310 682 1300 q 850 1319 789 1319 q 997 1294 950 1319 q 1035 1221 1044 1268 q 1005 1173 1028 1192 q 953 1140 982 1154 q 902 1111 925 1125 q 876 1076 879 1097 l 874 1063 l 715 1063 z "},"Ỡ":{"ha":1418,"x_min":88,"x_max":1463,"o":"m 669 -15 q 333 56 467 -15 q 143 254 199 128 q 119 546 88 381 q 206 738 144 654 q 360 878 268 821 q 562 965 451 935 q 796 994 672 994 q 1132 923 999 994 q 1321 725 1265 851 q 1343 435 1376 599 q 1258 242 1319 326 q 1105 101 1196 158 q 902 15 1014 44 q 669 -15 790 -15 m 685 222 q 851 252 776 222 q 977 337 926 282 q 1044 469 1028 392 q 1000 679 1071 601 q 779 757 929 757 q 611 728 686 757 q 487 644 536 699 q 419 510 438 589 q 463 300 392 378 q 685 222 535 222 m 981 860 l 935 985 q 991 981 964 983 q 1044 979 1018 979 q 1141 991 1106 979 q 1195 1031 1176 1003 q 1221 1110 1214 1060 l 1226 1150 l 1461 1150 l 1450 1078 q 1398 969 1440 1019 q 1294 890 1356 919 q 1165 860 1232 860 l 981 860 m 553 1054 l 410 1061 q 466 1181 426 1129 q 561 1263 506 1233 q 681 1293 617 1293 q 758 1281 722 1293 q 828 1253 794 1268 q 883 1231 856 1240 q 936 1221 910 1221 q 999 1242 975 1221 q 1038 1301 1022 1263 l 1182 1293 q 1126 1173 1165 1225 q 1032 1091 1088 1121 q 911 1061 976 1061 q 834 1074 869 1061 q 767 1101 799 1088 q 710 1124 738 1114 q 653 1135 682 1135 q 590 1115 614 1135 q 553 1054 565 1094 z "},"Ő":{"ha":1418,"x_min":88,"x_max":1376,"o":"m 669 -15 q 333 56 467 -15 q 143 254 199 128 q 119 546 88 381 q 206 738 144 654 q 360 878 268 821 q 562 965 451 935 q 796 994 672 994 q 1132 923 999 994 q 1321 725 1265 851 q 1343 435 1376 599 q 1258 242 1319 326 q 1105 101 1196 158 q 902 15 1014 44 q 669 -15 790 -15 m 685 222 q 851 252 776 222 q 977 337 926 282 q 1044 469 1028 392 q 1000 679 1071 601 q 779 757 929 757 q 611 728 686 757 q 487 644 536 699 q 419 510 438 589 q 463 300 392 378 q 685 222 535 222 m 611 1063 l 806 1318 l 1042 1318 l 764 1063 l 611 1063 m 893 1063 l 1108 1318 l 1346 1318 l 1046 1063 l 893 1063 z "},"Ȏ":{"ha":1418,"x_min":88,"x_max":1376,"o":"m 669 -15 q 333 56 467 -15 q 143 254 199 128 q 119 546 88 381 q 206 738 144 654 q 360 878 268 821 q 562 965 451 935 q 796 994 672 994 q 1132 923 999 994 q 1321 725 1265 851 q 1343 435 1376 599 q 1258 242 1319 326 q 1105 101 1196 158 q 902 15 1014 44 q 669 -15 790 -15 m 685 222 q 851 252 776 222 q 977 337 926 282 q 1044 469 1028 392 q 1000 679 1071 601 q 779 757 929 757 q 611 728 686 757 q 487 644 536 699 q 419 510 438 589 q 463 300 392 378 q 685 222 535 222 m 649 1056 l 500 1068 q 626 1263 529 1196 q 878 1331 724 1331 q 1049 1301 982 1331 q 1145 1213 1117 1272 q 1163 1068 1174 1154 l 1006 1056 q 973 1142 1010 1113 q 850 1171 936 1171 q 716 1142 765 1171 q 649 1056 667 1113 z "},"Ō":{"ha":1418,"x_min":88,"x_max":1376,"o":"m 669 -15 q 333 56 467 -15 q 143 254 199 128 q 119 546 88 381 q 206 738 144 654 q 360 878 268 821 q 562 965 451 935 q 796 994 672 994 q 1132 923 999 994 q 1321 725 1265 851 q 1343 435 1376 599 q 1258 242 1319 326 q 1105 101 1196 158 q 902 15 1014 44 q 669 -15 790 -15 m 685 222 q 851 252 776 222 q 977 337 926 282 q 1044 469 1028 392 q 1000 679 1071 601 q 779 757 929 757 q 611 728 686 757 q 487 644 536 699 q 419 510 438 589 q 463 300 392 378 q 685 222 535 222 m 524 1097 l 549 1258 l 1171 1258 l 1146 1097 l 524 1097 z "},"Ṓ":{"ha":1418,"x_min":88,"x_max":1376,"o":"m 669 -15 q 333 56 467 -15 q 143 254 199 128 q 119 546 88 381 q 206 738 144 654 q 360 878 268 821 q 562 965 451 935 q 796 994 672 994 q 1132 923 999 994 q 1321 725 1265 851 q 1343 435 1376 599 q 1258 242 1319 326 q 1105 101 1196 158 q 902 15 1014 44 q 669 -15 790 -15 m 685 222 q 851 252 776 222 q 977 337 926 282 q 1044 469 1028 392 q 1000 679 1071 601 q 779 757 929 757 q 611 728 686 757 q 487 644 536 699 q 419 510 438 589 q 463 300 392 378 q 685 222 535 222 m 535 1082 l 560 1233 l 1154 1233 l 1129 1082 l 535 1082 m 772 1275 l 921 1451 l 1181 1451 l 943 1275 l 772 1275 z "},"Ṑ":{"ha":1418,"x_min":88,"x_max":1376,"o":"m 669 -15 q 333 56 467 -15 q 143 254 199 128 q 119 546 88 381 q 206 738 144 654 q 360 878 268 821 q 562 965 451 935 q 796 994 672 994 q 1132 923 999 994 q 1321 725 1265 851 q 1343 435 1376 599 q 1258 242 1319 326 q 1105 101 1196 158 q 902 15 1014 44 q 669 -15 790 -15 m 685 222 q 851 252 776 222 q 977 337 926 282 q 1044 469 1028 392 q 1000 679 1071 601 q 779 757 929 757 q 611 728 686 757 q 487 644 536 699 q 419 510 438 589 q 463 300 392 378 q 685 222 535 222 m 782 1275 l 608 1451 l 868 1451 l 953 1275 l 782 1275 m 535 1082 l 560 1233 l 1154 1233 l 1129 1082 l 535 1082 z "},"Ǫ":{"ha":1418,"x_min":88,"x_max":1376,"o":"m 669 -15 q 333 56 467 -15 q 143 254 199 128 q 119 546 88 381 q 206 738 144 654 q 360 878 268 821 q 562 965 451 935 q 796 994 672 994 q 1132 923 999 994 q 1321 725 1265 851 q 1343 435 1376 599 q 1258 242 1319 326 q 1105 101 1196 158 q 902 15 1014 44 q 669 -15 790 -15 m 685 222 q 851 252 776 222 q 977 337 926 282 q 1044 469 1028 392 q 1000 679 1071 601 q 779 757 929 757 q 611 728 686 757 q 487 644 536 699 q 419 510 438 589 q 463 300 392 378 q 685 222 535 222 m 658 -281 q 493 -242 544 -281 q 457 -132 442 -204 q 524 -22 469 -71 q 683 67 578 26 l 749 0 q 691 -28 715 -14 q 652 -58 667 -42 q 633 -92 638 -75 q 650 -133 628 -119 q 715 -147 672 -147 q 764 -143 742 -147 q 814 -132 786 -139 l 818 -254 q 739 -274 775 -268 q 658 -281 703 -281 z "},"Ø":{"ha":1418,"x_min":88,"x_max":1376,"o":"m 669 -15 q 333 56 467 -15 q 143 254 199 128 q 119 546 88 381 q 206 738 144 654 q 360 878 268 821 q 562 965 451 935 q 796 994 672 994 q 1132 923 999 994 q 1321 725 1265 851 q 1343 435 1376 599 q 1258 242 1319 326 q 1105 101 1196 158 q 902 15 1014 44 q 669 -15 790 -15 m 685 222 q 851 252 776 222 q 977 337 926 282 q 1044 469 1028 392 q 1000 679 1071 601 q 779 757 929 757 q 611 728 686 757 q 487 644 536 699 q 419 510 438 589 q 463 300 392 378 q 685 222 535 222 m 303 -115 l 161 3 l 324 182 l 436 282 l 918 808 l 992 914 l 1156 1093 l 1294 972 l 1133 794 l 1019 694 l 540 171 l 467 64 l 303 -115 z "},"Ǿ":{"ha":1418,"x_min":88,"x_max":1376,"o":"m 669 -15 q 333 56 467 -15 q 143 254 199 128 q 119 546 88 381 q 206 738 144 654 q 360 878 268 821 q 562 965 451 935 q 796 994 672 994 q 1132 923 999 994 q 1321 725 1265 851 q 1343 435 1376 599 q 1258 242 1319 326 q 1105 101 1196 158 q 902 15 1014 44 q 669 -15 790 -15 m 685 222 q 851 252 776 222 q 977 337 926 282 q 1044 469 1028 392 q 1000 679 1071 601 q 779 757 929 757 q 611 728 686 757 q 487 644 536 699 q 419 510 438 589 q 463 300 392 378 q 685 222 535 222 m 303 -115 l 161 3 l 324 182 l 436 282 l 918 808 l 992 914 l 1156 1093 l 1294 972 l 1133 794 l 1019 694 l 540 171 l 467 64 l 303 -115 m 731 1063 l 982 1318 l 1264 1318 l 928 1063 l 731 1063 z "},"Õ":{"ha":1418,"x_min":88,"x_max":1376,"o":"m 669 -15 q 333 56 467 -15 q 143 254 199 128 q 119 546 88 381 q 206 738 144 654 q 360 878 268 821 q 562 965 451 935 q 796 994 672 994 q 1132 923 999 994 q 1321 725 1265 851 q 1343 435 1376 599 q 1258 242 1319 326 q 1105 101 1196 158 q 902 15 1014 44 q 669 -15 790 -15 m 685 222 q 851 252 776 222 q 977 337 926 282 q 1044 469 1028 392 q 1000 679 1071 601 q 779 757 929 757 q 611 728 686 757 q 487 644 536 699 q 419 510 438 589 q 463 300 392 378 q 685 222 535 222 m 568 1054 l 425 1061 q 483 1188 443 1133 q 582 1272 524 1242 q 710 1303 640 1303 q 798 1289 754 1303 q 883 1258 842 1275 q 955 1233 921 1244 q 1021 1222 989 1222 q 1092 1245 1064 1222 q 1136 1310 1121 1268 l 1281 1303 q 1176 1127 1253 1193 q 996 1061 1100 1061 q 906 1076 949 1061 q 819 1106 863 1090 q 749 1131 783 1119 q 683 1142 715 1142 q 613 1119 640 1142 q 568 1054 585 1097 z "},"Ṍ":{"ha":1418,"x_min":88,"x_max":1376,"o":"m 669 -15 q 333 56 467 -15 q 143 254 199 128 q 119 546 88 381 q 206 738 144 654 q 360 878 268 821 q 562 965 451 935 q 796 994 672 994 q 1132 923 999 994 q 1321 725 1265 851 q 1343 435 1376 599 q 1258 242 1319 326 q 1105 101 1196 158 q 902 15 1014 44 q 669 -15 790 -15 m 685 222 q 851 252 776 222 q 977 337 926 282 q 1044 469 1028 392 q 1000 679 1071 601 q 779 757 929 757 q 611 728 686 757 q 487 644 536 699 q 419 510 438 589 q 463 300 392 378 q 685 222 535 222 m 775 1274 l 925 1450 l 1185 1450 l 947 1274 l 775 1274 m 942 1064 q 872 1072 903 1064 q 815 1090 842 1081 q 770 1105 793 1099 q 719 1111 747 1111 q 669 1100 694 1111 q 629 1064 643 1089 l 508 1071 q 553 1162 522 1124 q 631 1221 583 1200 q 740 1242 678 1242 q 810 1233 779 1242 q 868 1215 842 1225 q 917 1201 893 1208 q 968 1194 942 1194 q 1025 1208 1004 1194 q 1057 1243 1046 1222 l 1179 1236 q 1097 1110 1158 1157 q 942 1064 1036 1064 z "},"Ṏ":{"ha":1418,"x_min":88,"x_max":1376,"o":"m 669 -15 q 333 56 467 -15 q 143 254 199 128 q 119 546 88 381 q 206 738 144 654 q 360 878 268 821 q 562 965 451 935 q 796 994 672 994 q 1132 923 999 994 q 1321 725 1265 851 q 1343 435 1376 599 q 1258 242 1319 326 q 1105 101 1196 158 q 902 15 1014 44 q 669 -15 790 -15 m 685 222 q 851 252 776 222 q 977 337 926 282 q 1044 469 1028 392 q 1000 679 1071 601 q 779 757 929 757 q 611 728 686 757 q 487 644 536 699 q 419 510 438 589 q 463 300 392 378 q 685 222 535 222 m 943 1064 q 872 1072 903 1064 q 817 1090 842 1081 q 770 1105 793 1099 q 721 1111 747 1111 q 664 1099 686 1111 q 631 1064 642 1086 l 508 1071 q 553 1162 522 1124 q 631 1221 583 1200 q 740 1242 678 1242 q 811 1233 779 1242 q 869 1215 843 1225 q 917 1201 893 1208 q 968 1194 942 1194 q 1025 1208 1004 1194 q 1057 1243 1046 1222 l 1179 1236 q 1098 1110 1158 1157 q 943 1064 1038 1064 m 563 1286 l 588 1444 l 828 1444 l 803 1286 l 563 1286 m 928 1286 l 953 1444 l 1193 1444 l 1168 1286 l 928 1286 z "},"Ȭ":{"ha":1418,"x_min":88,"x_max":1376,"o":"m 669 -15 q 333 56 467 -15 q 143 254 199 128 q 119 546 88 381 q 206 738 144 654 q 360 878 268 821 q 562 965 451 935 q 796 994 672 994 q 1132 923 999 994 q 1321 725 1265 851 q 1343 435 1376 599 q 1258 242 1319 326 q 1105 101 1196 158 q 902 15 1014 44 q 669 -15 790 -15 m 685 222 q 851 252 776 222 q 977 337 926 282 q 1044 469 1028 392 q 1000 679 1071 601 q 779 757 929 757 q 611 728 686 757 q 487 644 536 699 q 419 510 438 589 q 463 300 392 378 q 685 222 535 222 m 568 1293 l 592 1443 l 1188 1443 l 1164 1293 l 568 1293 m 942 1064 q 872 1072 903 1064 q 815 1090 842 1081 q 770 1105 793 1099 q 719 1111 747 1111 q 669 1100 694 1111 q 629 1064 643 1089 l 508 1071 q 553 1162 522 1124 q 631 1221 583 1200 q 740 1242 678 1242 q 810 1233 779 1242 q 868 1215 842 1225 q 917 1201 893 1208 q 968 1194 942 1194 q 1025 1208 1004 1194 q 1057 1243 1046 1222 l 1179 1236 q 1097 1110 1158 1157 q 942 1064 1036 1064 z "},"Œ":{"ha":1878,"x_min":94,"x_max":1881,"o":"m 681 0 q 401 38 518 0 q 213 146 285 75 q 118 317 142 217 q 119 543 94 417 q 206 735 144 654 q 359 872 267 817 q 572 953 451 926 q 836 979 693 979 l 1881 979 l 1844 760 l 1271 760 l 1247 607 l 1782 607 l 1747 388 l 1214 388 l 1186 219 l 1760 219 l 1725 0 l 681 0 m 744 235 l 906 235 l 986 744 l 835 744 q 672 731 743 744 q 549 690 601 718 q 465 617 497 663 q 419 508 433 572 q 472 300 392 365 q 744 235 551 235 z "},"P":{"ha":1197,"x_min":74,"x_max":1214,"o":"m 74 0 l 229 979 l 835 979 q 1057 937 969 979 q 1179 815 1144 894 q 1192 624 1214 736 q 1107 451 1168 517 q 951 354 1046 385 q 731 324 856 324 l 419 324 l 369 0 l 74 0 m 454 540 l 715 540 q 849 567 801 540 q 908 647 896 593 q 885 735 921 707 q 758 763 850 763 l 489 763 l 454 540 z "},"Þ":{"ha":1189,"x_min":74,"x_max":1189,"o":"m 74 0 l 229 979 l 525 979 l 501 836 l 810 836 q 1032 793 944 836 q 1154 669 1119 750 q 1165 469 1189 588 q 1082 304 1143 368 q 926 210 1021 240 q 707 181 831 181 l 397 181 l 369 0 l 74 0 m 432 399 l 690 399 q 824 424 776 399 q 883 504 872 450 q 861 591 896 564 q 735 618 826 618 l 467 618 l 432 399 z "},"Q":{"ha":1418,"x_min":88,"x_max":1376,"o":"m 936 -318 l 807 -74 q 749 -29 790 -42 q 644 -15 708 -17 l 871 61 q 976 51 929 61 q 1056 21 1022 42 q 1110 -33 1090 0 l 1200 -190 l 936 -318 m 669 -15 q 333 56 467 -15 q 143 254 199 128 q 119 546 88 381 q 206 738 144 654 q 360 878 268 821 q 562 965 451 935 q 796 994 672 994 q 1132 923 999 994 q 1321 725 1265 851 q 1343 435 1376 599 q 1258 242 1319 326 q 1105 101 1196 158 q 902 15 1014 44 q 669 -15 790 -15 m 685 222 q 851 252 776 222 q 977 337 926 282 q 1044 469 1028 392 q 1000 679 1071 601 q 779 757 929 757 q 611 728 686 757 q 487 644 536 699 q 419 510 438 589 q 463 300 392 378 q 685 222 535 222 z "},"R":{"ha":1249,"x_min":74,"x_max":1217,"o":"m 74 0 l 229 979 l 822 979 q 1050 939 960 979 q 1178 825 1140 899 q 1194 646 1217 751 q 1118 495 1175 554 q 971 406 1061 436 q 760 368 881 375 l 776 382 l 856 381 q 950 356 907 378 q 1022 282 993 333 l 1179 0 l 839 0 l 686 289 q 663 319 676 307 q 625 336 649 331 q 560 342 601 342 l 424 342 l 369 0 l 74 0 m 456 544 l 714 544 q 852 572 807 544 q 908 653 897 599 q 885 735 921 708 q 757 763 850 763 l 489 763 l 456 544 z "},"Ŕ":{"ha":1249,"x_min":74,"x_max":1217,"o":"m 74 0 l 229 979 l 822 979 q 1050 939 960 979 q 1178 825 1140 899 q 1194 646 1217 751 q 1118 495 1175 554 q 971 406 1061 436 q 760 368 881 375 l 776 382 l 856 381 q 950 356 907 378 q 1022 282 993 333 l 1179 0 l 839 0 l 686 289 q 663 319 676 307 q 625 336 649 331 q 560 342 601 342 l 424 342 l 369 0 l 74 0 m 456 544 l 714 544 q 852 572 807 544 q 908 653 897 599 q 885 735 921 708 q 757 763 850 763 l 489 763 l 456 544 m 644 1063 l 896 1318 l 1178 1318 l 842 1063 l 644 1063 z "},"Ř":{"ha":1249,"x_min":74,"x_max":1217,"o":"m 74 0 l 229 979 l 822 979 q 1050 939 960 979 q 1178 825 1140 899 q 1194 646 1217 751 q 1118 495 1175 554 q 971 406 1061 436 q 760 368 881 375 l 776 382 l 856 381 q 950 356 907 378 q 1022 282 993 333 l 1179 0 l 839 0 l 686 289 q 663 319 676 307 q 625 336 649 331 q 560 342 601 342 l 424 342 l 369 0 l 74 0 m 456 544 l 714 544 q 852 572 807 544 q 908 653 897 599 q 885 735 921 708 q 757 763 850 763 l 489 763 l 456 544 m 628 1063 l 460 1319 l 656 1319 l 768 1196 l 928 1319 l 1118 1319 l 858 1063 l 628 1063 z "},"Ŗ":{"ha":1249,"x_min":74,"x_max":1217,"o":"m 74 0 l 229 979 l 822 979 q 1050 939 960 979 q 1178 825 1140 899 q 1194 646 1217 751 q 1118 495 1175 554 q 971 406 1061 436 q 760 368 881 375 l 776 382 l 856 381 q 950 356 907 378 q 1022 282 993 333 l 1179 0 l 839 0 l 686 289 q 663 319 676 307 q 625 336 649 331 q 560 342 601 342 l 424 342 l 369 0 l 74 0 m 456 544 l 714 544 q 852 572 807 544 q 908 653 897 599 q 885 735 921 708 q 757 763 850 763 l 489 763 l 456 544 m 489 -450 l 426 -396 q 503 -314 478 -350 q 535 -244 529 -278 l 572 -283 l 413 -283 l 444 -86 l 665 -86 l 644 -221 q 595 -340 633 -285 q 489 -450 557 -396 z "},"Ȑ":{"ha":1249,"x_min":74,"x_max":1217,"o":"m 74 0 l 229 979 l 822 979 q 1050 939 960 979 q 1178 825 1140 899 q 1194 646 1217 751 q 1118 495 1175 554 q 971 406 1061 436 q 760 368 881 375 l 776 382 l 856 381 q 950 356 907 378 q 1022 282 993 333 l 1179 0 l 839 0 l 686 289 q 663 319 676 307 q 625 336 649 331 q 560 342 601 342 l 424 342 l 369 0 l 74 0 m 456 544 l 714 544 q 852 572 807 544 q 908 653 897 599 q 885 735 921 708 q 757 763 850 763 l 489 763 l 456 544 m 807 1063 l 622 1318 l 858 1318 l 960 1063 l 807 1063 m 525 1063 l 317 1318 l 554 1318 l 678 1063 l 525 1063 z "},"Ṛ":{"ha":1249,"x_min":74,"x_max":1217,"o":"m 74 0 l 229 979 l 822 979 q 1050 939 960 979 q 1178 825 1140 899 q 1194 646 1217 751 q 1118 495 1175 554 q 971 406 1061 436 q 760 368 881 375 l 776 382 l 856 381 q 950 356 907 378 q 1022 282 993 333 l 1179 0 l 839 0 l 686 289 q 663 319 676 307 q 625 336 649 331 q 560 342 601 342 l 424 342 l 369 0 l 74 0 m 456 544 l 714 544 q 852 572 807 544 q 908 653 897 599 q 885 735 921 708 q 757 763 850 763 l 489 763 l 456 544 m 396 -324 l 432 -96 l 674 -96 l 638 -324 l 396 -324 z "},"Ȓ":{"ha":1249,"x_min":74,"x_max":1217,"o":"m 74 0 l 229 979 l 822 979 q 1050 939 960 979 q 1178 825 1140 899 q 1194 646 1217 751 q 1118 495 1175 554 q 971 406 1061 436 q 760 368 881 375 l 776 382 l 856 381 q 950 356 907 378 q 1022 282 993 333 l 1179 0 l 839 0 l 686 289 q 663 319 676 307 q 625 336 649 331 q 560 342 601 342 l 424 342 l 369 0 l 74 0 m 456 544 l 714 544 q 852 572 807 544 q 908 653 897 599 q 885 735 921 708 q 757 763 850 763 l 489 763 l 456 544 m 563 1056 l 414 1068 q 540 1263 443 1196 q 792 1331 638 1331 q 963 1301 896 1331 q 1059 1213 1031 1272 q 1076 1068 1088 1154 l 919 1056 q 887 1142 924 1113 q 764 1171 850 1171 q 630 1142 679 1171 q 563 1056 581 1113 z "},"Ṟ":{"ha":1249,"x_min":74,"x_max":1217,"o":"m 74 0 l 229 979 l 822 979 q 1050 939 960 979 q 1178 825 1140 899 q 1194 646 1217 751 q 1118 495 1175 554 q 971 406 1061 436 q 760 368 881 375 l 776 382 l 856 381 q 950 356 907 378 q 1022 282 993 333 l 1179 0 l 839 0 l 686 289 q 663 319 676 307 q 625 336 649 331 q 560 342 601 342 l 424 342 l 369 0 l 74 0 m 456 544 l 714 544 q 852 572 807 544 q 908 653 897 599 q 885 735 921 708 q 757 763 850 763 l 489 763 l 456 544 m 228 -264 l 254 -103 l 850 -103 l 824 -264 l 228 -264 z "},"S":{"ha":1147,"x_min":67,"x_max":1113,"o":"m 544 -15 q 356 -3 447 -15 q 192 33 265 10 q 67 89 118 57 l 167 310 q 285 256 222 278 q 419 224 347 235 q 575 213 492 213 q 691 222 644 213 q 763 249 738 231 q 794 292 789 267 q 788 329 800 317 q 748 349 775 342 q 682 360 721 356 l 446 388 q 204 487 274 410 q 161 706 135 564 q 224 834 178 781 q 342 924 271 888 q 503 977 413 960 q 699 994 594 994 q 946 965 838 994 q 1113 886 1054 936 l 1015 674 q 867 744 950 722 q 661 767 785 767 q 553 758 599 767 q 482 732 507 749 q 450 689 457 715 q 476 640 444 657 q 574 614 508 622 l 792 583 q 1038 486 964 560 q 1083 269 1111 413 q 1024 145 1068 199 q 908 56 979 92 q 747 3 838 21 q 544 -15 656 -15 z "},"Ś":{"ha":1147,"x_min":67,"x_max":1151,"o":"m 544 -15 q 356 -3 447 -15 q 192 33 265 10 q 67 89 118 57 l 167 310 q 285 256 222 278 q 419 224 347 235 q 575 213 492 213 q 691 222 644 213 q 763 249 738 231 q 794 292 789 267 q 788 329 800 317 q 748 349 775 342 q 682 360 721 356 l 446 388 q 204 487 274 410 q 161 706 135 564 q 224 834 178 781 q 342 924 271 888 q 503 977 413 960 q 699 994 594 994 q 946 965 838 994 q 1113 886 1054 936 l 1015 674 q 867 744 950 722 q 661 767 785 767 q 553 758 599 767 q 482 732 507 749 q 450 689 457 715 q 476 640 444 657 q 574 614 508 622 l 792 583 q 1038 486 964 560 q 1083 269 1111 413 q 1024 145 1068 199 q 908 56 979 92 q 747 3 838 21 q 544 -15 656 -15 m 618 1063 l 869 1318 l 1151 1318 l 815 1063 l 618 1063 z "},"Ṥ":{"ha":1147,"x_min":67,"x_max":1122,"o":"m 544 -15 q 356 -3 447 -15 q 192 33 265 10 q 67 89 118 57 l 167 310 q 285 256 222 278 q 419 224 347 235 q 575 213 492 213 q 691 222 644 213 q 763 249 738 231 q 794 292 789 267 q 788 329 800 317 q 748 349 775 342 q 682 360 721 356 l 446 388 q 204 487 274 410 q 161 706 135 564 q 224 834 178 781 q 342 924 271 888 q 503 977 413 960 q 699 994 594 994 q 946 965 838 994 q 1113 886 1054 936 l 1015 674 q 867 744 950 722 q 661 767 785 767 q 553 758 599 767 q 482 732 507 749 q 450 689 457 715 q 476 640 444 657 q 574 614 508 622 l 792 583 q 1038 486 964 560 q 1083 269 1111 413 q 1024 145 1068 199 q 908 56 979 92 q 747 3 838 21 q 544 -15 656 -15 m 507 1246 l 535 1418 l 760 1418 l 732 1246 l 507 1246 m 622 1061 l 854 1303 l 1122 1303 l 808 1061 l 622 1061 z "},"Š":{"ha":1147,"x_min":67,"x_max":1113,"o":"m 544 -15 q 356 -3 447 -15 q 192 33 265 10 q 67 89 118 57 l 167 310 q 285 256 222 278 q 419 224 347 235 q 575 213 492 213 q 691 222 644 213 q 763 249 738 231 q 794 292 789 267 q 788 329 800 317 q 748 349 775 342 q 682 360 721 356 l 446 388 q 204 487 274 410 q 161 706 135 564 q 224 834 178 781 q 342 924 271 888 q 503 977 413 960 q 699 994 594 994 q 946 965 838 994 q 1113 886 1054 936 l 1015 674 q 867 744 950 722 q 661 767 785 767 q 553 758 599 767 q 482 732 507 749 q 450 689 457 715 q 476 640 444 657 q 574 614 508 622 l 792 583 q 1038 486 964 560 q 1083 269 1111 413 q 1024 145 1068 199 q 908 56 979 92 q 747 3 838 21 q 544 -15 656 -15 m 601 1063 l 433 1319 l 629 1319 l 742 1196 l 901 1319 l 1092 1319 l 832 1063 l 601 1063 z "},"Ṧ":{"ha":1147,"x_min":67,"x_max":1113,"o":"m 544 -15 q 356 -3 447 -15 q 192 33 265 10 q 67 89 118 57 l 167 310 q 285 256 222 278 q 419 224 347 235 q 575 213 492 213 q 691 222 644 213 q 763 249 738 231 q 794 292 789 267 q 788 329 800 317 q 748 349 775 342 q 682 360 721 356 l 446 388 q 204 487 274 410 q 161 706 135 564 q 224 834 178 781 q 342 924 271 888 q 503 977 413 960 q 699 994 594 994 q 946 965 838 994 q 1113 886 1054 936 l 1015 674 q 867 744 950 722 q 661 767 785 767 q 553 758 599 767 q 482 732 507 749 q 450 689 457 715 q 476 640 444 657 q 574 614 508 622 l 792 583 q 1038 486 964 560 q 1083 269 1111 413 q 1024 145 1068 199 q 908 56 979 92 q 747 3 838 21 q 544 -15 656 -15 m 601 1068 l 447 1288 l 624 1288 l 739 1190 l 890 1288 l 1067 1288 l 832 1068 l 601 1068 m 640 1326 l 665 1486 l 910 1486 l 885 1326 l 640 1326 z "},"Ş":{"ha":1147,"x_min":67,"x_max":1113,"o":"m 544 -15 q 356 -3 447 -15 q 192 33 265 10 q 67 89 118 57 l 167 310 q 285 256 222 278 q 419 224 347 235 q 575 213 492 213 q 691 222 644 213 q 763 249 738 231 q 794 292 789 267 q 788 329 800 317 q 748 349 775 342 q 682 360 721 356 l 446 388 q 204 487 274 410 q 161 706 135 564 q 224 834 178 781 q 342 924 271 888 q 503 977 413 960 q 699 994 594 994 q 946 965 838 994 q 1113 886 1054 936 l 1015 674 q 867 744 950 722 q 661 767 785 767 q 553 758 599 767 q 482 732 507 749 q 450 689 457 715 q 476 640 444 657 q 574 614 508 622 l 792 583 q 1038 486 964 560 q 1083 269 1111 413 q 1024 145 1068 199 q 908 56 979 92 q 747 3 838 21 q 544 -15 656 -15 m 496 -281 q 390 -272 442 -281 q 306 -249 339 -264 l 364 -146 q 431 -167 399 -160 q 510 -174 463 -174 q 574 -167 554 -174 q 596 -146 593 -161 q 582 -125 600 -131 q 531 -119 564 -119 q 499 -120 518 -119 q 457 -125 479 -121 l 428 -92 l 465 28 l 594 28 l 561 -83 l 506 -56 q 558 -46 532 -49 q 613 -43 583 -43 q 694 -54 661 -43 q 742 -90 726 -65 q 747 -154 757 -115 q 670 -251 735 -221 q 496 -281 606 -281 z "},"Ŝ":{"ha":1147,"x_min":67,"x_max":1113,"o":"m 544 -15 q 356 -3 447 -15 q 192 33 265 10 q 67 89 118 57 l 167 310 q 285 256 222 278 q 419 224 347 235 q 575 213 492 213 q 691 222 644 213 q 763 249 738 231 q 794 292 789 267 q 788 329 800 317 q 748 349 775 342 q 682 360 721 356 l 446 388 q 204 487 274 410 q 161 706 135 564 q 224 834 178 781 q 342 924 271 888 q 503 977 413 960 q 699 994 594 994 q 946 965 838 994 q 1113 886 1054 936 l 1015 674 q 867 744 950 722 q 661 767 785 767 q 553 758 599 767 q 482 732 507 749 q 450 689 457 715 q 476 640 444 657 q 574 614 508 622 l 792 583 q 1038 486 964 560 q 1083 269 1111 413 q 1024 145 1068 199 q 908 56 979 92 q 747 3 838 21 q 544 -15 656 -15 m 390 1063 l 649 1318 l 879 1318 l 1047 1063 l 856 1063 l 740 1185 l 582 1063 l 390 1063 z "},"Ș":{"ha":1147,"x_min":67,"x_max":1113,"o":"m 544 -15 q 356 -3 447 -15 q 192 33 265 10 q 67 89 118 57 l 167 310 q 285 256 222 278 q 419 224 347 235 q 575 213 492 213 q 691 222 644 213 q 763 249 738 231 q 794 292 789 267 q 788 329 800 317 q 748 349 775 342 q 682 360 721 356 l 446 388 q 204 487 274 410 q 161 706 135 564 q 224 834 178 781 q 342 924 271 888 q 503 977 413 960 q 699 994 594 994 q 946 965 838 994 q 1113 886 1054 936 l 1015 674 q 867 744 950 722 q 661 767 785 767 q 553 758 599 767 q 482 732 507 749 q 450 689 457 715 q 476 640 444 657 q 574 614 508 622 l 792 583 q 1038 486 964 560 q 1083 269 1111 413 q 1024 145 1068 199 q 908 56 979 92 q 747 3 838 21 q 544 -15 656 -15 m 447 -450 l 385 -396 q 462 -314 436 -350 q 493 -244 488 -278 l 531 -283 l 371 -283 l 403 -86 l 624 -86 l 603 -221 q 553 -340 592 -285 q 447 -450 515 -396 z "},"Ṡ":{"ha":1147,"x_min":67,"x_max":1113,"o":"m 544 -15 q 356 -3 447 -15 q 192 33 265 10 q 67 89 118 57 l 167 310 q 285 256 222 278 q 419 224 347 235 q 575 213 492 213 q 691 222 644 213 q 763 249 738 231 q 794 292 789 267 q 788 329 800 317 q 748 349 775 342 q 682 360 721 356 l 446 388 q 204 487 274 410 q 161 706 135 564 q 224 834 178 781 q 342 924 271 888 q 503 977 413 960 q 699 994 594 994 q 946 965 838 994 q 1113 886 1054 936 l 1015 674 q 867 744 950 722 q 661 767 785 767 q 553 758 599 767 q 482 732 507 749 q 450 689 457 715 q 476 640 444 657 q 574 614 508 622 l 792 583 q 1038 486 964 560 q 1083 269 1111 413 q 1024 145 1068 199 q 908 56 979 92 q 747 3 838 21 q 544 -15 656 -15 m 594 1063 l 633 1290 l 875 1290 l 838 1063 l 594 1063 z "},"Ṣ":{"ha":1147,"x_min":67,"x_max":1113,"o":"m 544 -15 q 356 -3 447 -15 q 192 33 265 10 q 67 89 118 57 l 167 310 q 285 256 222 278 q 419 224 347 235 q 575 213 492 213 q 691 222 644 213 q 763 249 738 231 q 794 292 789 267 q 788 329 800 317 q 748 349 775 342 q 682 360 721 356 l 446 388 q 204 487 274 410 q 161 706 135 564 q 224 834 178 781 q 342 924 271 888 q 503 977 413 960 q 699 994 594 994 q 946 965 838 994 q 1113 886 1054 936 l 1015 674 q 867 744 950 722 q 661 767 785 767 q 553 758 599 767 q 482 732 507 749 q 450 689 457 715 q 476 640 444 657 q 574 614 508 622 l 792 583 q 1038 486 964 560 q 1083 269 1111 413 q 1024 145 1068 199 q 908 56 979 92 q 747 3 838 21 q 544 -15 656 -15 m 354 -324 l 390 -96 l 632 -96 l 596 -324 l 354 -324 z "},"Ṩ":{"ha":1147,"x_min":67,"x_max":1113,"o":"m 544 -15 q 356 -3 447 -15 q 192 33 265 10 q 67 89 118 57 l 167 310 q 285 256 222 278 q 419 224 347 235 q 575 213 492 213 q 691 222 644 213 q 763 249 738 231 q 794 292 789 267 q 788 329 800 317 q 748 349 775 342 q 682 360 721 356 l 446 388 q 204 487 274 410 q 161 706 135 564 q 224 834 178 781 q 342 924 271 888 q 503 977 413 960 q 699 994 594 994 q 946 965 838 994 q 1113 886 1054 936 l 1015 674 q 867 744 950 722 q 661 767 785 767 q 553 758 599 767 q 482 732 507 749 q 450 689 457 715 q 476 640 444 657 q 574 614 508 622 l 792 583 q 1038 486 964 560 q 1083 269 1111 413 q 1024 145 1068 199 q 908 56 979 92 q 747 3 838 21 q 544 -15 656 -15 m 354 -324 l 390 -96 l 632 -96 l 596 -324 l 354 -324 m 594 1063 l 633 1290 l 875 1290 l 838 1063 l 594 1063 z "},"ẞ":{"ha":1321,"x_min":74,"x_max":1247,"o":"m 779 -17 q 663 -10 719 -17 q 557 13 606 -3 q 471 56 508 29 l 567 260 q 665 218 615 231 q 775 206 714 206 q 902 228 857 206 q 957 294 947 251 q 920 364 967 344 q 760 383 874 383 l 590 383 l 625 594 l 751 594 q 853 605 813 594 q 918 635 894 615 q 947 681 942 654 q 913 749 958 728 q 763 771 868 771 q 542 733 615 771 q 456 606 469 694 l 360 0 l 74 0 l 167 594 q 259 808 186 718 q 465 946 332 897 q 793 994 597 994 q 1045 963 942 994 q 1198 867 1149 932 q 1228 700 1247 801 q 1187 616 1217 653 q 1110 551 1157 579 q 997 501 1063 522 l 1001 518 q 1138 478 1083 511 q 1215 388 1192 446 q 1221 247 1238 331 q 1142 97 1203 156 q 990 10 1082 38 q 779 -17 897 -17 z "},"T":{"ha":1126,"x_min":83,"x_max":1208,"o":"m 361 0 l 479 747 l 83 747 l 121 979 l 1208 979 l 1172 747 l 775 747 l 657 0 l 361 0 z "},"Ŧ":{"ha":1126,"x_min":83,"x_max":1208,"o":"m 361 0 l 479 747 l 83 747 l 121 979 l 1208 979 l 1172 747 l 775 747 l 657 0 l 361 0 m 193 371 l 224 564 l 975 564 l 944 371 l 193 371 z "},"Ť":{"ha":1126,"x_min":83,"x_max":1208,"o":"m 361 0 l 479 747 l 83 747 l 121 979 l 1208 979 l 1172 747 l 775 747 l 657 0 l 361 0 m 563 1063 l 394 1319 l 590 1319 l 703 1196 l 863 1319 l 1053 1319 l 793 1063 l 563 1063 z "},"Ţ":{"ha":1126,"x_min":83,"x_max":1208,"o":"m 361 0 l 479 747 l 83 747 l 121 979 l 1208 979 l 1172 747 l 775 747 l 657 0 l 361 0 m 479 -281 q 374 -272 425 -281 q 289 -249 322 -264 l 347 -146 q 414 -167 382 -160 q 493 -174 446 -174 q 557 -167 538 -174 q 579 -146 576 -161 q 565 -125 583 -131 q 514 -119 547 -119 q 482 -120 501 -119 q 440 -125 463 -121 l 411 -92 l 449 28 l 578 28 l 544 -83 l 489 -56 q 541 -46 515 -49 q 596 -43 567 -43 q 677 -54 644 -43 q 725 -90 710 -65 q 731 -154 740 -115 q 653 -251 718 -221 q 479 -281 589 -281 z "},"Ț":{"ha":1126,"x_min":83,"x_max":1208,"o":"m 361 0 l 479 747 l 83 747 l 121 979 l 1208 979 l 1172 747 l 775 747 l 657 0 l 361 0 m 431 -450 l 368 -396 q 445 -314 419 -350 q 476 -244 471 -278 l 514 -283 l 354 -283 l 386 -86 l 607 -86 l 586 -221 q 537 -340 575 -285 q 431 -450 499 -396 z "},"Ṭ":{"ha":1126,"x_min":83,"x_max":1208,"o":"m 361 0 l 479 747 l 83 747 l 121 979 l 1208 979 l 1172 747 l 775 747 l 657 0 l 361 0 m 338 -324 l 374 -96 l 615 -96 l 579 -324 l 338 -324 z "},"Ṯ":{"ha":1126,"x_min":83,"x_max":1208,"o":"m 361 0 l 479 747 l 83 747 l 121 979 l 1208 979 l 1172 747 l 775 747 l 657 0 l 361 0 m 169 -264 l 196 -103 l 792 -103 l 765 -264 l 169 -264 z "},"U":{"ha":1321,"x_min":117,"x_max":1303,"o":"m 617 -15 q 371 17 471 -15 q 213 108 271 49 q 136 247 156 167 q 132 425 117 328 l 219 979 l 515 979 l 426 419 q 466 274 411 324 q 640 225 521 225 q 837 280 767 225 q 922 432 907 335 l 1010 979 l 1303 979 l 1214 421 q 1114 174 1192 271 q 910 31 1036 76 q 617 -15 785 -15 z "},"Ú":{"ha":1321,"x_min":117,"x_max":1303,"o":"m 617 -15 q 371 17 471 -15 q 213 108 271 49 q 136 247 156 167 q 132 425 117 328 l 219 979 l 515 979 l 426 419 q 466 274 411 324 q 640 225 521 225 q 837 280 767 225 q 922 432 907 335 l 1010 979 l 1303 979 l 1214 421 q 1114 174 1192 271 q 910 31 1036 76 q 617 -15 785 -15 m 676 1063 l 928 1318 l 1210 1318 l 874 1063 l 676 1063 z "},"Ŭ":{"ha":1321,"x_min":117,"x_max":1303,"o":"m 617 -15 q 371 17 471 -15 q 213 108 271 49 q 136 247 156 167 q 132 425 117 328 l 219 979 l 515 979 l 426 419 q 466 274 411 324 q 640 225 521 225 q 837 280 767 225 q 922 432 907 335 l 1010 979 l 1303 979 l 1214 421 q 1114 174 1192 271 q 910 31 1036 76 q 617 -15 785 -15 m 772 1056 q 602 1085 669 1056 q 506 1174 535 1115 q 489 1318 478 1232 l 643 1331 q 678 1244 640 1274 q 801 1215 715 1215 q 936 1244 888 1215 q 1001 1331 985 1274 l 1151 1318 q 1024 1123 1122 1190 q 772 1056 925 1056 z "},"Û":{"ha":1321,"x_min":117,"x_max":1303,"o":"m 617 -15 q 371 17 471 -15 q 213 108 271 49 q 136 247 156 167 q 132 425 117 328 l 219 979 l 515 979 l 426 419 q 466 274 411 324 q 640 225 521 225 q 837 280 767 225 q 922 432 907 335 l 1010 979 l 1303 979 l 1214 421 q 1114 174 1192 271 q 910 31 1036 76 q 617 -15 785 -15 m 449 1063 l 707 1318 l 938 1318 l 1106 1063 l 914 1063 l 799 1185 l 640 1063 l 449 1063 z "},"Ȕ":{"ha":1321,"x_min":117,"x_max":1303,"o":"m 617 -15 q 371 17 471 -15 q 213 108 271 49 q 136 247 156 167 q 132 425 117 328 l 219 979 l 515 979 l 426 419 q 466 274 411 324 q 640 225 521 225 q 837 280 767 225 q 922 432 907 335 l 1010 979 l 1303 979 l 1214 421 q 1114 174 1192 271 q 910 31 1036 76 q 617 -15 785 -15 m 839 1063 l 654 1318 l 890 1318 l 992 1063 l 839 1063 m 557 1063 l 349 1318 l 586 1318 l 710 1063 l 557 1063 z "},"Ü":{"ha":1321,"x_min":117,"x_max":1303,"o":"m 617 -15 q 371 17 471 -15 q 213 108 271 49 q 136 247 156 167 q 132 425 117 328 l 219 979 l 515 979 l 426 419 q 466 274 411 324 q 640 225 521 225 q 837 280 767 225 q 922 432 907 335 l 1010 979 l 1303 979 l 1214 421 q 1114 174 1192 271 q 910 31 1036 76 q 617 -15 785 -15 m 842 1064 l 878 1286 l 1118 1286 l 1082 1064 l 842 1064 m 468 1064 l 504 1286 l 744 1286 l 708 1064 l 468 1064 z "},"Ụ":{"ha":1321,"x_min":117,"x_max":1303,"o":"m 617 -15 q 371 17 471 -15 q 213 108 271 49 q 136 247 156 167 q 132 425 117 328 l 219 979 l 515 979 l 426 419 q 466 274 411 324 q 640 225 521 225 q 837 280 767 225 q 922 432 907 335 l 1010 979 l 1303 979 l 1214 421 q 1114 174 1192 271 q 910 31 1036 76 q 617 -15 785 -15 m 433 -324 l 469 -96 l 711 -96 l 675 -324 l 433 -324 z "},"Ù":{"ha":1321,"x_min":117,"x_max":1303,"o":"m 617 -15 q 371 17 471 -15 q 213 108 271 49 q 136 247 156 167 q 132 425 117 328 l 219 979 l 515 979 l 426 419 q 466 274 411 324 q 640 225 521 225 q 837 280 767 225 q 922 432 907 335 l 1010 979 l 1303 979 l 1214 421 q 1114 174 1192 271 q 910 31 1036 76 q 617 -15 785 -15 m 681 1063 l 435 1318 l 713 1318 l 869 1063 l 681 1063 z "},"Ủ":{"ha":1321,"x_min":117,"x_max":1303,"o":"m 617 -15 q 371 17 471 -15 q 213 108 271 49 q 136 247 156 167 q 132 425 117 328 l 219 979 l 515 979 l 426 419 q 466 274 411 324 q 640 225 521 225 q 837 280 767 225 q 922 432 907 335 l 1010 979 l 1303 979 l 1214 421 q 1114 174 1192 271 q 910 31 1036 76 q 617 -15 785 -15 m 694 1063 l 697 1082 q 715 1113 700 1100 q 751 1136 731 1125 q 785 1156 771 1147 q 803 1176 800 1165 q 793 1194 807 1189 q 747 1200 779 1200 q 694 1195 719 1200 q 642 1179 669 1190 l 619 1282 q 715 1310 661 1300 q 829 1319 768 1319 q 976 1294 929 1319 q 1014 1221 1024 1268 q 984 1173 1007 1192 q 933 1140 961 1154 q 881 1111 904 1125 q 856 1076 858 1097 l 853 1063 l 694 1063 z "},"Ư":{"ha":1321,"x_min":117,"x_max":1513,"o":"m 617 -15 q 371 17 471 -15 q 213 108 271 49 q 136 247 156 167 q 132 425 117 328 l 219 979 l 515 979 l 426 419 q 466 274 411 324 q 640 225 521 225 q 837 280 767 225 q 922 432 907 335 l 1010 979 l 1303 979 l 1214 421 q 1114 174 1192 271 q 910 31 1036 76 q 617 -15 785 -15 m 1232 860 l 1090 961 l 1093 979 q 1190 991 1154 979 q 1244 1032 1225 1003 q 1271 1114 1264 1061 l 1276 1151 l 1513 1151 l 1501 1082 q 1456 974 1493 1022 q 1362 897 1419 926 q 1232 860 1304 867 z "},"Ứ":{"ha":1321,"x_min":117,"x_max":1513,"o":"m 617 -15 q 371 17 471 -15 q 213 108 271 49 q 136 247 156 167 q 132 425 117 328 l 219 979 l 515 979 l 426 419 q 466 274 411 324 q 640 225 521 225 q 837 280 767 225 q 922 432 907 335 l 1010 979 l 1303 979 l 1214 421 q 1114 174 1192 271 q 910 31 1036 76 q 617 -15 785 -15 m 1232 860 l 1090 961 l 1093 979 q 1190 991 1154 979 q 1244 1032 1225 1003 q 1271 1114 1264 1061 l 1276 1151 l 1513 1151 l 1501 1082 q 1456 974 1493 1022 q 1362 897 1419 926 q 1232 860 1304 867 m 674 1063 l 925 1318 l 1207 1318 l 871 1063 l 674 1063 z "},"Ự":{"ha":1321,"x_min":117,"x_max":1513,"o":"m 617 -15 q 371 17 471 -15 q 213 108 271 49 q 136 247 156 167 q 132 425 117 328 l 219 979 l 515 979 l 426 419 q 466 274 411 324 q 640 225 521 225 q 837 280 767 225 q 922 432 907 335 l 1010 979 l 1303 979 l 1214 421 q 1114 174 1192 271 q 910 31 1036 76 q 617 -15 785 -15 m 1232 860 l 1090 961 l 1093 979 q 1190 991 1154 979 q 1244 1032 1225 1003 q 1271 1114 1264 1061 l 1276 1151 l 1513 1151 l 1501 1082 q 1456 974 1493 1022 q 1362 897 1419 926 q 1232 860 1304 867 m 431 -324 l 467 -96 l 708 -96 l 672 -324 l 431 -324 z "},"Ừ":{"ha":1321,"x_min":117,"x_max":1513,"o":"m 617 -15 q 371 17 471 -15 q 213 108 271 49 q 136 247 156 167 q 132 425 117 328 l 219 979 l 515 979 l 426 419 q 466 274 411 324 q 640 225 521 225 q 837 280 767 225 q 922 432 907 335 l 1010 979 l 1303 979 l 1214 421 q 1114 174 1192 271 q 910 31 1036 76 q 617 -15 785 -15 m 1232 860 l 1090 961 l 1093 979 q 1190 991 1154 979 q 1244 1032 1225 1003 q 1271 1114 1264 1061 l 1276 1151 l 1513 1151 l 1501 1082 q 1456 974 1493 1022 q 1362 897 1419 926 q 1232 860 1304 867 m 678 1063 l 432 1318 l 710 1318 l 867 1063 l 678 1063 z "},"Ử":{"ha":1321,"x_min":117,"x_max":1513,"o":"m 617 -15 q 371 17 471 -15 q 213 108 271 49 q 136 247 156 167 q 132 425 117 328 l 219 979 l 515 979 l 426 419 q 466 274 411 324 q 640 225 521 225 q 837 280 767 225 q 922 432 907 335 l 1010 979 l 1303 979 l 1214 421 q 1114 174 1192 271 q 910 31 1036 76 q 617 -15 785 -15 m 1232 860 l 1090 961 l 1093 979 q 1190 991 1154 979 q 1244 1032 1225 1003 q 1271 1114 1264 1061 l 1276 1151 l 1513 1151 l 1501 1082 q 1456 974 1493 1022 q 1362 897 1419 926 q 1232 860 1304 867 m 692 1063 l 694 1082 q 713 1113 697 1100 q 748 1136 728 1125 q 783 1156 768 1147 q 800 1176 797 1165 q 790 1194 804 1189 q 744 1200 776 1200 q 692 1195 717 1200 q 639 1179 667 1190 l 617 1282 q 712 1310 658 1300 q 826 1319 765 1319 q 974 1294 926 1319 q 1011 1221 1021 1268 q 981 1173 1004 1192 q 930 1140 958 1154 q 878 1111 901 1125 q 853 1076 856 1097 l 850 1063 l 692 1063 z "},"Ữ":{"ha":1321,"x_min":117,"x_max":1513,"o":"m 617 -15 q 371 17 471 -15 q 213 108 271 49 q 136 247 156 167 q 132 425 117 328 l 219 979 l 515 979 l 426 419 q 466 274 411 324 q 640 225 521 225 q 837 280 767 225 q 922 432 907 335 l 1010 979 l 1303 979 l 1214 421 q 1114 174 1192 271 q 910 31 1036 76 q 617 -15 785 -15 m 1232 860 l 1090 961 l 1093 979 q 1190 991 1154 979 q 1244 1032 1225 1003 q 1271 1114 1264 1061 l 1276 1151 l 1513 1151 l 1501 1082 q 1456 974 1493 1022 q 1362 897 1419 926 q 1232 860 1304 867 m 529 1054 l 386 1061 q 442 1181 403 1129 q 538 1263 482 1233 q 657 1293 593 1293 q 735 1281 699 1293 q 804 1253 771 1268 q 859 1231 832 1240 q 913 1221 886 1221 q 975 1242 951 1221 q 1014 1301 999 1263 l 1158 1293 q 1103 1173 1142 1225 q 1008 1091 1064 1121 q 888 1061 953 1061 q 810 1074 846 1061 q 743 1101 775 1088 q 686 1124 714 1114 q 629 1135 658 1135 q 566 1115 590 1135 q 529 1054 542 1094 z "},"Ű":{"ha":1321,"x_min":117,"x_max":1303,"o":"m 617 -15 q 371 17 471 -15 q 213 108 271 49 q 136 247 156 167 q 132 425 117 328 l 219 979 l 515 979 l 426 419 q 466 274 411 324 q 640 225 521 225 q 837 280 767 225 q 922 432 907 335 l 1010 979 l 1303 979 l 1214 421 q 1114 174 1192 271 q 910 31 1036 76 q 617 -15 785 -15 m 557 1063 l 751 1318 l 988 1318 l 710 1063 l 557 1063 m 839 1063 l 1054 1318 l 1292 1318 l 992 1063 l 839 1063 z "},"Ȗ":{"ha":1321,"x_min":117,"x_max":1303,"o":"m 617 -15 q 371 17 471 -15 q 213 108 271 49 q 136 247 156 167 q 132 425 117 328 l 219 979 l 515 979 l 426 419 q 466 274 411 324 q 640 225 521 225 q 837 280 767 225 q 922 432 907 335 l 1010 979 l 1303 979 l 1214 421 q 1114 174 1192 271 q 910 31 1036 76 q 617 -15 785 -15 m 594 1056 l 446 1068 q 572 1263 475 1196 q 824 1331 669 1331 q 995 1301 928 1331 q 1091 1213 1063 1272 q 1108 1068 1119 1154 l 951 1056 q 919 1142 956 1113 q 796 1171 882 1171 q 662 1142 711 1171 q 594 1056 613 1113 z "},"Ū":{"ha":1321,"x_min":117,"x_max":1303,"o":"m 617 -15 q 371 17 471 -15 q 213 108 271 49 q 136 247 156 167 q 132 425 117 328 l 219 979 l 515 979 l 426 419 q 466 274 411 324 q 640 225 521 225 q 837 280 767 225 q 922 432 907 335 l 1010 979 l 1303 979 l 1214 421 q 1114 174 1192 271 q 910 31 1036 76 q 617 -15 785 -15 m 469 1097 l 494 1258 l 1117 1258 l 1092 1097 l 469 1097 z "},"Ṻ":{"ha":1321,"x_min":117,"x_max":1303,"o":"m 617 -15 q 371 17 471 -15 q 213 108 271 49 q 136 247 156 167 q 132 425 117 328 l 219 979 l 515 979 l 426 419 q 466 274 411 324 q 640 225 521 225 q 837 280 767 225 q 922 432 907 335 l 1010 979 l 1303 979 l 1214 421 q 1114 174 1192 271 q 910 31 1036 76 q 617 -15 785 -15 m 481 1085 l 506 1240 l 1101 1240 l 1076 1085 l 481 1085 m 508 1296 l 533 1454 l 775 1454 l 750 1296 l 508 1296 m 874 1296 l 899 1454 l 1140 1454 l 1115 1296 l 874 1296 z "},"Ų":{"ha":1321,"x_min":117,"x_max":1303,"o":"m 617 -15 q 371 17 471 -15 q 213 108 271 49 q 136 247 156 167 q 132 425 117 328 l 219 979 l 515 979 l 426 419 q 466 274 411 324 q 640 225 521 225 q 837 280 767 225 q 922 432 907 335 l 1010 979 l 1303 979 l 1214 421 q 1114 174 1192 271 q 910 31 1036 76 q 617 -15 785 -15 m 606 -281 q 440 -242 492 -281 q 404 -132 389 -204 q 471 -22 417 -71 q 631 67 525 26 l 696 0 q 638 -28 663 -14 q 599 -58 614 -42 q 581 -92 585 -75 q 597 -133 575 -119 q 663 -147 619 -147 q 711 -143 689 -147 q 761 -132 733 -139 l 765 -254 q 686 -274 722 -268 q 606 -281 650 -281 z "},"Ů":{"ha":1321,"x_min":117,"x_max":1303,"o":"m 617 -15 q 371 17 471 -15 q 213 108 271 49 q 136 247 156 167 q 132 425 117 328 l 219 979 l 515 979 l 426 419 q 466 274 411 324 q 640 225 521 225 q 837 280 767 225 q 922 432 907 335 l 1010 979 l 1303 979 l 1214 421 q 1114 174 1192 271 q 910 31 1036 76 q 617 -15 785 -15 m 804 1044 q 697 1069 744 1044 q 624 1137 650 1094 q 597 1232 597 1179 q 624 1328 597 1286 q 697 1395 650 1371 q 804 1419 744 1419 q 913 1395 867 1419 q 986 1328 960 1371 q 1013 1232 1013 1285 q 986 1137 1013 1179 q 913 1069 960 1094 q 804 1044 867 1044 m 804 1142 q 871 1167 847 1142 q 894 1233 894 1193 q 871 1297 894 1271 q 804 1322 847 1322 q 740 1297 764 1322 q 715 1233 715 1271 q 739 1167 715 1193 q 804 1142 763 1142 z "},"Ũ":{"ha":1321,"x_min":117,"x_max":1303,"o":"m 617 -15 q 371 17 471 -15 q 213 108 271 49 q 136 247 156 167 q 132 425 117 328 l 219 979 l 515 979 l 426 419 q 466 274 411 324 q 640 225 521 225 q 837 280 767 225 q 922 432 907 335 l 1010 979 l 1303 979 l 1214 421 q 1114 174 1192 271 q 910 31 1036 76 q 617 -15 785 -15 m 514 1054 l 371 1061 q 429 1188 389 1133 q 528 1272 469 1242 q 656 1303 586 1303 q 744 1289 700 1303 q 829 1258 788 1275 q 901 1233 867 1244 q 967 1222 935 1222 q 1038 1245 1010 1222 q 1082 1310 1067 1268 l 1226 1303 q 1122 1127 1199 1193 q 942 1061 1046 1061 q 851 1076 894 1061 q 765 1106 808 1090 q 695 1131 729 1119 q 629 1142 661 1142 q 558 1119 586 1142 q 514 1054 531 1097 z "},"Ṹ":{"ha":1321,"x_min":117,"x_max":1303,"o":"m 617 -15 q 371 17 471 -15 q 213 108 271 49 q 136 247 156 167 q 132 425 117 328 l 219 979 l 515 979 l 426 419 q 466 274 411 324 q 640 225 521 225 q 837 280 767 225 q 922 432 907 335 l 1010 979 l 1303 979 l 1214 421 q 1114 174 1192 271 q 910 31 1036 76 q 617 -15 785 -15 m 721 1274 l 871 1450 l 1131 1450 l 893 1274 l 721 1274 m 888 1064 q 818 1072 849 1064 q 761 1090 788 1081 q 716 1105 739 1099 q 665 1111 693 1111 q 615 1100 640 1111 q 575 1064 589 1089 l 454 1071 q 499 1162 468 1124 q 576 1221 529 1200 q 686 1242 624 1242 q 756 1233 725 1242 q 814 1215 788 1225 q 863 1201 839 1208 q 914 1194 888 1194 q 971 1208 950 1194 q 1003 1243 992 1222 l 1125 1236 q 1043 1110 1104 1157 q 888 1064 982 1064 z "},"V":{"ha":1271,"x_min":71,"x_max":1404,"o":"m 454 0 l 71 979 l 392 979 l 647 275 l 593 275 l 1072 979 l 1404 979 l 708 0 l 454 0 z "},"W":{"ha":1960,"x_min":136,"x_max":2025,"o":"m 394 0 l 136 979 l 440 979 l 613 328 l 554 328 l 964 979 l 1188 979 l 1390 328 l 1342 328 l 1722 979 l 2025 979 l 1456 0 l 1201 0 l 1007 589 l 1029 589 l 644 0 l 394 0 z "},"Ẃ":{"ha":1960,"x_min":136,"x_max":2025,"o":"m 394 0 l 136 979 l 440 979 l 613 328 l 554 328 l 964 979 l 1188 979 l 1390 328 l 1342 328 l 1722 979 l 2025 979 l 1456 0 l 1201 0 l 1007 589 l 1029 589 l 644 0 l 394 0 m 999 1063 l 1250 1318 l 1532 1318 l 1196 1063 l 999 1063 z "},"Ŵ":{"ha":1960,"x_min":136,"x_max":2025,"o":"m 394 0 l 136 979 l 440 979 l 613 328 l 554 328 l 964 979 l 1188 979 l 1390 328 l 1342 328 l 1722 979 l 2025 979 l 1456 0 l 1201 0 l 1007 589 l 1029 589 l 644 0 l 394 0 m 771 1063 l 1029 1318 l 1260 1318 l 1428 1063 l 1236 1063 l 1121 1185 l 963 1063 l 771 1063 z "},"Ẅ":{"ha":1960,"x_min":136,"x_max":2025,"o":"m 394 0 l 136 979 l 440 979 l 613 328 l 554 328 l 964 979 l 1188 979 l 1390 328 l 1342 328 l 1722 979 l 2025 979 l 1456 0 l 1201 0 l 1007 589 l 1029 589 l 644 0 l 394 0 m 1164 1064 l 1200 1286 l 1440 1286 l 1404 1064 l 1164 1064 m 790 1064 l 826 1286 l 1067 1286 l 1031 1064 l 790 1064 z "},"Ẁ":{"ha":1960,"x_min":136,"x_max":2025,"o":"m 394 0 l 136 979 l 440 979 l 613 328 l 554 328 l 964 979 l 1188 979 l 1390 328 l 1342 328 l 1722 979 l 2025 979 l 1456 0 l 1201 0 l 1007 589 l 1029 589 l 644 0 l 394 0 m 1003 1063 l 757 1318 l 1035 1318 l 1192 1063 l 1003 1063 z "},"X":{"ha":1211,"x_min":-85,"x_max":1331,"o":"m -85 0 l 494 558 l 488 429 l 103 979 l 454 979 l 683 635 l 617 635 l 969 979 l 1331 979 l 765 429 l 772 557 l 1171 0 l 819 0 l 578 350 l 644 350 l 282 0 l -85 0 z "},"Y":{"ha":1117,"x_min":49,"x_max":1272,"o":"m 356 0 l 435 500 l 461 336 l 49 979 l 372 979 l 611 599 l 574 599 l 936 979 l 1272 979 l 653 336 l 731 500 l 651 0 l 356 0 z "},"Ý":{"ha":1117,"x_min":49,"x_max":1272,"o":"m 356 0 l 435 500 l 461 336 l 49 979 l 372 979 l 611 599 l 574 599 l 936 979 l 1272 979 l 653 336 l 731 500 l 651 0 l 356 0 m 582 1063 l 833 1318 l 1115 1318 l 779 1063 l 582 1063 z "},"Ŷ":{"ha":1117,"x_min":49,"x_max":1272,"o":"m 356 0 l 435 500 l 461 336 l 49 979 l 372 979 l 611 599 l 574 599 l 936 979 l 1272 979 l 653 336 l 731 500 l 651 0 l 356 0 m 354 1063 l 613 1318 l 843 1318 l 1011 1063 l 819 1063 l 704 1185 l 546 1063 l 354 1063 z "},"Ÿ":{"ha":1117,"x_min":49,"x_max":1272,"o":"m 356 0 l 435 500 l 461 336 l 49 979 l 372 979 l 611 599 l 574 599 l 936 979 l 1272 979 l 653 336 l 731 500 l 651 0 l 356 0 m 747 1064 l 783 1286 l 1024 1286 l 988 1064 l 747 1064 m 374 1064 l 410 1286 l 650 1286 l 614 1064 l 374 1064 z "},"Ẏ":{"ha":1117,"x_min":49,"x_max":1272,"o":"m 356 0 l 435 500 l 461 336 l 49 979 l 372 979 l 611 599 l 574 599 l 936 979 l 1272 979 l 653 336 l 731 500 l 651 0 l 356 0 m 558 1063 l 597 1290 l 839 1290 l 801 1063 l 558 1063 z "},"Ỵ":{"ha":1117,"x_min":49,"x_max":1272,"o":"m 356 0 l 435 500 l 461 336 l 49 979 l 372 979 l 611 599 l 574 599 l 936 979 l 1272 979 l 653 336 l 731 500 l 651 0 l 356 0 m 331 -324 l 367 -96 l 608 -96 l 572 -324 l 331 -324 z "},"Ỳ":{"ha":1117,"x_min":49,"x_max":1272,"o":"m 356 0 l 435 500 l 461 336 l 49 979 l 372 979 l 611 599 l 574 599 l 936 979 l 1272 979 l 653 336 l 731 500 l 651 0 l 356 0 m 586 1063 l 340 1318 l 618 1318 l 775 1063 l 586 1063 z "},"Ƴ":{"ha":1096,"x_min":49,"x_max":1288,"o":"m 356 0 l 435 500 l 461 336 l 49 979 l 389 979 l 626 599 l 589 599 l 819 838 q 927 930 874 896 q 1038 980 981 964 q 1160 996 1096 996 q 1212 993 1189 996 q 1254 986 1235 990 q 1288 975 1274 982 l 1257 778 q 1222 785 1240 782 q 1185 788 1204 788 q 1093 771 1131 788 q 1018 714 1056 754 l 653 336 l 731 500 l 651 0 l 356 0 z "},"Ỷ":{"ha":1117,"x_min":49,"x_max":1272,"o":"m 356 0 l 435 500 l 461 336 l 49 979 l 372 979 l 611 599 l 574 599 l 936 979 l 1272 979 l 653 336 l 731 500 l 651 0 l 356 0 m 600 1063 l 603 1082 q 621 1113 606 1100 q 656 1136 636 1125 q 691 1156 676 1147 q 708 1176 706 1165 q 699 1194 713 1189 q 653 1200 685 1200 q 600 1195 625 1200 q 547 1179 575 1190 l 525 1282 q 620 1310 567 1300 q 735 1319 674 1319 q 882 1294 835 1319 q 919 1221 929 1268 q 890 1173 913 1192 q 838 1140 867 1154 q 787 1111 810 1125 q 761 1076 764 1097 l 758 1063 l 600 1063 z "},"Ȳ":{"ha":1117,"x_min":49,"x_max":1272,"o":"m 356 0 l 435 500 l 461 336 l 49 979 l 372 979 l 611 599 l 574 599 l 936 979 l 1272 979 l 653 336 l 731 500 l 651 0 l 356 0 m 375 1097 l 400 1258 l 1022 1258 l 997 1097 l 375 1097 z "},"Ỹ":{"ha":1117,"x_min":49,"x_max":1272,"o":"m 356 0 l 435 500 l 461 336 l 49 979 l 372 979 l 611 599 l 574 599 l 936 979 l 1272 979 l 653 336 l 731 500 l 651 0 l 356 0 m 419 1054 l 276 1061 q 335 1188 294 1133 q 433 1272 375 1242 q 561 1303 492 1303 q 649 1289 606 1303 q 735 1258 693 1275 q 806 1233 772 1244 q 872 1222 840 1222 q 944 1245 915 1222 q 988 1310 972 1268 l 1132 1303 q 1028 1127 1104 1193 q 847 1061 951 1061 q 757 1076 800 1061 q 671 1106 714 1090 q 601 1131 635 1119 q 535 1142 567 1142 q 464 1119 492 1142 q 419 1054 436 1097 z "},"Z":{"ha":1093,"x_min":31,"x_max":1126,"o":"m 31 0 l 63 206 l 786 829 l 781 754 l 149 754 l 186 979 l 1126 979 l 1093 775 l 368 150 l 374 225 l 1029 225 l 994 0 l 31 0 z "},"Ź":{"ha":1093,"x_min":31,"x_max":1126,"o":"m 31 0 l 63 206 l 786 829 l 781 754 l 149 754 l 186 979 l 1126 979 l 1093 775 l 368 150 l 374 225 l 1029 225 l 994 0 l 31 0 m 581 1063 l 832 1318 l 1114 1318 l 778 1063 l 581 1063 z "},"Ž":{"ha":1093,"x_min":31,"x_max":1126,"o":"m 31 0 l 63 206 l 786 829 l 781 754 l 149 754 l 186 979 l 1126 979 l 1093 775 l 368 150 l 374 225 l 1029 225 l 994 0 l 31 0 m 564 1063 l 396 1319 l 592 1319 l 704 1196 l 864 1319 l 1054 1319 l 794 1063 l 564 1063 z "},"Ż":{"ha":1093,"x_min":31,"x_max":1126,"o":"m 31 0 l 63 206 l 786 829 l 781 754 l 149 754 l 186 979 l 1126 979 l 1093 775 l 368 150 l 374 225 l 1029 225 l 994 0 l 31 0 m 557 1063 l 596 1290 l 838 1290 l 800 1063 l 557 1063 z "},"Ẓ":{"ha":1093,"x_min":31,"x_max":1126,"o":"m 31 0 l 63 206 l 786 829 l 781 754 l 149 754 l 186 979 l 1126 979 l 1093 775 l 368 150 l 374 225 l 1029 225 l 994 0 l 31 0 m 331 -324 l 367 -96 l 608 -96 l 572 -324 l 331 -324 z "},"a":{"ha":1017,"x_min":42,"x_max":938,"o":"m 347 -15 q 173 19 243 -15 q 72 110 103 53 q 54 238 42 167 q 118 333 67 293 q 277 394 169 372 q 565 415 385 415 l 692 415 l 672 283 l 546 283 q 418 278 465 283 q 349 260 371 274 q 322 226 328 247 q 340 183 317 200 q 424 165 364 165 q 523 181 476 165 q 601 226 569 197 q 639 296 633 256 l 658 425 q 632 492 667 474 q 514 511 597 511 q 351 494 435 511 q 189 443 268 478 l 139 624 q 267 669 197 650 q 410 697 338 688 q 549 707 483 707 q 777 674 689 707 q 901 571 865 642 q 919 385 938 500 l 860 0 l 610 0 l 632 140 l 640 142 q 574 57 617 92 q 476 3 532 22 q 347 -15 419 -15 z "},"á":{"ha":1017,"x_min":42,"x_max":983,"o":"m 347 -15 q 173 19 243 -15 q 72 110 103 53 q 54 238 42 167 q 118 333 67 293 q 277 394 169 372 q 565 415 385 415 l 692 415 l 672 283 l 546 283 q 418 278 465 283 q 349 260 371 274 q 322 226 328 247 q 340 183 317 200 q 424 165 364 165 q 523 181 476 165 q 601 226 569 197 q 639 296 633 256 l 658 425 q 632 492 667 474 q 514 511 597 511 q 351 494 435 511 q 189 443 268 478 l 139 624 q 267 669 197 650 q 410 697 338 688 q 549 707 483 707 q 777 674 689 707 q 901 571 865 642 q 919 385 938 500 l 860 0 l 610 0 l 632 140 l 640 142 q 574 57 617 92 q 476 3 532 22 q 347 -15 419 -15 m 490 776 l 717 1075 l 983 1075 l 678 776 l 490 776 z "},"ă":{"ha":1017,"x_min":42,"x_max":946,"o":"m 347 -15 q 173 19 243 -15 q 72 110 103 53 q 54 238 42 167 q 118 333 67 293 q 277 394 169 372 q 565 415 385 415 l 692 415 l 672 283 l 546 283 q 418 278 465 283 q 349 260 371 274 q 322 226 328 247 q 340 183 317 200 q 424 165 364 165 q 523 181 476 165 q 601 226 569 197 q 639 296 633 256 l 658 425 q 632 492 667 474 q 514 511 597 511 q 351 494 435 511 q 189 443 268 478 l 139 624 q 267 669 197 650 q 410 697 338 688 q 549 707 483 707 q 777 674 689 707 q 901 571 865 642 q 919 385 938 500 l 860 0 l 610 0 l 632 140 l 640 142 q 574 57 617 92 q 476 3 532 22 q 347 -15 419 -15 m 585 774 q 423 807 483 774 q 340 905 363 840 q 331 1064 318 969 l 486 1078 q 513 965 482 997 q 614 932 544 932 q 726 965 683 932 q 793 1078 769 997 l 947 1064 q 878 906 925 971 q 758 807 831 840 q 585 774 685 774 z "},"ắ":{"ha":1017,"x_min":42,"x_max":947,"o":"m 347 -15 q 173 19 243 -15 q 72 110 103 53 q 54 238 42 167 q 118 333 67 293 q 277 394 169 372 q 565 415 385 415 l 692 415 l 672 283 l 546 283 q 418 278 465 283 q 349 260 371 274 q 322 226 328 247 q 340 183 317 200 q 424 165 364 165 q 523 181 476 165 q 601 226 569 197 q 639 296 633 256 l 658 425 q 632 492 667 474 q 514 511 597 511 q 351 494 435 511 q 189 443 268 478 l 139 624 q 267 669 197 650 q 410 697 338 688 q 549 707 483 707 q 777 674 689 707 q 901 571 865 642 q 919 385 938 500 l 860 0 l 610 0 l 632 140 l 640 142 q 574 57 617 92 q 476 3 532 22 q 347 -15 419 -15 m 583 774 q 365 833 433 774 q 307 1010 297 893 l 443 1022 q 485 939 444 965 q 608 913 526 913 q 742 939 692 913 q 815 1022 793 965 l 947 1010 q 824 833 914 893 q 583 774 733 774 m 528 981 l 675 1157 l 932 1157 l 694 981 l 528 981 z "},"ặ":{"ha":1017,"x_min":42,"x_max":946,"o":"m 347 -15 q 173 19 243 -15 q 72 110 103 53 q 54 238 42 167 q 118 333 67 293 q 277 394 169 372 q 565 415 385 415 l 692 415 l 672 283 l 546 283 q 418 278 465 283 q 349 260 371 274 q 322 226 328 247 q 340 183 317 200 q 424 165 364 165 q 523 181 476 165 q 601 226 569 197 q 639 296 633 256 l 658 425 q 632 492 667 474 q 514 511 597 511 q 351 494 435 511 q 189 443 268 478 l 139 624 q 267 669 197 650 q 410 697 338 688 q 549 707 483 707 q 777 674 689 707 q 901 571 865 642 q 919 385 938 500 l 860 0 l 610 0 l 632 140 l 640 142 q 574 57 617 92 q 476 3 532 22 q 347 -15 419 -15 m 267 -324 l 303 -96 l 544 -96 l 508 -324 l 267 -324 m 585 774 q 423 807 483 774 q 340 905 363 840 q 331 1064 318 969 l 486 1078 q 513 965 482 997 q 614 932 544 932 q 726 965 683 932 q 793 1078 769 997 l 947 1064 q 878 906 925 971 q 758 807 831 840 q 585 774 685 774 z "},"ằ":{"ha":1017,"x_min":42,"x_max":947,"o":"m 347 -15 q 173 19 243 -15 q 72 110 103 53 q 54 238 42 167 q 118 333 67 293 q 277 394 169 372 q 565 415 385 415 l 692 415 l 672 283 l 546 283 q 418 278 465 283 q 349 260 371 274 q 322 226 328 247 q 340 183 317 200 q 424 165 364 165 q 523 181 476 165 q 601 226 569 197 q 639 296 633 256 l 658 425 q 632 492 667 474 q 514 511 597 511 q 351 494 435 511 q 189 443 268 478 l 139 624 q 267 669 197 650 q 410 697 338 688 q 549 707 483 707 q 777 674 689 707 q 901 571 865 642 q 919 385 938 500 l 860 0 l 610 0 l 632 140 l 640 142 q 574 57 617 92 q 476 3 532 22 q 347 -15 419 -15 m 583 774 q 365 833 433 774 q 307 1010 297 893 l 443 1022 q 485 939 444 965 q 608 913 526 913 q 742 939 692 913 q 815 1022 793 965 l 947 1010 q 824 833 914 893 q 583 774 733 774 m 554 981 l 376 1157 l 632 1157 l 721 981 l 554 981 z "},"ẳ":{"ha":1017,"x_min":42,"x_max":938,"o":"m 347 -15 q 173 19 243 -15 q 72 110 103 53 q 54 238 42 167 q 118 333 67 293 q 277 394 169 372 q 565 415 385 415 l 692 415 l 672 283 l 546 283 q 418 278 465 283 q 349 260 371 274 q 322 226 328 247 q 340 183 317 200 q 424 165 364 165 q 523 181 476 165 q 601 226 569 197 q 639 296 633 256 l 658 425 q 632 492 667 474 q 514 511 597 511 q 351 494 435 511 q 189 443 268 478 l 139 624 q 267 669 197 650 q 410 697 338 688 q 549 707 483 707 q 777 674 689 707 q 901 571 865 642 q 919 385 938 500 l 860 0 l 610 0 l 632 140 l 640 142 q 574 57 617 92 q 476 3 532 22 q 347 -15 419 -15 m 571 774 q 354 833 422 774 q 296 1010 286 893 l 431 1022 q 474 939 433 965 q 597 913 514 913 q 731 939 681 913 q 804 1022 782 965 l 936 1010 q 812 833 903 893 q 571 774 721 774 m 535 982 q 549 1013 535 1001 q 579 1035 563 1025 q 610 1052 596 1044 q 626 1069 624 1060 q 617 1085 629 1079 q 581 1090 604 1090 q 535 1086 560 1090 q 476 1072 510 1082 l 460 1163 q 549 1186 501 1179 q 649 1193 597 1193 q 785 1171 742 1193 q 821 1108 829 1149 q 794 1066 815 1082 q 749 1038 774 1050 q 706 1014 725 1026 q 686 982 688 1001 l 535 982 z "},"ẵ":{"ha":1017,"x_min":42,"x_max":982,"o":"m 347 -15 q 173 19 243 -15 q 72 110 103 53 q 54 238 42 167 q 118 333 67 293 q 277 394 169 372 q 565 415 385 415 l 692 415 l 672 283 l 546 283 q 418 278 465 283 q 349 260 371 274 q 322 226 328 247 q 340 183 317 200 q 424 165 364 165 q 523 181 476 165 q 601 226 569 197 q 639 296 633 256 l 658 425 q 632 492 667 474 q 514 511 597 511 q 351 494 435 511 q 189 443 268 478 l 139 624 q 267 669 197 650 q 410 697 338 688 q 549 707 483 707 q 777 674 689 707 q 901 571 865 642 q 919 385 938 500 l 860 0 l 610 0 l 632 140 l 640 142 q 574 57 617 92 q 476 3 532 22 q 347 -15 419 -15 m 585 774 q 381 822 450 774 q 306 960 313 869 l 433 988 q 493 931 447 950 q 610 913 539 913 q 735 931 681 913 q 815 988 789 950 l 931 960 q 804 821 890 868 q 585 774 718 774 m 432 1018 l 308 1025 q 352 1114 322 1076 q 429 1172 382 1151 q 540 1193 476 1193 q 613 1184 581 1193 q 674 1165 644 1175 q 722 1152 699 1158 q 772 1146 744 1146 q 829 1159 807 1146 q 861 1192 851 1172 l 983 1186 q 902 1063 961 1108 q 749 1018 843 1018 q 676 1026 707 1018 q 618 1044 646 1035 q 571 1060 594 1054 q 521 1065 547 1065 q 469 1054 494 1065 q 432 1018 444 1043 z "},"ǎ":{"ha":1017,"x_min":42,"x_max":956,"o":"m 347 -15 q 173 19 243 -15 q 72 110 103 53 q 54 238 42 167 q 118 333 67 293 q 277 394 169 372 q 565 415 385 415 l 692 415 l 672 283 l 546 283 q 418 278 465 283 q 349 260 371 274 q 322 226 328 247 q 340 183 317 200 q 424 165 364 165 q 523 181 476 165 q 601 226 569 197 q 639 296 633 256 l 658 425 q 632 492 667 474 q 514 511 597 511 q 351 494 435 511 q 189 443 268 478 l 139 624 q 267 669 197 650 q 410 697 338 688 q 549 707 483 707 q 777 674 689 707 q 901 571 865 642 q 919 385 938 500 l 860 0 l 610 0 l 632 140 l 640 142 q 574 57 617 92 q 476 3 532 22 q 347 -15 419 -15 m 471 776 l 326 1075 l 504 1075 l 614 913 l 778 1075 l 956 1075 l 706 776 l 471 776 z "},"â":{"ha":1017,"x_min":42,"x_max":938,"o":"m 347 -15 q 173 19 243 -15 q 72 110 103 53 q 54 238 42 167 q 118 333 67 293 q 277 394 169 372 q 565 415 385 415 l 692 415 l 672 283 l 546 283 q 418 278 465 283 q 349 260 371 274 q 322 226 328 247 q 340 183 317 200 q 424 165 364 165 q 523 181 476 165 q 601 226 569 197 q 639 296 633 256 l 658 425 q 632 492 667 474 q 514 511 597 511 q 351 494 435 511 q 189 443 268 478 l 139 624 q 267 669 197 650 q 410 697 338 688 q 549 707 483 707 q 777 674 689 707 q 901 571 865 642 q 919 385 938 500 l 860 0 l 610 0 l 632 140 l 640 142 q 574 57 617 92 q 476 3 532 22 q 347 -15 419 -15 m 276 776 l 526 1075 l 761 1075 l 906 776 l 728 776 l 619 939 l 454 776 l 276 776 z "},"ấ":{"ha":1017,"x_min":42,"x_max":1210,"o":"m 347 -15 q 173 19 243 -15 q 72 110 103 53 q 54 238 42 167 q 118 333 67 293 q 277 394 169 372 q 565 415 385 415 l 692 415 l 672 283 l 546 283 q 418 278 465 283 q 349 260 371 274 q 322 226 328 247 q 340 183 317 200 q 424 165 364 165 q 523 181 476 165 q 601 226 569 197 q 639 296 633 256 l 658 425 q 632 492 667 474 q 514 511 597 511 q 351 494 435 511 q 189 443 268 478 l 139 624 q 267 669 197 650 q 410 697 338 688 q 549 707 483 707 q 777 674 689 707 q 901 571 865 642 q 919 385 938 500 l 860 0 l 610 0 l 632 140 l 640 142 q 574 57 617 92 q 476 3 532 22 q 347 -15 419 -15 m 275 781 l 519 1036 l 750 1036 l 901 781 l 725 781 l 611 906 l 451 781 l 275 781 m 825 950 l 993 1160 l 1211 1160 l 978 950 l 825 950 z "},"ậ":{"ha":1017,"x_min":42,"x_max":938,"o":"m 347 -15 q 173 19 243 -15 q 72 110 103 53 q 54 238 42 167 q 118 333 67 293 q 277 394 169 372 q 565 415 385 415 l 692 415 l 672 283 l 546 283 q 418 278 465 283 q 349 260 371 274 q 322 226 328 247 q 340 183 317 200 q 424 165 364 165 q 523 181 476 165 q 601 226 569 197 q 639 296 633 256 l 658 425 q 632 492 667 474 q 514 511 597 511 q 351 494 435 511 q 189 443 268 478 l 139 624 q 267 669 197 650 q 410 697 338 688 q 549 707 483 707 q 777 674 689 707 q 901 571 865 642 q 919 385 938 500 l 860 0 l 610 0 l 632 140 l 640 142 q 574 57 617 92 q 476 3 532 22 q 347 -15 419 -15 m 267 -324 l 303 -96 l 544 -96 l 508 -324 l 267 -324 m 276 776 l 526 1075 l 761 1075 l 906 776 l 728 776 l 619 939 l 454 776 l 276 776 z "},"ầ":{"ha":1017,"x_min":42,"x_max":1044,"o":"m 347 -15 q 173 19 243 -15 q 72 110 103 53 q 54 238 42 167 q 118 333 67 293 q 277 394 169 372 q 565 415 385 415 l 692 415 l 672 283 l 546 283 q 418 278 465 283 q 349 260 371 274 q 322 226 328 247 q 340 183 317 200 q 424 165 364 165 q 523 181 476 165 q 601 226 569 197 q 639 296 633 256 l 658 425 q 632 492 667 474 q 514 511 597 511 q 351 494 435 511 q 189 443 268 478 l 139 624 q 267 669 197 650 q 410 697 338 688 q 549 707 483 707 q 777 674 689 707 q 901 571 865 642 q 919 385 938 500 l 860 0 l 610 0 l 632 140 l 640 142 q 574 57 617 92 q 476 3 532 22 q 347 -15 419 -15 m 275 781 l 519 1036 l 750 1036 l 900 781 l 724 781 l 610 906 l 451 781 l 275 781 m 892 950 l 736 1160 l 954 1160 l 1044 950 l 892 950 z "},"ẩ":{"ha":1017,"x_min":42,"x_max":1117,"o":"m 347 -15 q 173 19 243 -15 q 72 110 103 53 q 54 238 42 167 q 118 333 67 293 q 277 394 169 372 q 565 415 385 415 l 692 415 l 672 283 l 546 283 q 418 278 465 283 q 349 260 371 274 q 322 226 328 247 q 340 183 317 200 q 424 165 364 165 q 523 181 476 165 q 601 226 569 197 q 639 296 633 256 l 658 425 q 632 492 667 474 q 514 511 597 511 q 351 494 435 511 q 189 443 268 478 l 139 624 q 267 669 197 650 q 410 697 338 688 q 549 707 483 707 q 777 674 689 707 q 901 571 865 642 q 919 385 938 500 l 860 0 l 610 0 l 632 140 l 640 142 q 574 57 617 92 q 476 3 532 22 q 347 -15 419 -15 m 275 781 l 518 1036 l 749 1036 l 900 781 l 724 781 l 610 906 l 451 781 l 275 781 m 836 950 q 849 983 838 969 q 877 1008 861 996 q 905 1030 893 1021 q 918 1049 917 1039 q 912 1065 922 1060 q 878 1069 901 1069 q 834 1066 854 1069 q 781 1051 814 1063 l 764 1140 q 849 1163 806 1156 q 944 1169 893 1169 q 1075 1149 1033 1169 q 1108 1086 1117 1128 q 1083 1042 1103 1060 q 1041 1011 1064 1025 q 1001 983 1018 997 q 982 950 983 969 l 836 950 z "},"ẫ":{"ha":1017,"x_min":42,"x_max":983,"o":"m 347 -15 q 173 19 243 -15 q 72 110 103 53 q 54 238 42 167 q 118 333 67 293 q 277 394 169 372 q 565 415 385 415 l 692 415 l 672 283 l 546 283 q 418 278 465 283 q 349 260 371 274 q 322 226 328 247 q 340 183 317 200 q 424 165 364 165 q 523 181 476 165 q 601 226 569 197 q 639 296 633 256 l 658 425 q 632 492 667 474 q 514 511 597 511 q 351 494 435 511 q 189 443 268 478 l 139 624 q 267 669 197 650 q 410 697 338 688 q 549 707 483 707 q 777 674 689 707 q 901 571 865 642 q 919 385 938 500 l 860 0 l 610 0 l 632 140 l 640 142 q 574 57 617 92 q 476 3 532 22 q 347 -15 419 -15 m 278 781 l 513 986 l 743 986 l 903 781 l 721 781 l 608 875 l 460 781 l 278 781 m 432 1019 l 308 1026 q 353 1115 324 1078 q 429 1174 382 1153 q 539 1194 476 1194 q 612 1185 579 1194 q 674 1167 644 1176 q 722 1153 699 1160 q 772 1146 746 1146 q 829 1159 807 1146 q 861 1193 851 1172 l 983 1188 q 903 1064 963 1108 q 749 1019 844 1019 q 676 1028 707 1019 q 618 1046 646 1036 q 571 1060 594 1054 q 521 1067 547 1067 q 469 1056 494 1067 q 432 1019 443 1044 z "},"ȁ":{"ha":1017,"x_min":42,"x_max":938,"o":"m 347 -15 q 173 19 243 -15 q 72 110 103 53 q 54 238 42 167 q 118 333 67 293 q 277 394 169 372 q 565 415 385 415 l 692 415 l 672 283 l 546 283 q 418 278 465 283 q 349 260 371 274 q 322 226 328 247 q 340 183 317 200 q 424 165 364 165 q 523 181 476 165 q 601 226 569 197 q 639 296 633 256 l 658 425 q 632 492 667 474 q 514 511 597 511 q 351 494 435 511 q 189 443 268 478 l 139 624 q 267 669 197 650 q 410 697 338 688 q 549 707 483 707 q 777 674 689 707 q 901 571 865 642 q 919 385 938 500 l 860 0 l 610 0 l 632 140 l 640 142 q 574 57 617 92 q 476 3 532 22 q 347 -15 419 -15 m 664 776 l 558 1075 l 785 1075 l 810 776 l 664 776 m 375 776 l 269 1075 l 496 1075 l 521 776 l 375 776 z "},"ä":{"ha":1017,"x_min":42,"x_max":938,"o":"m 347 -15 q 173 19 243 -15 q 72 110 103 53 q 54 238 42 167 q 118 333 67 293 q 277 394 169 372 q 565 415 385 415 l 692 415 l 672 283 l 546 283 q 418 278 465 283 q 349 260 371 274 q 322 226 328 247 q 340 183 317 200 q 424 165 364 165 q 523 181 476 165 q 601 226 569 197 q 639 296 633 256 l 658 425 q 632 492 667 474 q 514 511 597 511 q 351 494 435 511 q 189 443 268 478 l 139 624 q 267 669 197 650 q 410 697 338 688 q 549 707 483 707 q 777 674 689 707 q 901 571 865 642 q 919 385 938 500 l 860 0 l 610 0 l 632 140 l 640 142 q 574 57 617 92 q 476 3 532 22 q 347 -15 419 -15 m 660 806 l 696 1033 l 936 1033 l 900 806 l 660 806 m 285 806 l 322 1033 l 563 1033 l 526 806 l 285 806 z "},"ȧ":{"ha":1017,"x_min":42,"x_max":938,"o":"m 347 -15 q 173 19 243 -15 q 72 110 103 53 q 54 238 42 167 q 118 333 67 293 q 277 394 169 372 q 565 415 385 415 l 692 415 l 672 283 l 546 283 q 418 278 465 283 q 349 260 371 274 q 322 226 328 247 q 340 183 317 200 q 424 165 364 165 q 523 181 476 165 q 601 226 569 197 q 639 296 633 256 l 658 425 q 632 492 667 474 q 514 511 597 511 q 351 494 435 511 q 189 443 268 478 l 139 624 q 267 669 197 650 q 410 697 338 688 q 549 707 483 707 q 777 674 689 707 q 901 571 865 642 q 919 385 938 500 l 860 0 l 610 0 l 632 140 l 640 142 q 574 57 617 92 q 476 3 532 22 q 347 -15 419 -15 m 474 808 l 508 1036 l 750 1036 l 715 808 l 474 808 z "},"ạ":{"ha":1017,"x_min":42,"x_max":938,"o":"m 347 -15 q 173 19 243 -15 q 72 110 103 53 q 54 238 42 167 q 118 333 67 293 q 277 394 169 372 q 565 415 385 415 l 692 415 l 672 283 l 546 283 q 418 278 465 283 q 349 260 371 274 q 322 226 328 247 q 340 183 317 200 q 424 165 364 165 q 523 181 476 165 q 601 226 569 197 q 639 296 633 256 l 658 425 q 632 492 667 474 q 514 511 597 511 q 351 494 435 511 q 189 443 268 478 l 139 624 q 267 669 197 650 q 410 697 338 688 q 549 707 483 707 q 777 674 689 707 q 901 571 865 642 q 919 385 938 500 l 860 0 l 610 0 l 632 140 l 640 142 q 574 57 617 92 q 476 3 532 22 q 347 -15 419 -15 m 267 -324 l 303 -96 l 544 -96 l 508 -324 l 267 -324 z "},"à":{"ha":1017,"x_min":42,"x_max":938,"o":"m 347 -15 q 173 19 243 -15 q 72 110 103 53 q 54 238 42 167 q 118 333 67 293 q 277 394 169 372 q 565 415 385 415 l 692 415 l 672 283 l 546 283 q 418 278 465 283 q 349 260 371 274 q 322 226 328 247 q 340 183 317 200 q 424 165 364 165 q 523 181 476 165 q 601 226 569 197 q 639 296 633 256 l 658 425 q 632 492 667 474 q 514 511 597 511 q 351 494 435 511 q 189 443 268 478 l 139 624 q 267 669 197 650 q 410 697 338 688 q 549 707 483 707 q 777 674 689 707 q 901 571 865 642 q 919 385 938 500 l 860 0 l 610 0 l 632 140 l 640 142 q 574 57 617 92 q 476 3 532 22 q 347 -15 419 -15 m 499 781 l 297 1074 l 567 1074 l 686 781 l 499 781 z "},"ả":{"ha":1017,"x_min":42,"x_max":938,"o":"m 347 -15 q 173 19 243 -15 q 72 110 103 53 q 54 238 42 167 q 118 333 67 293 q 277 394 169 372 q 565 415 385 415 l 692 415 l 672 283 l 546 283 q 418 278 465 283 q 349 260 371 274 q 322 226 328 247 q 340 183 317 200 q 424 165 364 165 q 523 181 476 165 q 601 226 569 197 q 639 296 633 256 l 658 425 q 632 492 667 474 q 514 511 597 511 q 351 494 435 511 q 189 443 268 478 l 139 624 q 267 669 197 650 q 410 697 338 688 q 549 707 483 707 q 777 674 689 707 q 901 571 865 642 q 919 385 938 500 l 860 0 l 610 0 l 632 140 l 640 142 q 574 57 617 92 q 476 3 532 22 q 347 -15 419 -15 m 507 781 l 513 807 q 532 850 515 833 q 569 880 549 867 q 606 905 589 893 q 626 933 622 917 q 616 956 631 949 q 567 964 601 964 q 515 958 540 964 q 460 942 489 953 l 435 1047 q 537 1076 479 1065 q 654 1086 594 1086 q 810 1057 761 1086 q 847 972 858 1028 q 814 913 839 936 q 759 874 789 890 q 706 842 729 858 q 676 799 682 826 l 675 781 l 507 781 z "},"ȃ":{"ha":1017,"x_min":42,"x_max":938,"o":"m 347 -15 q 173 19 243 -15 q 72 110 103 53 q 54 238 42 167 q 118 333 67 293 q 277 394 169 372 q 565 415 385 415 l 692 415 l 672 283 l 546 283 q 418 278 465 283 q 349 260 371 274 q 322 226 328 247 q 340 183 317 200 q 424 165 364 165 q 523 181 476 165 q 601 226 569 197 q 639 296 633 256 l 658 425 q 632 492 667 474 q 514 511 597 511 q 351 494 435 511 q 189 443 268 478 l 139 624 q 267 669 197 650 q 410 697 338 688 q 549 707 483 707 q 777 674 689 707 q 901 571 865 642 q 919 385 938 500 l 860 0 l 610 0 l 632 140 l 640 142 q 574 57 617 92 q 476 3 532 22 q 347 -15 419 -15 m 438 774 l 285 786 q 355 946 308 881 q 474 1044 401 1011 q 647 1078 547 1078 q 808 1044 749 1078 q 891 945 868 1010 q 901 786 914 881 l 744 774 q 717 886 749 853 q 617 919 686 919 q 505 886 547 919 q 438 774 463 853 z "},"ā":{"ha":1017,"x_min":42,"x_max":938,"o":"m 347 -15 q 173 19 243 -15 q 72 110 103 53 q 54 238 42 167 q 118 333 67 293 q 277 394 169 372 q 565 415 385 415 l 692 415 l 672 283 l 546 283 q 418 278 465 283 q 349 260 371 274 q 322 226 328 247 q 340 183 317 200 q 424 165 364 165 q 523 181 476 165 q 601 226 569 197 q 639 296 633 256 l 658 425 q 632 492 667 474 q 514 511 597 511 q 351 494 435 511 q 189 443 268 478 l 139 624 q 267 669 197 650 q 410 697 338 688 q 549 707 483 707 q 777 674 689 707 q 901 571 865 642 q 919 385 938 500 l 860 0 l 610 0 l 632 140 l 640 142 q 574 57 617 92 q 476 3 532 22 q 347 -15 419 -15 m 299 835 l 325 996 l 921 996 l 896 835 l 299 835 z "},"ą":{"ha":1017,"x_min":42,"x_max":938,"o":"m 347 -15 q 173 19 243 -15 q 72 110 103 53 q 54 238 42 167 q 118 333 67 293 q 277 394 169 372 q 565 415 385 415 l 692 415 l 672 283 l 546 283 q 418 278 465 283 q 349 260 371 274 q 322 226 328 247 q 340 183 317 200 q 424 165 364 165 q 523 181 476 165 q 601 226 569 197 q 639 296 633 256 l 658 425 q 632 492 667 474 q 514 511 597 511 q 351 494 435 511 q 189 443 268 478 l 139 624 q 267 669 197 650 q 410 697 338 688 q 549 707 483 707 q 777 674 689 707 q 901 571 865 642 q 919 385 938 500 l 860 0 l 610 0 l 632 140 l 640 142 q 574 57 617 92 q 476 3 532 22 q 347 -15 419 -15 m 718 -281 q 553 -242 604 -281 q 517 -132 501 -204 q 583 -22 529 -71 q 743 67 638 26 l 808 0 q 751 -28 775 -14 q 712 -58 726 -42 q 693 -92 697 -75 q 710 -133 688 -119 q 775 -147 732 -147 q 824 -143 801 -147 q 874 -132 846 -139 l 878 -254 q 799 -274 835 -268 q 718 -281 763 -281 z "},"å":{"ha":1017,"x_min":42,"x_max":938,"o":"m 347 -15 q 173 19 243 -15 q 72 110 103 53 q 54 238 42 167 q 118 333 67 293 q 277 394 169 372 q 565 415 385 415 l 692 415 l 672 283 l 546 283 q 418 278 465 283 q 349 260 371 274 q 322 226 328 247 q 340 183 317 200 q 424 165 364 165 q 523 181 476 165 q 601 226 569 197 q 639 296 633 256 l 658 425 q 632 492 667 474 q 514 511 597 511 q 351 494 435 511 q 189 443 268 478 l 139 624 q 267 669 197 650 q 410 697 338 688 q 549 707 483 707 q 777 674 689 707 q 901 571 865 642 q 919 385 938 500 l 860 0 l 610 0 l 632 140 l 640 142 q 574 57 617 92 q 476 3 532 22 q 347 -15 419 -15 m 618 774 q 507 799 556 774 q 431 869 458 825 q 403 967 403 913 q 431 1065 403 1022 q 507 1135 458 1108 q 618 1161 556 1161 q 728 1135 681 1161 q 804 1065 776 1108 q 832 965 832 1021 q 804 868 832 911 q 728 799 776 825 q 618 774 681 774 m 618 872 q 686 899 661 872 q 711 968 711 926 q 686 1035 711 1008 q 617 1061 661 1061 q 549 1035 575 1061 q 524 968 524 1008 q 549 899 524 926 q 618 872 575 872 z "},"ǻ":{"ha":1017,"x_min":42,"x_max":1026,"o":"m 347 -15 q 173 19 243 -15 q 72 110 103 53 q 54 238 42 167 q 118 333 67 293 q 277 394 169 372 q 565 415 385 415 l 692 415 l 672 283 l 546 283 q 418 278 465 283 q 349 260 371 274 q 322 226 328 247 q 340 183 317 200 q 424 165 364 165 q 523 181 476 165 q 601 226 569 197 q 639 296 633 256 l 658 425 q 632 492 667 474 q 514 511 597 511 q 351 494 435 511 q 189 443 268 478 l 139 624 q 267 669 197 650 q 410 697 338 688 q 549 707 483 707 q 777 674 689 707 q 901 571 865 642 q 919 385 938 500 l 860 0 l 610 0 l 632 140 l 640 142 q 574 57 617 92 q 476 3 532 22 q 347 -15 419 -15 m 617 754 q 503 780 553 754 q 426 851 454 806 q 399 951 399 896 q 426 1052 399 1007 q 503 1124 454 1097 q 617 1150 553 1150 q 669 1144 644 1150 q 715 1129 694 1139 l 814 1225 l 1026 1225 l 813 1043 q 829 1001 824 1024 q 835 951 835 978 q 807 851 835 896 q 730 780 779 806 q 617 754 681 754 m 617 857 q 685 884 661 857 q 710 951 710 911 q 685 1019 710 993 q 617 1046 661 1046 q 548 1019 574 1046 q 522 951 522 993 q 548 884 522 911 q 617 857 574 857 z "},"ã":{"ha":1017,"x_min":42,"x_max":992,"o":"m 347 -15 q 173 19 243 -15 q 72 110 103 53 q 54 238 42 167 q 118 333 67 293 q 277 394 169 372 q 565 415 385 415 l 692 415 l 672 283 l 546 283 q 418 278 465 283 q 349 260 371 274 q 322 226 328 247 q 340 183 317 200 q 424 165 364 165 q 523 181 476 165 q 601 226 569 197 q 639 296 633 256 l 658 425 q 632 492 667 474 q 514 511 597 511 q 351 494 435 511 q 189 443 268 478 l 139 624 q 267 669 197 650 q 410 697 338 688 q 549 707 483 707 q 777 674 689 707 q 901 571 865 642 q 919 385 938 500 l 860 0 l 610 0 l 632 140 l 640 142 q 574 57 617 92 q 476 3 532 22 q 347 -15 419 -15 m 378 800 l 238 808 q 340 984 267 918 q 508 1050 413 1050 q 590 1034 557 1050 q 651 1001 622 1018 q 695 977 672 988 q 747 967 718 967 q 811 989 788 967 q 851 1056 835 1011 l 992 1049 q 892 871 964 936 q 721 806 819 806 q 642 822 674 806 q 582 854 610 838 q 535 879 558 868 q 481 890 511 890 q 417 867 439 890 q 378 800 394 843 z "},"æ":{"ha":1558,"x_min":40,"x_max":1531,"o":"m 350 -15 q 169 20 240 -15 q 69 113 99 56 q 53 236 40 169 q 126 342 68 301 q 292 403 183 383 q 567 422 401 422 l 696 422 l 676 292 l 549 292 q 427 286 475 292 q 353 267 379 281 q 322 226 328 253 q 344 180 317 196 q 424 164 371 164 q 525 181 479 164 q 601 228 571 199 q 638 296 632 258 l 658 426 q 631 490 667 471 q 511 510 596 510 q 349 492 432 510 q 189 442 265 475 l 139 624 q 267 669 199 651 q 409 697 336 686 q 553 707 482 707 q 744 683 672 707 q 850 614 815 658 l 833 614 q 976 682 894 657 q 1146 707 1057 707 q 1358 665 1268 707 q 1489 542 1447 622 q 1514 344 1531 461 l 1506 283 l 863 283 l 883 419 l 1322 419 l 1288 397 q 1279 474 1294 444 q 1228 519 1264 504 q 1139 533 1193 533 q 1028 514 1075 533 q 953 457 982 494 q 915 365 924 419 l 914 356 q 950 223 900 264 q 1138 182 1000 182 q 1290 197 1215 182 q 1414 232 1364 211 l 1464 54 q 1300 3 1397 22 q 1097 -15 1203 -15 q 913 3 992 -15 q 781 57 835 21 q 693 143 726 93 l 735 143 q 640 57 696 93 q 510 3 583 21 q 350 -15 438 -15 z "},"ǽ":{"ha":1558,"x_min":40,"x_max":1531,"o":"m 350 -15 q 169 20 240 -15 q 69 113 99 56 q 53 236 40 169 q 126 342 68 301 q 292 403 183 383 q 567 422 401 422 l 696 422 l 676 292 l 549 292 q 427 286 475 292 q 353 267 379 281 q 322 226 328 253 q 344 180 317 196 q 424 164 371 164 q 525 181 479 164 q 601 228 571 199 q 638 296 632 258 l 658 426 q 631 490 667 471 q 511 510 596 510 q 349 492 432 510 q 189 442 265 475 l 139 624 q 267 669 199 651 q 409 697 336 686 q 553 707 482 707 q 744 683 672 707 q 850 614 815 658 l 833 614 q 976 682 894 657 q 1146 707 1057 707 q 1358 665 1268 707 q 1489 542 1447 622 q 1514 344 1531 461 l 1506 283 l 863 283 l 883 419 l 1322 419 l 1288 397 q 1279 474 1294 444 q 1228 519 1264 504 q 1139 533 1193 533 q 1028 514 1075 533 q 953 457 982 494 q 915 365 924 419 l 914 356 q 950 223 900 264 q 1138 182 1000 182 q 1290 197 1215 182 q 1414 232 1364 211 l 1464 54 q 1300 3 1397 22 q 1097 -15 1203 -15 q 913 3 992 -15 q 781 57 835 21 q 693 143 726 93 l 735 143 q 640 57 696 93 q 510 3 583 21 q 350 -15 438 -15 m 771 776 l 997 1075 l 1264 1075 l 958 776 l 771 776 z "},"b":{"ha":1099,"x_min":50,"x_max":1054,"o":"m 592 -15 q 430 22 503 -15 q 324 122 357 58 l 336 122 l 317 0 l 50 0 l 206 979 l 486 979 l 422 578 l 403 578 q 483 647 435 618 q 589 692 532 676 q 700 707 646 707 q 910 654 828 707 q 1023 510 992 601 q 1031 301 1054 418 q 947 124 1007 194 q 796 19 886 54 q 592 -15 706 -15 m 542 189 q 644 206 600 189 q 717 253 688 222 q 756 331 746 285 q 730 457 771 411 q 596 503 689 503 q 493 487 538 503 q 421 440 449 471 q 382 361 393 408 q 406 235 365 282 q 542 189 447 189 z "},"ɓ":{"ha":1099,"x_min":50,"x_max":1054,"o":"m 592 -15 q 430 22 503 -15 q 324 122 357 58 l 336 122 l 317 0 l 50 0 l 158 683 q 230 848 174 778 q 376 956 286 918 q 586 994 467 994 q 656 992 624 994 q 719 981 689 989 l 657 782 q 627 788 642 786 q 593 789 613 789 q 479 761 518 789 q 431 676 440 733 l 415 578 l 396 578 q 477 646 428 617 q 585 691 526 675 q 700 707 643 707 q 910 654 828 707 q 1023 510 992 601 q 1031 301 1054 418 q 946 124 1007 194 q 794 19 885 54 q 592 -15 704 -15 m 542 189 q 644 206 600 189 q 717 253 688 222 q 756 331 746 285 q 730 457 771 411 q 594 503 689 503 q 493 487 538 503 q 421 440 449 471 q 382 361 393 408 q 406 235 365 282 q 542 189 447 189 z "},"c":{"ha":860,"x_min":44,"x_max":878,"o":"m 468 -15 q 224 35 322 -15 q 85 176 126 86 q 67 382 44 265 q 131 530 85 468 q 244 631 176 592 q 395 688 311 669 q 574 707 479 707 q 751 685 669 707 q 878 628 833 664 l 775 438 q 681 481 735 465 q 572 496 626 496 q 488 488 526 496 q 421 463 450 479 q 372 419 392 446 q 346 356 353 392 q 375 238 331 281 q 518 196 419 196 q 635 211 576 196 q 749 256 694 226 l 810 64 q 715 22 769 40 q 599 -6 661 4 q 468 -15 536 -15 z "},"ć":{"ha":860,"x_min":44,"x_max":976,"o":"m 468 -15 q 224 35 322 -15 q 85 176 126 86 q 67 382 44 265 q 131 530 85 468 q 244 631 176 592 q 395 688 311 669 q 574 707 479 707 q 751 685 669 707 q 878 628 833 664 l 775 438 q 681 481 735 465 q 572 496 626 496 q 488 488 526 496 q 421 463 450 479 q 372 419 392 446 q 346 356 353 392 q 375 238 331 281 q 518 196 419 196 q 635 211 576 196 q 749 256 694 226 l 810 64 q 715 22 769 40 q 599 -6 661 4 q 468 -15 536 -15 m 483 776 l 710 1075 l 976 1075 l 671 776 l 483 776 z "},"č":{"ha":860,"x_min":44,"x_max":949,"o":"m 468 -15 q 224 35 322 -15 q 85 176 126 86 q 67 382 44 265 q 131 530 85 468 q 244 631 176 592 q 395 688 311 669 q 574 707 479 707 q 751 685 669 707 q 878 628 833 664 l 775 438 q 681 481 735 465 q 572 496 626 496 q 488 488 526 496 q 421 463 450 479 q 372 419 392 446 q 346 356 353 392 q 375 238 331 281 q 518 196 419 196 q 635 211 576 196 q 749 256 694 226 l 810 64 q 715 22 769 40 q 599 -6 661 4 q 468 -15 536 -15 m 464 776 l 319 1075 l 497 1075 l 607 913 l 771 1075 l 949 1075 l 699 776 l 464 776 z "},"ç":{"ha":860,"x_min":44,"x_max":878,"o":"m 468 -15 q 224 35 322 -15 q 85 176 126 86 q 67 382 44 265 q 131 530 85 468 q 244 631 176 592 q 395 688 311 669 q 574 707 479 707 q 751 685 669 707 q 878 628 833 664 l 775 438 q 681 481 735 465 q 572 496 626 496 q 488 488 526 496 q 421 463 450 479 q 372 419 392 446 q 346 356 353 392 q 375 238 331 281 q 518 196 419 196 q 635 211 576 196 q 749 256 694 226 l 810 64 q 715 22 769 40 q 599 -6 661 4 q 468 -15 536 -15 m 426 -281 q 321 -272 372 -281 q 236 -249 269 -264 l 294 -146 q 361 -167 329 -160 q 440 -174 393 -174 q 504 -167 485 -174 q 526 -146 524 -161 q 513 -125 531 -131 q 461 -119 494 -119 q 429 -120 449 -119 q 388 -125 410 -121 l 358 -92 l 396 28 l 525 28 l 492 -83 l 436 -56 q 488 -46 463 -49 q 543 -43 514 -43 q 624 -54 592 -43 q 672 -90 657 -65 q 678 -154 688 -115 q 601 -251 665 -221 q 426 -281 536 -281 z "},"ḉ":{"ha":860,"x_min":44,"x_max":976,"o":"m 468 -15 q 224 35 322 -15 q 85 176 126 86 q 67 382 44 265 q 131 530 85 468 q 244 631 176 592 q 395 688 311 669 q 574 707 479 707 q 751 685 669 707 q 878 628 833 664 l 775 438 q 681 481 735 465 q 572 496 626 496 q 488 488 526 496 q 421 463 450 479 q 372 419 392 446 q 346 356 353 392 q 375 238 331 281 q 518 196 419 196 q 635 211 576 196 q 749 256 694 226 l 810 64 q 715 22 769 40 q 599 -6 661 4 q 468 -15 536 -15 m 426 -281 q 321 -272 372 -281 q 236 -249 269 -264 l 294 -146 q 361 -167 329 -160 q 440 -174 393 -174 q 504 -167 485 -174 q 526 -146 524 -161 q 513 -125 531 -131 q 461 -119 494 -119 q 429 -120 449 -119 q 388 -125 410 -121 l 358 -92 l 396 28 l 525 28 l 492 -83 l 436 -56 q 488 -46 463 -49 q 543 -43 514 -43 q 624 -54 592 -43 q 672 -90 657 -65 q 678 -154 688 -115 q 601 -251 665 -221 q 426 -281 536 -281 m 483 776 l 710 1075 l 976 1075 l 671 776 l 483 776 z "},"ĉ":{"ha":860,"x_min":44,"x_max":899,"o":"m 468 -15 q 224 35 322 -15 q 85 176 126 86 q 67 382 44 265 q 131 530 85 468 q 244 631 176 592 q 395 688 311 669 q 574 707 479 707 q 751 685 669 707 q 878 628 833 664 l 775 438 q 681 481 735 465 q 572 496 626 496 q 488 488 526 496 q 421 463 450 479 q 372 419 392 446 q 346 356 353 392 q 375 238 331 281 q 518 196 419 196 q 635 211 576 196 q 749 256 694 226 l 810 64 q 715 22 769 40 q 599 -6 661 4 q 468 -15 536 -15 m 269 776 l 519 1075 l 754 1075 l 899 776 l 721 776 l 613 939 l 447 776 l 269 776 z "},"ċ":{"ha":860,"x_min":44,"x_max":878,"o":"m 468 -15 q 224 35 322 -15 q 85 176 126 86 q 67 382 44 265 q 131 530 85 468 q 244 631 176 592 q 395 688 311 669 q 574 707 479 707 q 751 685 669 707 q 878 628 833 664 l 775 438 q 681 481 735 465 q 572 496 626 496 q 488 488 526 496 q 421 463 450 479 q 372 419 392 446 q 346 356 353 392 q 375 238 331 281 q 518 196 419 196 q 635 211 576 196 q 749 256 694 226 l 810 64 q 715 22 769 40 q 599 -6 661 4 q 468 -15 536 -15 m 467 808 l 501 1036 l 743 1036 l 708 808 l 467 808 z "},"d":{"ha":1099,"x_min":46,"x_max":1094,"o":"m 401 -15 q 189 38 272 -15 q 76 183 106 90 q 68 390 46 275 q 152 567 92 497 q 303 672 213 638 q 504 707 393 707 q 663 672 592 707 q 764 579 733 638 l 750 579 l 814 979 l 1094 979 l 939 0 l 672 0 l 692 124 l 711 124 q 626 47 678 78 q 517 1 575 17 q 401 -15 458 -15 m 503 189 q 606 205 561 189 q 678 253 650 221 q 717 331 707 285 q 692 457 733 411 q 557 503 650 503 q 456 487 500 503 q 383 439 411 471 q 343 361 354 407 q 369 235 328 282 q 503 189 410 189 z "},"ð":{"ha":1058,"x_min":40,"x_max":1038,"o":"m 475 -15 q 226 28 326 -15 q 83 149 126 71 q 61 333 40 228 q 144 493 82 429 q 302 588 207 557 q 513 619 397 619 q 663 601 600 619 q 767 550 725 582 q 833 476 810 518 l 775 476 q 750 635 789 561 q 619 764 711 710 l 685 761 l 303 624 l 264 739 l 526 833 l 531 810 q 426 843 482 829 q 306 864 371 857 l 356 994 q 573 952 475 979 q 747 886 671 925 l 688 890 l 976 994 l 1014 879 l 832 814 l 824 843 q 992 638 947 763 q 1006 347 1038 513 q 940 187 986 256 q 825 74 893 118 q 668 7 757 29 q 475 -15 579 -15 m 500 185 q 602 197 558 185 q 673 235 646 210 q 708 293 700 260 q 677 385 721 353 q 543 418 633 418 q 441 406 485 418 q 371 369 397 393 q 336 310 344 346 q 367 217 324 250 q 500 185 411 185 z "},"ď":{"ha":1099,"x_min":46,"x_max":1343,"o":"m 401 -15 q 189 38 272 -15 q 76 183 106 90 q 68 390 46 275 q 152 567 92 497 q 303 672 213 638 q 504 707 393 707 q 663 672 592 707 q 764 579 733 638 l 750 579 l 814 979 l 1094 979 l 939 0 l 672 0 l 692 124 l 711 124 q 626 47 678 78 q 517 1 575 17 q 401 -15 458 -15 m 503 189 q 606 205 561 189 q 678 253 650 221 q 717 331 707 285 q 692 457 733 411 q 557 503 650 503 q 456 487 500 503 q 383 439 411 471 q 343 361 354 407 q 369 235 328 282 q 503 189 410 189 m 1118 703 l 1164 979 l 1344 979 l 1251 703 l 1118 703 z "},"đ":{"ha":1103,"x_min":44,"x_max":1222,"o":"m 407 -15 q 189 36 272 -15 q 75 176 106 88 q 67 378 44 264 q 149 549 89 482 q 299 650 208 617 q 506 683 390 683 q 671 649 606 683 q 758 558 736 615 l 746 558 l 775 739 l 460 739 l 486 911 l 801 911 l 813 979 l 1093 979 l 1082 914 l 1222 914 l 1194 739 l 1054 739 l 938 0 l 671 0 l 690 122 l 707 122 q 635 48 682 79 q 530 1 589 17 q 407 -15 471 -15 m 504 183 q 604 198 561 183 q 676 243 647 213 q 715 318 706 274 q 688 439 731 396 q 553 482 646 482 q 453 467 497 482 q 381 422 410 453 q 342 349 353 392 q 369 227 326 271 q 504 183 413 183 z "},"ḍ":{"ha":1099,"x_min":46,"x_max":1094,"o":"m 401 -15 q 189 38 272 -15 q 76 183 106 90 q 68 390 46 275 q 152 567 92 497 q 303 672 213 638 q 504 707 393 707 q 663 672 592 707 q 764 579 733 638 l 750 579 l 814 979 l 1094 979 l 939 0 l 672 0 l 692 124 l 711 124 q 626 47 678 78 q 517 1 575 17 q 401 -15 458 -15 m 503 189 q 606 205 561 189 q 678 253 650 221 q 717 331 707 285 q 692 457 733 411 q 557 503 650 503 q 456 487 500 503 q 383 439 411 471 q 343 361 354 407 q 369 235 328 282 q 503 189 410 189 m 311 -324 l 347 -96 l 589 -96 l 553 -324 l 311 -324 z "},"ɗ":{"ha":1099,"x_min":46,"x_max":1326,"o":"m 401 -15 q 190 38 272 -15 q 76 183 107 90 q 68 390 46 275 q 151 567 90 497 q 302 672 211 638 q 504 707 393 707 q 662 672 592 707 q 761 581 732 638 l 750 581 l 765 685 q 839 848 782 778 q 986 956 896 918 q 1193 994 1076 994 q 1263 992 1231 994 q 1326 981 1296 989 l 1263 775 q 1233 782 1249 781 q 1200 783 1218 783 q 1092 758 1131 783 q 1044 676 1054 733 l 938 0 l 671 0 l 690 122 l 711 124 q 626 47 678 78 q 517 1 575 17 q 401 -15 458 -15 m 503 189 q 603 205 560 189 q 676 253 647 221 q 715 331 706 285 q 691 457 732 411 q 557 503 650 503 q 457 487 501 503 q 383 439 413 471 q 343 361 354 407 q 370 235 328 282 q 503 189 413 189 z "},"ḏ":{"ha":1099,"x_min":46,"x_max":1094,"o":"m 401 -15 q 189 38 272 -15 q 76 183 106 90 q 68 390 46 275 q 152 567 92 497 q 303 672 213 638 q 504 707 393 707 q 663 672 592 707 q 764 579 733 638 l 750 579 l 814 979 l 1094 979 l 939 0 l 672 0 l 692 124 l 711 124 q 626 47 678 78 q 517 1 575 17 q 401 -15 458 -15 m 503 189 q 606 205 561 189 q 678 253 650 221 q 717 331 707 285 q 692 457 733 411 q 557 503 650 503 q 456 487 500 503 q 383 439 411 471 q 343 361 354 407 q 369 235 328 282 q 503 189 410 189 m 143 -264 l 169 -103 l 765 -103 l 739 -264 l 143 -264 z "},"ǆ":{"ha":1968,"x_min":46,"x_max":1981,"o":"m 401 -15 q 189 38 272 -15 q 76 183 106 90 q 68 390 46 275 q 152 567 92 497 q 303 672 213 638 q 504 707 393 707 q 663 672 592 707 q 764 579 733 638 l 750 579 l 814 979 l 1094 979 l 939 0 l 672 0 l 692 124 l 711 124 q 626 47 678 78 q 517 1 575 17 q 401 -15 458 -15 m 503 189 q 606 205 561 189 q 678 253 650 221 q 717 331 707 285 q 692 457 733 411 q 557 503 650 503 q 456 487 500 503 q 383 439 411 471 q 343 361 354 407 q 369 235 328 282 q 503 189 410 189 m 1126 0 l 1157 186 l 1669 560 l 1650 494 l 1206 494 l 1236 692 l 1957 692 l 1928 508 l 1408 136 l 1428 197 l 1899 197 l 1865 0 l 1126 0 m 1496 776 l 1351 1075 l 1529 1075 l 1639 913 l 1803 1075 l 1981 1075 l 1731 776 l 1496 776 z "},"e":{"ha":982,"x_min":44,"x_max":953,"o":"m 521 -15 q 240 34 349 -15 q 88 173 131 83 q 67 379 44 263 q 158 558 92 485 q 328 669 224 632 q 565 707 432 707 q 777 666 688 707 q 910 544 867 625 q 935 346 953 464 l 926 285 l 283 285 l 304 424 l 742 424 l 707 397 q 699 474 714 444 q 649 517 683 503 q 558 532 614 532 q 446 513 493 532 q 370 458 399 494 q 332 364 342 421 l 332 360 q 336 262 322 301 q 402 202 350 222 q 554 182 454 182 q 709 197 635 182 q 835 232 783 211 l 885 56 q 721 4 818 24 q 521 -15 624 -15 z "},"é":{"ha":982,"x_min":44,"x_max":994,"o":"m 521 -15 q 240 34 349 -15 q 88 173 131 83 q 67 379 44 263 q 158 558 92 485 q 328 669 224 632 q 565 707 432 707 q 777 666 688 707 q 910 544 867 625 q 935 346 953 464 l 926 285 l 283 285 l 304 424 l 742 424 l 707 397 q 699 474 714 444 q 649 517 683 503 q 558 532 614 532 q 446 513 493 532 q 370 458 399 494 q 332 364 342 421 l 332 360 q 336 262 322 301 q 402 202 350 222 q 554 182 454 182 q 709 197 635 182 q 835 232 783 211 l 885 56 q 721 4 818 24 q 521 -15 624 -15 m 501 776 l 728 1075 l 994 1075 l 689 776 l 501 776 z "},"ĕ":{"ha":982,"x_min":44,"x_max":958,"o":"m 521 -15 q 240 34 349 -15 q 88 173 131 83 q 67 379 44 263 q 158 558 92 485 q 328 669 224 632 q 565 707 432 707 q 777 666 688 707 q 910 544 867 625 q 935 346 953 464 l 926 285 l 283 285 l 304 424 l 742 424 l 707 397 q 699 474 714 444 q 649 517 683 503 q 558 532 614 532 q 446 513 493 532 q 370 458 399 494 q 332 364 342 421 l 332 360 q 336 262 322 301 q 402 202 350 222 q 554 182 454 182 q 709 197 635 182 q 835 232 783 211 l 885 56 q 721 4 818 24 q 521 -15 624 -15 m 596 774 q 434 807 494 774 q 351 905 374 840 q 342 1064 329 969 l 497 1078 q 524 965 493 997 q 625 932 556 932 q 738 965 694 932 q 804 1078 781 997 l 958 1064 q 889 906 936 971 q 769 807 842 840 q 596 774 696 774 z "},"ě":{"ha":982,"x_min":44,"x_max":967,"o":"m 521 -15 q 240 34 349 -15 q 88 173 131 83 q 67 379 44 263 q 158 558 92 485 q 328 669 224 632 q 565 707 432 707 q 777 666 688 707 q 910 544 867 625 q 935 346 953 464 l 926 285 l 283 285 l 304 424 l 742 424 l 707 397 q 699 474 714 444 q 649 517 683 503 q 558 532 614 532 q 446 513 493 532 q 370 458 399 494 q 332 364 342 421 l 332 360 q 336 262 322 301 q 402 202 350 222 q 554 182 454 182 q 709 197 635 182 q 835 232 783 211 l 885 56 q 721 4 818 24 q 521 -15 624 -15 m 482 776 l 338 1075 l 515 1075 l 625 913 l 789 1075 l 967 1075 l 717 776 l 482 776 z "},"ḝ":{"ha":982,"x_min":44,"x_max":958,"o":"m 521 -15 q 240 34 349 -15 q 88 173 131 83 q 67 379 44 263 q 158 558 92 485 q 328 669 224 632 q 565 707 432 707 q 777 666 688 707 q 910 544 867 625 q 935 346 953 464 l 926 285 l 283 285 l 304 424 l 742 424 l 707 397 q 699 474 714 444 q 649 517 683 503 q 558 532 614 532 q 446 513 493 532 q 370 458 399 494 q 332 364 342 421 l 332 360 q 336 262 322 301 q 402 202 350 222 q 554 182 454 182 q 709 197 635 182 q 835 232 783 211 l 885 56 q 721 4 818 24 q 521 -15 624 -15 m 414 -281 q 308 -272 360 -281 q 224 -249 257 -264 l 282 -146 q 349 -167 317 -160 q 428 -174 381 -174 q 492 -167 472 -174 q 514 -146 511 -161 q 500 -125 518 -131 q 449 -119 482 -119 q 417 -120 436 -119 q 375 -125 397 -121 l 346 -92 l 383 28 l 513 28 l 479 -83 l 424 -56 q 476 -46 450 -49 q 531 -43 501 -43 q 612 -54 579 -43 q 660 -90 644 -65 q 665 -154 675 -115 q 588 -251 653 -221 q 414 -281 524 -281 m 596 774 q 434 807 494 774 q 351 905 374 840 q 342 1064 329 969 l 497 1078 q 524 965 493 997 q 625 932 556 932 q 738 965 694 932 q 804 1078 781 997 l 958 1064 q 889 906 936 971 q 769 807 842 840 q 596 774 696 774 z "},"ê":{"ha":982,"x_min":44,"x_max":953,"o":"m 521 -15 q 240 34 349 -15 q 88 173 131 83 q 67 379 44 263 q 158 558 92 485 q 328 669 224 632 q 565 707 432 707 q 777 666 688 707 q 910 544 867 625 q 935 346 953 464 l 926 285 l 283 285 l 304 424 l 742 424 l 707 397 q 699 474 714 444 q 649 517 683 503 q 558 532 614 532 q 446 513 493 532 q 370 458 399 494 q 332 364 342 421 l 332 360 q 336 262 322 301 q 402 202 350 222 q 554 182 454 182 q 709 197 635 182 q 835 232 783 211 l 885 56 q 721 4 818 24 q 521 -15 624 -15 m 288 776 l 538 1075 l 772 1075 l 917 776 l 739 776 l 631 939 l 465 776 l 288 776 z "},"ế":{"ha":982,"x_min":44,"x_max":1221,"o":"m 521 -15 q 240 34 349 -15 q 88 173 131 83 q 67 379 44 263 q 158 558 92 485 q 328 669 224 632 q 565 707 432 707 q 777 666 688 707 q 910 544 867 625 q 935 346 953 464 l 926 285 l 283 285 l 304 424 l 742 424 l 707 397 q 699 474 714 444 q 649 517 683 503 q 558 532 614 532 q 446 513 493 532 q 370 458 399 494 q 332 364 342 421 l 332 360 q 336 262 322 301 q 402 202 350 222 q 554 182 454 182 q 709 197 635 182 q 835 232 783 211 l 885 56 q 721 4 818 24 q 521 -15 624 -15 m 286 781 l 531 1036 l 761 1036 l 913 781 l 736 781 l 622 906 l 463 781 l 286 781 m 836 950 l 1004 1160 l 1222 1160 l 989 950 l 836 950 z "},"ệ":{"ha":982,"x_min":44,"x_max":953,"o":"m 521 -15 q 240 34 349 -15 q 88 173 131 83 q 67 379 44 263 q 158 558 92 485 q 328 669 224 632 q 565 707 432 707 q 777 666 688 707 q 910 544 867 625 q 935 346 953 464 l 926 285 l 283 285 l 304 424 l 742 424 l 707 397 q 699 474 714 444 q 649 517 683 503 q 558 532 614 532 q 446 513 493 532 q 370 458 399 494 q 332 364 342 421 l 332 360 q 336 262 322 301 q 402 202 350 222 q 554 182 454 182 q 709 197 635 182 q 835 232 783 211 l 885 56 q 721 4 818 24 q 521 -15 624 -15 m 272 -324 l 308 -96 l 550 -96 l 514 -324 l 272 -324 m 288 776 l 538 1075 l 772 1075 l 917 776 l 739 776 l 631 939 l 465 776 l 288 776 z "},"ề":{"ha":982,"x_min":44,"x_max":1056,"o":"m 521 -15 q 240 34 349 -15 q 88 173 131 83 q 67 379 44 263 q 158 558 92 485 q 328 669 224 632 q 565 707 432 707 q 777 666 688 707 q 910 544 867 625 q 935 346 953 464 l 926 285 l 283 285 l 304 424 l 742 424 l 707 397 q 699 474 714 444 q 649 517 683 503 q 558 532 614 532 q 446 513 493 532 q 370 458 399 494 q 332 364 342 421 l 332 360 q 336 262 322 301 q 402 202 350 222 q 554 182 454 182 q 709 197 635 182 q 835 232 783 211 l 885 56 q 721 4 818 24 q 521 -15 624 -15 m 286 781 l 531 1036 l 761 1036 l 911 781 l 735 781 l 621 906 l 463 781 l 286 781 m 903 950 l 747 1160 l 965 1160 l 1056 950 l 903 950 z "},"ể":{"ha":982,"x_min":44,"x_max":1128,"o":"m 521 -15 q 240 34 349 -15 q 88 173 131 83 q 67 379 44 263 q 158 558 92 485 q 328 669 224 632 q 565 707 432 707 q 777 666 688 707 q 910 544 867 625 q 935 346 953 464 l 926 285 l 283 285 l 304 424 l 742 424 l 707 397 q 699 474 714 444 q 649 517 683 503 q 558 532 614 532 q 446 513 493 532 q 370 458 399 494 q 332 364 342 421 l 332 360 q 336 262 322 301 q 402 202 350 222 q 554 182 454 182 q 709 197 635 182 q 835 232 783 211 l 885 56 q 721 4 818 24 q 521 -15 624 -15 m 286 781 l 529 1036 l 760 1036 l 911 781 l 735 781 l 621 906 l 463 781 l 286 781 m 847 950 q 860 983 849 969 q 888 1008 872 996 q 916 1030 904 1021 q 929 1049 928 1039 q 923 1065 933 1060 q 889 1069 913 1069 q 845 1066 865 1069 q 792 1051 825 1063 l 775 1140 q 860 1163 817 1156 q 956 1169 904 1169 q 1086 1149 1044 1169 q 1119 1086 1128 1128 q 1094 1042 1114 1060 q 1052 1011 1075 1025 q 1012 983 1029 997 q 993 950 994 969 l 847 950 z "},"ễ":{"ha":982,"x_min":44,"x_max":994,"o":"m 521 -15 q 240 34 349 -15 q 88 173 131 83 q 67 379 44 263 q 158 558 92 485 q 328 669 224 632 q 565 707 432 707 q 777 666 688 707 q 910 544 867 625 q 935 346 953 464 l 926 285 l 283 285 l 304 424 l 742 424 l 707 397 q 699 474 714 444 q 649 517 683 503 q 558 532 614 532 q 446 513 493 532 q 370 458 399 494 q 332 364 342 421 l 332 360 q 336 262 322 301 q 402 202 350 222 q 554 182 454 182 q 709 197 635 182 q 835 232 783 211 l 885 56 q 721 4 818 24 q 521 -15 624 -15 m 289 781 l 524 986 l 754 986 l 914 781 l 732 781 l 619 875 l 471 781 l 289 781 m 443 1019 l 319 1026 q 364 1115 335 1078 q 440 1174 393 1153 q 550 1194 488 1194 q 623 1185 590 1194 q 685 1167 656 1176 q 733 1153 710 1160 q 783 1146 757 1146 q 840 1159 818 1146 q 872 1193 863 1172 l 994 1188 q 915 1064 974 1108 q 760 1019 856 1019 q 688 1028 718 1019 q 629 1046 657 1036 q 582 1060 606 1054 q 532 1067 558 1067 q 480 1056 506 1067 q 443 1019 454 1044 z "},"ȅ":{"ha":982,"x_min":44,"x_max":953,"o":"m 521 -15 q 240 34 349 -15 q 88 173 131 83 q 67 379 44 263 q 158 558 92 485 q 328 669 224 632 q 565 707 432 707 q 777 666 688 707 q 910 544 867 625 q 935 346 953 464 l 926 285 l 283 285 l 304 424 l 742 424 l 707 397 q 699 474 714 444 q 649 517 683 503 q 558 532 614 532 q 446 513 493 532 q 370 458 399 494 q 332 364 342 421 l 332 360 q 336 262 322 301 q 402 202 350 222 q 554 182 454 182 q 709 197 635 182 q 835 232 783 211 l 885 56 q 721 4 818 24 q 521 -15 624 -15 m 675 776 l 569 1075 l 796 1075 l 821 776 l 675 776 m 386 776 l 281 1075 l 507 1075 l 532 776 l 386 776 z "},"ë":{"ha":982,"x_min":44,"x_max":953,"o":"m 521 -15 q 240 34 349 -15 q 88 173 131 83 q 67 379 44 263 q 158 558 92 485 q 328 669 224 632 q 565 707 432 707 q 777 666 688 707 q 910 544 867 625 q 935 346 953 464 l 926 285 l 283 285 l 304 424 l 742 424 l 707 397 q 699 474 714 444 q 649 517 683 503 q 558 532 614 532 q 446 513 493 532 q 370 458 399 494 q 332 364 342 421 l 332 360 q 336 262 322 301 q 402 202 350 222 q 554 182 454 182 q 709 197 635 182 q 835 232 783 211 l 885 56 q 721 4 818 24 q 521 -15 624 -15 m 671 806 l 707 1033 l 947 1033 l 911 806 l 671 806 m 296 806 l 333 1033 l 574 1033 l 538 806 l 296 806 z "},"ė":{"ha":982,"x_min":44,"x_max":953,"o":"m 521 -15 q 240 34 349 -15 q 88 173 131 83 q 67 379 44 263 q 158 558 92 485 q 328 669 224 632 q 565 707 432 707 q 777 666 688 707 q 910 544 867 625 q 935 346 953 464 l 926 285 l 283 285 l 304 424 l 742 424 l 707 397 q 699 474 714 444 q 649 517 683 503 q 558 532 614 532 q 446 513 493 532 q 370 458 399 494 q 332 364 342 421 l 332 360 q 336 262 322 301 q 402 202 350 222 q 554 182 454 182 q 709 197 635 182 q 835 232 783 211 l 885 56 q 721 4 818 24 q 521 -15 624 -15 m 485 808 l 519 1036 l 761 1036 l 726 808 l 485 808 z "},"ẹ":{"ha":982,"x_min":44,"x_max":953,"o":"m 521 -15 q 240 34 349 -15 q 88 173 131 83 q 67 379 44 263 q 158 558 92 485 q 328 669 224 632 q 565 707 432 707 q 777 666 688 707 q 910 544 867 625 q 935 346 953 464 l 926 285 l 283 285 l 304 424 l 742 424 l 707 397 q 699 474 714 444 q 649 517 683 503 q 558 532 614 532 q 446 513 493 532 q 370 458 399 494 q 332 364 342 421 l 332 360 q 336 262 322 301 q 402 202 350 222 q 554 182 454 182 q 709 197 635 182 q 835 232 783 211 l 885 56 q 721 4 818 24 q 521 -15 624 -15 m 272 -324 l 308 -96 l 550 -96 l 514 -324 l 272 -324 z "},"è":{"ha":982,"x_min":44,"x_max":953,"o":"m 521 -15 q 240 34 349 -15 q 88 173 131 83 q 67 379 44 263 q 158 558 92 485 q 328 669 224 632 q 565 707 432 707 q 777 666 688 707 q 910 544 867 625 q 935 346 953 464 l 926 285 l 283 285 l 304 424 l 742 424 l 707 397 q 699 474 714 444 q 649 517 683 503 q 558 532 614 532 q 446 513 493 532 q 370 458 399 494 q 332 364 342 421 l 332 360 q 336 262 322 301 q 402 202 350 222 q 554 182 454 182 q 709 197 635 182 q 835 232 783 211 l 885 56 q 721 4 818 24 q 521 -15 624 -15 m 510 781 l 308 1074 l 578 1074 l 697 781 l 510 781 z "},"ẻ":{"ha":982,"x_min":44,"x_max":953,"o":"m 521 -15 q 240 34 349 -15 q 88 173 131 83 q 67 379 44 263 q 158 558 92 485 q 328 669 224 632 q 565 707 432 707 q 777 666 688 707 q 910 544 867 625 q 935 346 953 464 l 926 285 l 283 285 l 304 424 l 742 424 l 707 397 q 699 474 714 444 q 649 517 683 503 q 558 532 614 532 q 446 513 493 532 q 370 458 399 494 q 332 364 342 421 l 332 360 q 336 262 322 301 q 402 202 350 222 q 554 182 454 182 q 709 197 635 182 q 835 232 783 211 l 885 56 q 721 4 818 24 q 521 -15 624 -15 m 518 781 l 524 807 q 543 850 526 833 q 580 880 560 867 q 617 905 600 893 q 638 933 633 917 q 627 956 642 949 q 578 964 613 964 q 526 958 551 964 q 471 942 500 953 l 446 1047 q 548 1076 490 1065 q 665 1086 606 1086 q 821 1057 772 1086 q 858 972 869 1028 q 825 913 850 936 q 770 874 800 890 q 717 842 740 858 q 688 799 693 826 l 686 781 l 518 781 z "},"ȇ":{"ha":982,"x_min":44,"x_max":953,"o":"m 521 -15 q 240 34 349 -15 q 88 173 131 83 q 67 379 44 263 q 158 558 92 485 q 328 669 224 632 q 565 707 432 707 q 777 666 688 707 q 910 544 867 625 q 935 346 953 464 l 926 285 l 283 285 l 304 424 l 742 424 l 707 397 q 699 474 714 444 q 649 517 683 503 q 558 532 614 532 q 446 513 493 532 q 370 458 399 494 q 332 364 342 421 l 332 360 q 336 262 322 301 q 402 202 350 222 q 554 182 454 182 q 709 197 635 182 q 835 232 783 211 l 885 56 q 721 4 818 24 q 521 -15 624 -15 m 449 774 l 296 786 q 366 946 319 881 q 485 1044 413 1011 q 658 1078 558 1078 q 819 1044 760 1078 q 902 945 879 1010 q 913 786 925 881 l 756 774 q 728 886 760 853 q 628 919 697 919 q 516 886 558 919 q 449 774 474 853 z "},"ē":{"ha":982,"x_min":44,"x_max":953,"o":"m 521 -15 q 240 34 349 -15 q 88 173 131 83 q 67 379 44 263 q 158 558 92 485 q 328 669 224 632 q 565 707 432 707 q 777 666 688 707 q 910 544 867 625 q 935 346 953 464 l 926 285 l 283 285 l 304 424 l 742 424 l 707 397 q 699 474 714 444 q 649 517 683 503 q 558 532 614 532 q 446 513 493 532 q 370 458 399 494 q 332 364 342 421 l 332 360 q 336 262 322 301 q 402 202 350 222 q 554 182 454 182 q 709 197 635 182 q 835 232 783 211 l 885 56 q 721 4 818 24 q 521 -15 624 -15 m 310 835 l 336 996 l 932 996 l 907 835 l 310 835 z "},"ḗ":{"ha":982,"x_min":44,"x_max":953,"o":"m 521 -15 q 240 34 349 -15 q 88 173 131 83 q 67 379 44 263 q 158 558 92 485 q 328 669 224 632 q 565 707 432 707 q 777 666 688 707 q 910 544 867 625 q 935 346 953 464 l 926 285 l 283 285 l 304 424 l 742 424 l 707 397 q 699 474 714 444 q 649 517 683 503 q 558 532 614 532 q 446 513 493 532 q 370 458 399 494 q 332 364 342 421 l 332 360 q 336 262 322 301 q 402 202 350 222 q 554 182 454 182 q 709 197 635 182 q 835 232 783 211 l 885 56 q 721 4 818 24 q 521 -15 624 -15 m 304 796 l 329 950 l 924 950 l 899 796 l 304 796 m 543 996 l 692 1172 l 951 1172 l 714 996 l 543 996 z "},"ḕ":{"ha":982,"x_min":44,"x_max":953,"o":"m 521 -15 q 240 34 349 -15 q 88 173 131 83 q 67 379 44 263 q 158 558 92 485 q 328 669 224 632 q 565 707 432 707 q 777 666 688 707 q 910 544 867 625 q 935 346 953 464 l 926 285 l 283 285 l 304 424 l 742 424 l 707 397 q 699 474 714 444 q 649 517 683 503 q 558 532 614 532 q 446 513 493 532 q 370 458 399 494 q 332 364 342 421 l 332 360 q 336 262 322 301 q 402 202 350 222 q 554 182 454 182 q 709 197 635 182 q 835 232 783 211 l 885 56 q 721 4 818 24 q 521 -15 624 -15 m 304 796 l 329 950 l 924 950 l 899 796 l 304 796 m 556 996 l 381 1172 l 640 1172 l 726 996 l 556 996 z "},"ę":{"ha":982,"x_min":44,"x_max":953,"o":"m 521 -15 q 240 34 349 -15 q 88 173 131 83 q 67 379 44 263 q 158 558 92 485 q 328 669 224 632 q 565 707 432 707 q 777 666 688 707 q 910 544 867 625 q 935 346 953 464 l 926 285 l 283 285 l 304 424 l 742 424 l 707 397 q 699 474 714 444 q 649 517 683 503 q 558 532 614 532 q 446 513 493 532 q 370 458 399 494 q 332 364 342 421 l 332 360 q 336 262 322 301 q 402 202 350 222 q 554 182 454 182 q 709 197 635 182 q 835 232 783 211 l 885 56 q 721 4 818 24 q 521 -15 624 -15 m 578 -281 q 413 -242 464 -281 q 376 -132 361 -204 q 443 -22 389 -71 q 603 67 497 26 l 668 0 q 610 -28 635 -14 q 572 -58 586 -42 q 553 -92 557 -75 q 569 -133 547 -119 q 635 -147 592 -147 q 683 -143 661 -147 q 733 -132 706 -139 l 738 -254 q 658 -274 694 -268 q 578 -281 622 -281 z "},"ẽ":{"ha":982,"x_min":44,"x_max":1003,"o":"m 521 -15 q 240 34 349 -15 q 88 173 131 83 q 67 379 44 263 q 158 558 92 485 q 328 669 224 632 q 565 707 432 707 q 777 666 688 707 q 910 544 867 625 q 935 346 953 464 l 926 285 l 283 285 l 304 424 l 742 424 l 707 397 q 699 474 714 444 q 649 517 683 503 q 558 532 614 532 q 446 513 493 532 q 370 458 399 494 q 332 364 342 421 l 332 360 q 336 262 322 301 q 402 202 350 222 q 554 182 454 182 q 709 197 635 182 q 835 232 783 211 l 885 56 q 721 4 818 24 q 521 -15 624 -15 m 389 800 l 249 808 q 351 984 278 918 q 519 1050 424 1050 q 601 1034 568 1050 q 663 1001 633 1018 q 706 977 683 988 q 758 967 729 967 q 822 989 799 967 q 863 1056 846 1011 l 1003 1049 q 903 871 975 936 q 732 806 831 806 q 653 822 685 806 q 593 854 621 838 q 546 879 569 868 q 492 890 522 890 q 428 867 450 890 q 389 800 406 843 z "},"ə":{"ha":982,"x_min":28,"x_max":938,"o":"m 419 -15 q 205 27 296 -15 q 71 149 114 69 q 44 343 28 229 l 53 403 l 697 403 l 678 269 l 238 269 l 275 299 q 283 223 269 253 q 333 178 297 193 q 425 164 368 164 q 536 182 489 164 q 613 237 583 200 q 650 328 642 274 l 653 336 q 644 427 660 389 q 577 485 629 465 q 425 506 525 506 q 272 492 347 506 q 142 454 196 479 l 99 636 q 262 688 164 669 q 463 707 360 707 q 745 657 638 707 q 895 517 853 607 q 914 308 938 428 q 824 131 892 204 q 654 22 757 58 q 419 -15 551 -15 z "},"ʒ":{"ha":968,"x_min":-53,"x_max":914,"o":"m 322 -267 q 108 -247 208 -267 q -53 -190 7 -226 l 40 0 q 170 -44 97 -28 q 335 -61 243 -61 q 517 -35 456 -61 q 590 42 579 -8 q 547 125 601 101 q 372 149 493 149 l 197 149 l 217 278 l 640 546 l 625 490 l 86 490 l 117 692 l 914 692 l 885 511 l 501 279 l 414 319 l 513 319 q 726 287 642 319 q 847 189 811 254 q 864 25 882 124 q 771 -139 843 -74 q 584 -235 699 -204 q 322 -267 469 -267 z "},"ǯ":{"ha":968,"x_min":-53,"x_max":914,"o":"m 322 -267 q 108 -247 208 -267 q -53 -190 7 -226 l 40 0 q 170 -44 97 -28 q 335 -61 243 -61 q 517 -35 456 -61 q 590 42 579 -8 q 547 125 601 101 q 372 149 493 149 l 197 149 l 217 278 l 640 546 l 625 490 l 86 490 l 117 692 l 914 692 l 885 511 l 501 279 l 414 319 l 513 319 q 726 287 642 319 q 847 189 811 254 q 864 25 882 124 q 771 -139 843 -74 q 584 -235 699 -204 q 322 -267 469 -267 m 419 776 l 275 1075 l 453 1075 l 563 913 l 726 1075 l 904 1075 l 654 776 l 419 776 z "},"f":{"ha":699,"x_min":31,"x_max":808,"o":"m 115 0 l 194 499 l 31 499 l 61 692 l 300 692 l 211 614 l 215 639 q 291 824 233 751 q 445 935 349 897 q 676 982 542 974 l 808 990 l 792 800 l 661 793 q 572 782 607 792 q 521 754 538 772 q 499 706 504 736 l 486 638 l 439 692 l 735 692 l 704 499 l 475 499 l 396 0 l 115 0 z "},"g":{"ha":1096,"x_min":31,"x_max":1044,"o":"m 396 -265 q 178 -244 278 -265 q 31 -185 78 -224 l 117 3 q 197 -33 146 -18 q 308 -56 247 -47 q 426 -64 368 -64 q 611 -25 550 -64 q 686 89 672 14 l 696 157 l 708 157 q 635 86 682 117 q 531 40 589 56 q 411 24 474 24 q 197 74 281 24 q 82 211 114 124 q 72 413 50 299 q 127 547 89 492 q 222 638 165 603 q 352 690 279 674 q 510 707 425 707 q 680 671 610 707 q 771 575 750 635 l 761 574 l 779 692 l 1044 692 l 956 119 q 865 -95 935 -10 q 677 -223 794 -181 q 396 -265 560 -265 m 510 226 q 611 240 567 226 q 685 282 656 253 q 724 351 714 311 q 693 463 738 422 q 557 504 649 504 q 456 490 500 504 q 383 449 411 476 q 344 381 354 422 q 374 267 331 308 q 510 226 418 226 z "},"ğ":{"ha":1096,"x_min":31,"x_max":1044,"o":"m 396 -265 q 178 -244 278 -265 q 31 -185 78 -224 l 117 3 q 197 -33 146 -18 q 308 -56 247 -47 q 426 -64 368 -64 q 611 -25 550 -64 q 686 89 672 14 l 696 157 l 708 157 q 635 86 682 117 q 531 40 589 56 q 411 24 474 24 q 197 74 281 24 q 82 211 114 124 q 72 413 50 299 q 127 547 89 492 q 222 638 165 603 q 352 690 279 674 q 510 707 425 707 q 680 671 610 707 q 771 575 750 635 l 761 574 l 779 692 l 1044 692 l 956 119 q 865 -95 935 -10 q 677 -223 794 -181 q 396 -265 560 -265 m 510 226 q 611 240 567 226 q 685 282 656 253 q 724 351 714 311 q 693 463 738 422 q 557 504 649 504 q 456 490 500 504 q 383 449 411 476 q 344 381 354 422 q 374 267 331 308 q 510 226 418 226 m 613 774 q 451 807 511 774 q 368 905 390 840 q 358 1064 346 969 l 514 1078 q 541 965 510 997 q 642 932 572 932 q 754 965 711 932 q 821 1078 797 997 l 975 1064 q 906 906 953 971 q 785 807 858 840 q 613 774 713 774 z "},"ǧ":{"ha":1096,"x_min":31,"x_max":1044,"o":"m 396 -265 q 178 -244 278 -265 q 31 -185 78 -224 l 117 3 q 197 -33 146 -18 q 308 -56 247 -47 q 426 -64 368 -64 q 611 -25 550 -64 q 686 89 672 14 l 696 157 l 708 157 q 635 86 682 117 q 531 40 589 56 q 411 24 474 24 q 197 74 281 24 q 82 211 114 124 q 72 413 50 299 q 127 547 89 492 q 222 638 165 603 q 352 690 279 674 q 510 707 425 707 q 680 671 610 707 q 771 575 750 635 l 761 574 l 779 692 l 1044 692 l 956 119 q 865 -95 935 -10 q 677 -223 794 -181 q 396 -265 560 -265 m 510 226 q 611 240 567 226 q 685 282 656 253 q 724 351 714 311 q 693 463 738 422 q 557 504 649 504 q 456 490 500 504 q 383 449 411 476 q 344 381 354 422 q 374 267 331 308 q 510 226 418 226 m 499 776 l 354 1075 l 532 1075 l 642 913 l 806 1075 l 983 1075 l 733 776 l 499 776 z "},"ĝ":{"ha":1096,"x_min":31,"x_max":1044,"o":"m 396 -265 q 178 -244 278 -265 q 31 -185 78 -224 l 117 3 q 197 -33 146 -18 q 308 -56 247 -47 q 426 -64 368 -64 q 611 -25 550 -64 q 686 89 672 14 l 696 157 l 708 157 q 635 86 682 117 q 531 40 589 56 q 411 24 474 24 q 197 74 281 24 q 82 211 114 124 q 72 413 50 299 q 127 547 89 492 q 222 638 165 603 q 352 690 279 674 q 510 707 425 707 q 680 671 610 707 q 771 575 750 635 l 761 574 l 779 692 l 1044 692 l 956 119 q 865 -95 935 -10 q 677 -223 794 -181 q 396 -265 560 -265 m 510 226 q 611 240 567 226 q 685 282 656 253 q 724 351 714 311 q 693 463 738 422 q 557 504 649 504 q 456 490 500 504 q 383 449 411 476 q 344 381 354 422 q 374 267 331 308 q 510 226 418 226 m 304 776 l 554 1075 l 789 1075 l 933 776 l 756 776 l 647 939 l 482 776 l 304 776 z "},"ģ":{"ha":1096,"x_min":31,"x_max":1044,"o":"m 396 -265 q 178 -244 278 -265 q 31 -185 78 -224 l 117 3 q 197 -33 146 -18 q 308 -56 247 -47 q 426 -64 368 -64 q 611 -25 550 -64 q 686 89 672 14 l 696 157 l 708 157 q 635 86 682 117 q 531 40 589 56 q 411 24 474 24 q 197 74 281 24 q 82 211 114 124 q 72 413 50 299 q 127 547 89 492 q 222 638 165 603 q 352 690 279 674 q 510 707 425 707 q 680 671 610 707 q 771 575 750 635 l 761 574 l 779 692 l 1044 692 l 956 119 q 865 -95 935 -10 q 677 -223 794 -181 q 396 -265 560 -265 m 510 226 q 611 240 567 226 q 685 282 656 253 q 724 351 714 311 q 693 463 738 422 q 557 504 649 504 q 456 490 500 504 q 383 449 411 476 q 344 381 354 422 q 374 267 331 308 q 510 226 418 226 m 507 789 l 529 924 q 578 1042 540 986 q 683 1150 617 1099 l 744 1097 q 669 1017 694 1053 q 638 947 644 981 l 600 986 l 760 986 l 728 789 l 507 789 z "},"ġ":{"ha":1096,"x_min":31,"x_max":1044,"o":"m 396 -265 q 178 -244 278 -265 q 31 -185 78 -224 l 117 3 q 197 -33 146 -18 q 308 -56 247 -47 q 426 -64 368 -64 q 611 -25 550 -64 q 686 89 672 14 l 696 157 l 708 157 q 635 86 682 117 q 531 40 589 56 q 411 24 474 24 q 197 74 281 24 q 82 211 114 124 q 72 413 50 299 q 127 547 89 492 q 222 638 165 603 q 352 690 279 674 q 510 707 425 707 q 680 671 610 707 q 771 575 750 635 l 761 574 l 779 692 l 1044 692 l 956 119 q 865 -95 935 -10 q 677 -223 794 -181 q 396 -265 560 -265 m 510 226 q 611 240 567 226 q 685 282 656 253 q 724 351 714 311 q 693 463 738 422 q 557 504 649 504 q 456 490 500 504 q 383 449 411 476 q 344 381 354 422 q 374 267 331 308 q 510 226 418 226 m 501 808 l 536 1036 l 778 1036 l 743 808 l 501 808 z "},"ḡ":{"ha":1096,"x_min":31,"x_max":1044,"o":"m 396 -265 q 178 -244 278 -265 q 31 -185 78 -224 l 117 3 q 197 -33 146 -18 q 308 -56 247 -47 q 426 -64 368 -64 q 611 -25 550 -64 q 686 89 672 14 l 696 157 l 708 157 q 635 86 682 117 q 531 40 589 56 q 411 24 474 24 q 197 74 281 24 q 82 211 114 124 q 72 413 50 299 q 127 547 89 492 q 222 638 165 603 q 352 690 279 674 q 510 707 425 707 q 680 671 610 707 q 771 575 750 635 l 761 574 l 779 692 l 1044 692 l 956 119 q 865 -95 935 -10 q 677 -223 794 -181 q 396 -265 560 -265 m 510 226 q 611 240 567 226 q 685 282 656 253 q 724 351 714 311 q 693 463 738 422 q 557 504 649 504 q 456 490 500 504 q 383 449 411 476 q 344 381 354 422 q 374 267 331 308 q 510 226 418 226 m 326 835 l 353 996 l 949 996 l 924 835 l 326 835 z "},"ǥ":{"ha":1096,"x_min":28,"x_max":1046,"o":"m 388 -265 q 169 -243 268 -265 q 28 -182 69 -221 l 104 -24 q 185 -58 133 -46 q 297 -76 236 -71 q 417 -82 358 -82 q 535 -71 486 -82 q 619 -37 585 -60 l 639 -50 l 421 -50 l 438 54 l 683 54 l 674 44 q 681 68 678 56 q 686 93 683 81 l 706 210 l 719 210 q 649 141 696 171 q 544 94 603 111 q 422 78 485 78 q 208 119 293 78 q 89 237 124 160 q 75 422 54 314 q 131 560 90 506 q 231 647 172 615 q 363 693 290 679 q 514 707 435 707 q 683 671 614 707 q 772 575 753 635 l 761 572 l 781 692 l 1046 692 l 957 125 q 947 77 953 101 q 936 32 942 53 l 918 54 l 1046 54 l 1029 -50 l 876 -50 l 908 -32 q 713 -210 844 -156 q 388 -265 581 -265 m 517 257 q 614 269 569 257 q 688 308 658 281 q 726 381 718 336 q 692 477 739 444 q 556 510 646 510 q 459 499 503 510 q 385 464 415 489 q 347 397 356 439 q 358 321 340 353 q 416 273 375 289 q 517 257 457 257 z "},"h":{"ha":1076,"x_min":50,"x_max":996,"o":"m 50 0 l 206 979 l 479 979 l 415 564 l 403 564 q 542 672 465 638 q 717 707 619 707 q 883 670 819 707 q 972 558 947 633 q 976 364 996 482 l 919 0 l 639 0 l 694 351 q 693 435 704 407 q 655 476 682 464 q 588 489 628 489 q 492 468 536 489 q 419 414 447 447 q 386 342 392 381 l 331 0 l 50 0 z "},"ħ":{"ha":1082,"x_min":31,"x_max":999,"o":"m 56 0 l 172 739 l 31 739 l 58 914 l 200 914 l 211 979 l 485 979 l 474 911 l 793 911 l 767 739 l 447 739 l 414 535 l 392 535 q 538 647 454 610 q 724 683 621 683 q 888 646 825 683 q 974 535 950 608 q 982 356 999 463 l 925 0 l 644 0 l 700 344 q 697 413 707 386 q 659 452 686 439 q 586 465 632 465 q 492 449 535 465 q 423 403 450 432 q 390 336 396 375 l 336 0 l 56 0 z "},"ḫ":{"ha":1076,"x_min":50,"x_max":996,"o":"m 50 0 l 206 979 l 479 979 l 415 564 l 403 564 q 542 672 465 638 q 717 707 619 707 q 883 670 819 707 q 972 558 947 633 q 976 364 996 482 l 919 0 l 639 0 l 694 351 q 693 435 704 407 q 655 476 682 464 q 588 489 628 489 q 492 468 536 489 q 419 414 447 447 q 386 342 392 381 l 331 0 l 50 0 m 432 -299 q 219 -237 289 -299 q 163 -67 150 -176 l 318 -53 q 356 -122 319 -99 q 461 -144 392 -144 q 575 -122 531 -144 q 638 -53 619 -99 l 788 -67 q 668 -237 761 -175 q 432 -299 575 -299 z "},"ȟ":{"ha":1076,"x_min":50,"x_max":1026,"o":"m 50 0 l 206 979 l 479 979 l 415 564 l 403 564 q 542 672 465 638 q 717 707 619 707 q 883 670 819 707 q 972 558 947 633 q 976 364 996 482 l 919 0 l 639 0 l 694 351 q 693 435 704 407 q 655 476 682 464 q 588 489 628 489 q 492 468 536 489 q 419 414 447 447 q 386 342 392 381 l 331 0 l 50 0 m 536 1063 l 368 1319 l 564 1319 l 676 1196 l 836 1319 l 1026 1319 l 767 1063 l 536 1063 z "},"ĥ":{"ha":1076,"x_min":50,"x_max":996,"o":"m 50 0 l 206 979 l 479 979 l 415 564 l 403 564 q 542 672 465 638 q 717 707 619 707 q 883 670 819 707 q 972 558 947 633 q 976 364 996 482 l 919 0 l 639 0 l 694 351 q 693 435 704 407 q 655 476 682 464 q 588 489 628 489 q 492 468 536 489 q 419 414 447 447 q 386 342 392 381 l 331 0 l 50 0 m 325 1063 l 583 1318 l 814 1318 l 982 1063 l 790 1063 l 675 1185 l 517 1063 l 325 1063 z "},"ḥ":{"ha":1076,"x_min":50,"x_max":996,"o":"m 50 0 l 206 979 l 479 979 l 415 564 l 403 564 q 542 672 465 638 q 717 707 619 707 q 883 670 819 707 q 972 558 947 633 q 976 364 996 482 l 919 0 l 639 0 l 694 351 q 693 435 704 407 q 655 476 682 464 q 588 489 628 489 q 492 468 536 489 q 419 414 447 447 q 386 342 392 381 l 331 0 l 50 0 m 314 -324 l 350 -96 l 592 -96 l 556 -324 l 314 -324 z "},"i":{"ha":490,"x_min":50,"x_max":501,"o":"m 171 801 l 210 1042 l 501 1042 l 464 801 l 171 801 m 50 0 l 160 692 l 440 692 l 331 0 l 50 0 z "},"ı":{"ha":490,"x_min":50,"x_max":440,"o":"m 50 0 l 160 692 l 440 692 l 331 0 l 50 0 z "},"í":{"ha":490,"x_min":50,"x_max":708,"o":"m 50 0 l 160 692 l 440 692 l 331 0 l 50 0 m 215 776 l 442 1075 l 708 1075 l 403 776 l 215 776 z "},"ĭ":{"ha":490,"x_min":43,"x_max":672,"o":"m 50 0 l 160 692 l 440 692 l 331 0 l 50 0 m 310 774 q 148 807 208 774 q 65 905 88 840 q 56 1064 43 969 l 211 1078 q 238 965 207 997 q 339 932 269 932 q 451 965 408 932 q 518 1078 494 997 l 672 1064 q 603 906 650 971 q 483 807 556 840 q 310 774 410 774 z "},"î":{"ha":490,"x_min":1,"x_max":631,"o":"m 50 0 l 160 692 l 440 692 l 331 0 l 50 0 m 1 776 l 251 1075 l 486 1075 l 631 776 l 453 776 l 344 939 l 179 776 l 1 776 z "},"ȉ":{"ha":490,"x_min":-6,"x_max":535,"o":"m 50 0 l 160 692 l 440 692 l 331 0 l 50 0 m 389 776 l 283 1075 l 510 1075 l 535 776 l 389 776 m 100 776 l -6 1075 l 221 1075 l 246 776 l 100 776 z "},"ï":{"ha":490,"x_min":10,"x_max":661,"o":"m 50 0 l 160 692 l 440 692 l 331 0 l 50 0 m 385 806 l 421 1033 l 661 1033 l 625 806 l 385 806 m 10 806 l 47 1033 l 288 1033 l 251 806 l 10 806 z "},"ḯ":{"ha":490,"x_min":11,"x_max":665,"o":"m 50 0 l 160 692 l 440 692 l 331 0 l 50 0 m 257 981 l 406 1157 l 665 1157 l 428 981 l 257 981 m 11 781 l 36 939 l 278 939 l 251 781 l 11 781 m 376 781 l 401 939 l 643 939 l 617 781 l 376 781 z "},"ị":{"ha":490,"x_min":21,"x_max":501,"o":"m 171 801 l 210 1042 l 501 1042 l 464 801 l 171 801 m 50 0 l 160 692 l 440 692 l 331 0 l 50 0 m 21 -324 l 57 -96 l 299 -96 l 263 -324 l 21 -324 z "},"ì":{"ha":490,"x_min":22,"x_max":440,"o":"m 50 0 l 160 692 l 440 692 l 331 0 l 50 0 m 224 781 l 22 1074 l 292 1074 l 411 781 l 224 781 z "},"ỉ":{"ha":490,"x_min":50,"x_max":583,"o":"m 50 0 l 160 692 l 440 692 l 331 0 l 50 0 m 232 781 l 238 807 q 257 850 240 833 q 294 880 274 867 q 331 905 314 893 q 351 933 347 917 q 341 956 356 949 q 292 964 326 964 q 240 958 265 964 q 185 942 214 953 l 160 1047 q 262 1076 204 1065 q 379 1086 319 1086 q 535 1057 486 1086 q 572 972 583 1028 q 539 913 564 936 q 484 874 514 890 q 431 842 454 858 q 401 799 407 826 l 400 781 l 232 781 z "},"ȋ":{"ha":490,"x_min":10,"x_max":639,"o":"m 50 0 l 160 692 l 440 692 l 331 0 l 50 0 m 163 774 l 10 786 q 80 946 33 881 q 199 1044 126 1011 q 372 1078 272 1078 q 533 1044 474 1078 q 616 945 593 1010 q 626 786 639 881 l 469 774 q 442 886 474 853 q 342 919 411 919 q 230 886 272 919 q 163 774 188 853 z "},"ĳ":{"ha":979,"x_min":50,"x_max":993,"o":"m 171 801 l 210 1042 l 501 1042 l 464 801 l 171 801 m 50 0 l 160 692 l 440 692 l 331 0 l 50 0 m 663 801 l 700 1042 l 993 1042 l 954 801 l 663 801 m 313 -268 l 332 -72 l 428 -64 q 510 -37 481 -58 q 547 33 540 -15 l 653 692 l 932 692 l 833 64 q 797 -66 822 -8 q 724 -165 772 -124 q 599 -230 676 -206 q 407 -261 522 -254 l 313 -268 z "},"ī":{"ha":490,"x_min":24,"x_max":646,"o":"m 50 0 l 160 692 l 440 692 l 331 0 l 50 0 m 24 835 l 50 996 l 646 996 l 621 835 l 24 835 z "},"į":{"ha":490,"x_min":-33,"x_max":501,"o":"m 50 0 l 160 692 l 440 692 l 331 0 l 50 0 m 171 801 l 210 1042 l 501 1042 l 463 801 l 171 801 m 183 -281 q 18 -242 69 -281 q -18 -132 -33 -204 q 49 -22 -6 -71 q 208 67 103 26 l 274 0 q 216 -28 240 -14 q 177 -58 192 -42 q 158 -92 163 -75 q 175 -133 153 -119 q 240 -147 197 -147 q 289 -143 267 -147 q 339 -132 311 -139 l 343 -254 q 264 -274 300 -268 q 183 -281 228 -281 z "},"ĩ":{"ha":490,"x_min":-37,"x_max":717,"o":"m 50 0 l 160 692 l 440 692 l 331 0 l 50 0 m 103 800 l -37 808 q 65 984 -8 918 q 233 1050 138 1050 q 315 1034 282 1050 q 376 1001 347 1018 q 420 977 397 988 q 472 967 443 967 q 536 989 513 967 q 576 1056 560 1011 l 717 1049 q 617 871 689 936 q 446 806 544 806 q 367 822 399 806 q 307 854 335 838 q 260 879 283 868 q 206 890 236 890 q 142 867 164 890 q 103 800 119 843 z "},"j":{"ha":488,"x_min":-178,"x_max":503,"o":"m 172 801 l 210 1042 l 503 1042 l 464 801 l 172 801 m -178 -268 l -158 -72 l -62 -64 q 20 -37 -10 -58 q 57 33 50 -15 l 163 692 l 442 692 l 343 64 q 307 -66 332 -8 q 234 -165 282 -124 q 109 -230 186 -206 q -83 -261 32 -254 l -178 -268 z "},"ȷ":{"ha":488,"x_min":-178,"x_max":442,"o":"m -178 -268 l -158 -72 l -62 -64 q 20 -37 -10 -58 q 57 33 50 -15 l 163 692 l 442 692 l 343 64 q 307 -66 332 -8 q 234 -165 282 -124 q 109 -230 186 -206 q -83 -261 32 -254 l -178 -268 z "},"ĵ":{"ha":488,"x_min":-178,"x_max":632,"o":"m -178 -268 l -158 -72 l -62 -64 q 20 -37 -10 -58 q 57 33 50 -15 l 163 692 l 442 692 l 343 64 q 307 -66 332 -8 q 234 -165 282 -124 q 109 -230 186 -206 q -83 -261 32 -254 l -178 -268 m 3 776 l 253 1075 l 488 1075 l 632 776 l 454 776 l 346 939 l 181 776 l 3 776 z "},"k":{"ha":994,"x_min":49,"x_max":1069,"o":"m 49 0 l 206 979 l 486 979 l 396 414 l 400 414 l 717 692 l 1069 692 l 599 319 l 603 392 l 978 0 l 640 0 l 379 276 l 374 276 l 329 0 l 49 0 z "},"ǩ":{"ha":994,"x_min":49,"x_max":1069,"o":"m 49 0 l 206 979 l 486 979 l 396 414 l 400 414 l 717 692 l 1069 692 l 599 319 l 603 392 l 978 0 l 640 0 l 379 276 l 374 276 l 329 0 l 49 0 m 536 1063 l 368 1319 l 564 1319 l 676 1196 l 836 1319 l 1026 1319 l 767 1063 l 536 1063 z "},"ķ":{"ha":994,"x_min":49,"x_max":1069,"o":"m 49 0 l 206 979 l 486 979 l 396 414 l 400 414 l 717 692 l 1069 692 l 599 319 l 603 392 l 978 0 l 640 0 l 379 276 l 374 276 l 329 0 l 49 0 m 368 -450 l 306 -396 q 383 -314 357 -350 q 414 -244 408 -278 l 451 -283 l 292 -283 l 324 -86 l 544 -86 l 524 -221 q 474 -340 513 -285 q 368 -450 436 -396 z "},"ĸ":{"ha":994,"x_min":50,"x_max":1071,"o":"m 50 0 l 160 692 l 440 692 l 397 414 l 401 414 l 718 692 l 1071 692 l 600 319 l 604 392 l 979 0 l 642 0 l 381 276 l 375 276 l 331 0 l 50 0 z "},"l":{"ha":601,"x_min":69,"x_max":557,"o":"m 371 -15 q 136 58 203 -15 q 93 278 69 132 l 206 979 l 486 979 l 376 297 q 382 247 372 268 q 417 213 392 225 q 481 201 442 201 q 524 204 501 201 q 557 210 546 207 l 531 6 q 455 -10 494 -6 q 371 -15 415 -15 z "},"ĺ":{"ha":601,"x_min":69,"x_max":792,"o":"m 371 -15 q 136 58 203 -15 q 93 278 69 132 l 206 979 l 486 979 l 376 297 q 382 247 372 268 q 417 213 392 225 q 481 201 442 201 q 524 204 501 201 q 557 210 546 207 l 531 6 q 455 -10 494 -6 q 371 -15 415 -15 m 260 1063 l 511 1318 l 793 1318 l 457 1063 l 260 1063 z "},"ľ":{"ha":601,"x_min":69,"x_max":736,"o":"m 371 -15 q 136 58 203 -15 q 93 278 69 132 l 206 979 l 486 979 l 376 297 q 382 247 372 268 q 417 213 392 225 q 481 201 442 201 q 524 204 501 201 q 557 210 546 207 l 531 6 q 455 -10 494 -6 q 371 -15 415 -15 m 510 703 l 556 979 l 736 979 l 643 703 l 510 703 z "},"ļ":{"ha":601,"x_min":69,"x_max":557,"o":"m 371 -15 q 136 58 203 -15 q 93 278 69 132 l 206 979 l 486 979 l 376 297 q 382 247 372 268 q 417 213 392 225 q 481 201 442 201 q 524 204 501 201 q 557 210 546 207 l 531 6 q 455 -10 494 -6 q 371 -15 415 -15 m 221 -450 l 158 -396 q 235 -314 210 -350 q 267 -244 261 -278 l 304 -283 l 144 -283 l 176 -86 l 397 -86 l 376 -221 q 327 -340 365 -285 q 221 -450 289 -396 z "},"ŀ":{"ha":775,"x_min":69,"x_max":831,"o":"m 371 -15 q 136 58 203 -15 q 93 278 69 132 l 206 979 l 486 979 l 376 297 q 382 247 372 268 q 417 213 392 225 q 481 201 442 201 q 524 204 501 201 q 557 210 546 207 l 531 6 q 455 -10 494 -6 q 371 -15 415 -15 m 493 376 l 532 617 l 829 617 l 792 376 l 493 376 z "},"ḷ":{"ha":601,"x_min":69,"x_max":557,"o":"m 371 -15 q 136 58 203 -15 q 93 278 69 132 l 206 979 l 486 979 l 376 297 q 382 247 372 268 q 417 213 392 225 q 481 201 442 201 q 524 204 501 201 q 557 210 546 207 l 531 6 q 455 -10 494 -6 q 371 -15 415 -15 m 128 -324 l 164 -96 l 406 -96 l 369 -324 l 128 -324 z "},"ǉ":{"ha":1089,"x_min":69,"x_max":1104,"o":"m 371 -15 q 136 58 203 -15 q 93 278 69 132 l 206 979 l 486 979 l 376 297 q 382 247 372 268 q 417 213 392 225 q 481 201 442 201 q 524 204 501 201 q 557 210 546 207 l 531 6 q 455 -10 494 -6 q 371 -15 415 -15 m 774 801 l 811 1042 l 1104 1042 l 1065 801 l 774 801 m 424 -268 l 443 -72 l 539 -64 q 622 -37 592 -58 q 658 33 651 -15 l 764 692 l 1043 692 l 944 64 q 908 -66 933 -8 q 835 -165 883 -124 q 710 -230 788 -206 q 518 -261 633 -254 l 424 -268 z "},"ḻ":{"ha":601,"x_min":-40,"x_max":582,"o":"m 371 -15 q 136 58 203 -15 q 93 278 69 132 l 206 979 l 486 979 l 376 297 q 382 247 372 268 q 417 213 392 225 q 481 201 442 201 q 524 204 501 201 q 557 210 546 207 l 531 6 q 455 -10 494 -6 q 371 -15 415 -15 m -40 -264 l -14 -103 l 582 -103 l 556 -264 l -40 -264 z "},"ł":{"ha":601,"x_min":-61,"x_max":628,"o":"m 371 -15 q 136 58 203 -15 q 93 278 69 132 l 206 979 l 486 979 l 376 297 q 382 247 372 268 q 417 213 392 225 q 481 201 442 201 q 524 204 501 201 q 557 210 546 207 l 531 6 q 455 -10 494 -6 q 371 -15 415 -15 m -1 257 l -60 432 l 571 736 l 628 560 l -1 257 z "},"m":{"ha":1601,"x_min":53,"x_max":1517,"o":"m 53 0 l 163 692 l 426 692 l 406 558 l 393 558 q 531 669 453 632 q 704 707 608 707 q 863 672 800 707 q 944 568 926 638 l 933 564 q 1070 669 990 632 q 1249 707 1150 707 q 1410 671 1349 707 q 1494 559 1471 635 q 1499 364 1517 483 l 1442 0 l 1163 0 l 1218 354 q 1219 436 1228 407 q 1188 477 1211 465 q 1129 489 1165 489 q 1040 468 1081 489 q 973 415 999 447 q 940 346 947 382 l 885 0 l 608 0 l 665 354 q 665 436 674 407 q 633 477 657 465 q 575 489 610 489 q 506 477 539 489 q 448 444 474 465 q 407 399 422 424 q 388 346 392 374 l 332 0 l 53 0 z "},"ṃ":{"ha":1601,"x_min":53,"x_max":1517,"o":"m 53 0 l 163 692 l 426 692 l 406 558 l 393 558 q 531 669 453 632 q 704 707 608 707 q 863 672 800 707 q 944 568 926 638 l 933 564 q 1070 669 990 632 q 1249 707 1150 707 q 1410 671 1349 707 q 1494 559 1471 635 q 1499 364 1517 483 l 1442 0 l 1163 0 l 1218 354 q 1219 436 1228 407 q 1188 477 1211 465 q 1129 489 1165 489 q 1040 468 1081 489 q 973 415 999 447 q 940 346 947 382 l 885 0 l 608 0 l 665 354 q 665 436 674 407 q 633 477 657 465 q 575 489 610 489 q 506 477 539 489 q 448 444 474 465 q 407 399 422 424 q 388 346 392 374 l 332 0 l 53 0 m 576 -324 l 613 -96 l 854 -96 l 818 -324 l 576 -324 z "},"n":{"ha":1076,"x_min":50,"x_max":996,"o":"m 50 0 l 160 692 l 426 692 l 406 558 l 392 558 q 537 671 454 635 q 717 707 619 707 q 883 670 819 707 q 972 558 947 633 q 976 364 996 482 l 919 0 l 639 0 l 694 351 q 693 435 704 407 q 655 476 682 464 q 588 489 628 489 q 492 468 536 489 q 419 414 447 447 q 386 342 392 381 l 331 0 l 50 0 z "},"ń":{"ha":1076,"x_min":50,"x_max":1007,"o":"m 50 0 l 160 692 l 426 692 l 406 558 l 392 558 q 537 671 454 635 q 717 707 619 707 q 883 670 819 707 q 972 558 947 633 q 976 364 996 482 l 919 0 l 639 0 l 694 351 q 693 435 704 407 q 655 476 682 464 q 588 489 628 489 q 492 468 536 489 q 419 414 447 447 q 386 342 392 381 l 331 0 l 50 0 m 514 776 l 740 1075 l 1007 1075 l 701 776 l 514 776 z "},"ŉ":{"ha":1124,"x_min":-8,"x_max":1046,"o":"m 65 746 l 7 803 q 84 881 58 846 q 117 950 110 917 l 154 911 l -8 911 l 22 1108 l 247 1108 l 226 971 q 176 852 215 906 q 65 746 136 799 m 99 0 l 208 692 l 475 692 l 454 558 l 440 558 q 585 671 503 635 q 765 707 668 707 q 932 670 868 707 q 1020 558 996 633 q 1025 364 1044 482 l 968 0 l 688 0 l 743 351 q 742 435 753 407 q 703 476 731 464 q 636 489 676 489 q 540 468 585 489 q 468 414 496 447 q 435 342 440 381 l 379 0 l 99 0 z "},"ň":{"ha":1076,"x_min":50,"x_max":996,"o":"m 50 0 l 160 692 l 426 692 l 406 558 l 392 558 q 537 671 454 635 q 717 707 619 707 q 883 670 819 707 q 972 558 947 633 q 976 364 996 482 l 919 0 l 639 0 l 694 351 q 693 435 704 407 q 655 476 682 464 q 588 489 628 489 q 492 468 536 489 q 419 414 447 447 q 386 342 392 381 l 331 0 l 50 0 m 494 776 l 350 1075 l 528 1075 l 638 913 l 801 1075 l 979 1075 l 729 776 l 494 776 z "},"ņ":{"ha":1076,"x_min":50,"x_max":996,"o":"m 50 0 l 160 692 l 426 692 l 406 558 l 392 558 q 537 671 454 635 q 717 707 619 707 q 883 670 819 707 q 972 558 947 633 q 976 364 996 482 l 919 0 l 639 0 l 694 351 q 693 435 704 407 q 655 476 682 464 q 588 489 628 489 q 492 468 536 489 q 419 414 447 447 q 386 342 392 381 l 331 0 l 50 0 m 404 -450 l 342 -396 q 419 -314 393 -350 q 450 -244 444 -278 l 488 -283 l 328 -283 l 360 -86 l 581 -86 l 560 -221 q 510 -340 549 -285 q 404 -450 472 -396 z "},"ṅ":{"ha":1076,"x_min":50,"x_max":996,"o":"m 50 0 l 160 692 l 426 692 l 406 558 l 392 558 q 537 671 454 635 q 717 707 619 707 q 883 670 819 707 q 972 558 947 633 q 976 364 996 482 l 919 0 l 639 0 l 694 351 q 693 435 704 407 q 655 476 682 464 q 588 489 628 489 q 492 468 536 489 q 419 414 447 447 q 386 342 392 381 l 331 0 l 50 0 m 497 808 l 532 1036 l 774 1036 l 739 808 l 497 808 z "},"ṇ":{"ha":1076,"x_min":50,"x_max":996,"o":"m 50 0 l 160 692 l 426 692 l 406 558 l 392 558 q 537 671 454 635 q 717 707 619 707 q 883 670 819 707 q 972 558 947 633 q 976 364 996 482 l 919 0 l 639 0 l 694 351 q 693 435 704 407 q 655 476 682 464 q 588 489 628 489 q 492 468 536 489 q 419 414 447 447 q 386 342 392 381 l 331 0 l 50 0 m 311 -324 l 347 -96 l 589 -96 l 553 -324 l 311 -324 z "},"ǌ":{"ha":1565,"x_min":50,"x_max":1579,"o":"m 50 0 l 160 692 l 426 692 l 406 558 l 392 558 q 537 671 454 635 q 717 707 619 707 q 883 670 819 707 q 972 558 947 633 q 976 364 996 482 l 919 0 l 639 0 l 694 351 q 693 435 704 407 q 655 476 682 464 q 588 489 628 489 q 492 468 536 489 q 419 414 447 447 q 386 342 392 381 l 331 0 l 50 0 m 1249 801 l 1286 1042 l 1579 1042 l 1540 801 l 1249 801 m 899 -268 l 918 -72 l 1014 -64 q 1097 -37 1067 -58 q 1133 33 1126 -15 l 1239 692 l 1518 692 l 1419 64 q 1383 -66 1408 -8 q 1310 -165 1358 -124 q 1185 -230 1263 -206 q 993 -261 1108 -254 l 899 -268 z "},"ṉ":{"ha":1076,"x_min":50,"x_max":996,"o":"m 50 0 l 160 692 l 426 692 l 406 558 l 392 558 q 537 671 454 635 q 717 707 619 707 q 883 670 819 707 q 972 558 947 633 q 976 364 996 482 l 919 0 l 639 0 l 694 351 q 693 435 704 407 q 655 476 682 464 q 588 489 628 489 q 492 468 536 489 q 419 414 447 447 q 386 342 392 381 l 331 0 l 50 0 m 143 -264 l 169 -103 l 765 -103 l 739 -264 l 143 -264 z "},"ñ":{"ha":1076,"x_min":50,"x_max":1015,"o":"m 50 0 l 160 692 l 426 692 l 406 558 l 392 558 q 537 671 454 635 q 717 707 619 707 q 883 670 819 707 q 972 558 947 633 q 976 364 996 482 l 919 0 l 639 0 l 694 351 q 693 435 704 407 q 655 476 682 464 q 588 489 628 489 q 492 468 536 489 q 419 414 447 447 q 386 342 392 381 l 331 0 l 50 0 m 401 800 l 261 808 q 363 984 290 918 q 532 1050 436 1050 q 613 1034 581 1050 q 675 1001 646 1018 q 719 977 696 988 q 771 967 742 967 q 835 989 811 967 q 875 1056 858 1011 l 1015 1049 q 915 871 988 936 q 744 806 843 806 q 665 822 697 806 q 606 854 633 838 q 558 879 582 868 q 504 890 535 890 q 440 867 463 890 q 401 800 418 843 z "},"ŋ":{"ha":1076,"x_min":50,"x_max":996,"o":"m 413 -268 l 432 -72 l 528 -64 q 608 -37 581 -58 q 644 33 636 -15 l 694 351 q 693 435 704 407 q 655 476 682 464 q 588 489 628 489 q 492 468 536 489 q 419 414 447 447 q 386 342 392 381 l 331 0 l 50 0 l 160 692 l 426 692 l 406 558 l 392 558 q 537 671 454 635 q 717 707 619 707 q 883 670 818 707 q 972 558 947 633 q 976 364 996 482 l 931 64 q 894 -66 918 -8 q 822 -165 869 -124 q 699 -230 775 -206 q 507 -261 622 -254 l 413 -268 z "},"o":{"ha":1056,"x_min":44,"x_max":1011,"o":"m 483 -15 q 224 37 324 -15 q 84 179 124 89 q 67 383 44 269 q 126 519 83 460 q 232 622 168 579 q 381 685 296 664 q 572 707 467 707 q 832 655 732 707 q 972 513 932 603 q 989 310 1011 424 q 929 173 971 233 q 824 70 888 113 q 674 6 760 28 q 483 -15 589 -15 m 500 189 q 603 206 560 189 q 676 253 647 222 q 714 331 704 285 q 690 457 731 411 q 554 503 649 503 q 453 487 497 503 q 381 440 408 471 q 342 361 353 408 q 366 235 325 282 q 500 189 407 189 z "},"ó":{"ha":1056,"x_min":44,"x_max":1011,"o":"m 483 -15 q 224 37 324 -15 q 84 179 124 89 q 67 383 44 269 q 126 519 83 460 q 232 622 168 579 q 381 685 296 664 q 572 707 467 707 q 832 655 732 707 q 972 513 932 603 q 989 310 1011 424 q 929 173 971 233 q 824 70 888 113 q 674 6 760 28 q 483 -15 589 -15 m 500 189 q 603 206 560 189 q 676 253 647 222 q 714 331 704 285 q 690 457 731 411 q 554 503 649 503 q 453 487 497 503 q 381 440 408 471 q 342 361 353 408 q 366 235 325 282 q 500 189 407 189 m 499 776 l 725 1075 l 992 1075 l 686 776 l 499 776 z "},"ŏ":{"ha":1056,"x_min":44,"x_max":1011,"o":"m 483 -15 q 224 37 324 -15 q 84 179 124 89 q 67 383 44 269 q 126 519 83 460 q 232 622 168 579 q 381 685 296 664 q 572 707 467 707 q 832 655 732 707 q 972 513 932 603 q 989 310 1011 424 q 929 173 971 233 q 824 70 888 113 q 674 6 760 28 q 483 -15 589 -15 m 500 189 q 603 206 560 189 q 676 253 647 222 q 714 331 704 285 q 690 457 731 411 q 554 503 649 503 q 453 487 497 503 q 381 440 408 471 q 342 361 353 408 q 366 235 325 282 q 500 189 407 189 m 593 774 q 431 807 492 774 q 349 905 371 840 q 339 1064 326 969 l 494 1078 q 522 965 490 997 q 622 932 553 932 q 735 965 692 932 q 801 1078 778 997 l 956 1064 q 886 906 933 971 q 766 807 839 840 q 593 774 693 774 z "},"ô":{"ha":1056,"x_min":44,"x_max":1011,"o":"m 483 -15 q 224 37 324 -15 q 84 179 124 89 q 67 383 44 269 q 126 519 83 460 q 232 622 168 579 q 381 685 296 664 q 572 707 467 707 q 832 655 732 707 q 972 513 932 603 q 989 310 1011 424 q 929 173 971 233 q 824 70 888 113 q 674 6 760 28 q 483 -15 589 -15 m 500 189 q 603 206 560 189 q 676 253 647 222 q 714 331 704 285 q 690 457 731 411 q 554 503 649 503 q 453 487 497 503 q 381 440 408 471 q 342 361 353 408 q 366 235 325 282 q 500 189 407 189 m 285 776 l 535 1075 l 769 1075 l 914 776 l 736 776 l 628 939 l 463 776 l 285 776 z "},"ố":{"ha":1056,"x_min":44,"x_max":1218,"o":"m 483 -15 q 224 37 324 -15 q 84 179 124 89 q 67 383 44 269 q 126 519 83 460 q 232 622 168 579 q 381 685 296 664 q 572 707 467 707 q 832 655 732 707 q 972 513 932 603 q 989 310 1011 424 q 929 173 971 233 q 824 70 888 113 q 674 6 760 28 q 483 -15 589 -15 m 500 189 q 603 206 560 189 q 676 253 647 222 q 714 331 704 285 q 690 457 731 411 q 554 503 649 503 q 453 487 497 503 q 381 440 408 471 q 342 361 353 408 q 366 235 325 282 q 500 189 407 189 m 283 781 l 528 1036 l 758 1036 l 910 781 l 733 781 l 619 906 l 460 781 l 283 781 m 833 950 l 1001 1160 l 1219 1160 l 986 950 l 833 950 z "},"ộ":{"ha":1056,"x_min":44,"x_max":1011,"o":"m 483 -15 q 224 37 324 -15 q 84 179 124 89 q 67 383 44 269 q 126 519 83 460 q 232 622 168 579 q 381 685 296 664 q 572 707 467 707 q 832 655 732 707 q 972 513 932 603 q 989 310 1011 424 q 929 173 971 233 q 824 70 888 113 q 674 6 760 28 q 483 -15 589 -15 m 500 189 q 603 206 560 189 q 676 253 647 222 q 714 331 704 285 q 690 457 731 411 q 554 503 649 503 q 453 487 497 503 q 381 440 408 471 q 342 361 353 408 q 366 235 325 282 q 500 189 407 189 m 300 -324 l 336 -96 l 578 -96 l 542 -324 l 300 -324 m 285 776 l 535 1075 l 769 1075 l 914 776 l 736 776 l 628 939 l 463 776 l 285 776 z "},"ồ":{"ha":1056,"x_min":44,"x_max":1053,"o":"m 483 -15 q 224 37 324 -15 q 84 179 124 89 q 67 383 44 269 q 126 519 83 460 q 232 622 168 579 q 381 685 296 664 q 572 707 467 707 q 832 655 732 707 q 972 513 932 603 q 989 310 1011 424 q 929 173 971 233 q 824 70 888 113 q 674 6 760 28 q 483 -15 589 -15 m 500 189 q 603 206 560 189 q 676 253 647 222 q 714 331 704 285 q 690 457 731 411 q 554 503 649 503 q 453 487 497 503 q 381 440 408 471 q 342 361 353 408 q 366 235 325 282 q 500 189 407 189 m 283 781 l 528 1036 l 758 1036 l 908 781 l 732 781 l 618 906 l 460 781 l 283 781 m 900 950 l 744 1160 l 963 1160 l 1053 950 l 900 950 z "},"ổ":{"ha":1056,"x_min":44,"x_max":1125,"o":"m 483 -15 q 224 37 324 -15 q 84 179 124 89 q 67 383 44 269 q 126 519 83 460 q 232 622 168 579 q 381 685 296 664 q 572 707 467 707 q 832 655 732 707 q 972 513 932 603 q 989 310 1011 424 q 929 173 971 233 q 824 70 888 113 q 674 6 760 28 q 483 -15 589 -15 m 500 189 q 603 206 560 189 q 676 253 647 222 q 714 331 704 285 q 690 457 731 411 q 554 503 649 503 q 453 487 497 503 q 381 440 408 471 q 342 361 353 408 q 366 235 325 282 q 500 189 407 189 m 283 781 l 526 1036 l 757 1036 l 908 781 l 732 781 l 618 906 l 460 781 l 283 781 m 844 950 q 858 983 846 969 q 885 1008 869 996 q 913 1030 901 1021 q 926 1049 925 1039 q 920 1065 931 1060 q 886 1069 910 1069 q 842 1066 863 1069 q 789 1051 822 1063 l 772 1140 q 858 1163 814 1156 q 953 1169 901 1169 q 1083 1149 1042 1169 q 1117 1086 1125 1128 q 1092 1042 1111 1060 q 1049 1011 1072 1025 q 1009 983 1026 997 q 990 950 992 969 l 844 950 z "},"ỗ":{"ha":1056,"x_min":44,"x_max":1011,"o":"m 483 -15 q 224 37 324 -15 q 84 179 124 89 q 67 383 44 269 q 126 519 83 460 q 232 622 168 579 q 381 685 296 664 q 572 707 467 707 q 832 655 732 707 q 972 513 932 603 q 989 310 1011 424 q 929 173 971 233 q 824 70 888 113 q 674 6 760 28 q 483 -15 589 -15 m 500 189 q 603 206 560 189 q 676 253 647 222 q 714 331 704 285 q 690 457 731 411 q 554 503 649 503 q 453 487 497 503 q 381 440 408 471 q 342 361 353 408 q 366 235 325 282 q 500 189 407 189 m 286 781 l 521 986 l 751 986 l 911 781 l 729 781 l 617 875 l 468 781 l 286 781 m 440 1019 l 317 1026 q 361 1115 332 1078 q 438 1174 390 1153 q 547 1194 485 1194 q 620 1185 588 1194 q 682 1167 653 1176 q 731 1153 707 1160 q 781 1146 754 1146 q 838 1159 815 1146 q 869 1193 860 1172 l 992 1188 q 912 1064 971 1108 q 757 1019 853 1019 q 685 1028 715 1019 q 626 1046 654 1036 q 579 1060 603 1054 q 529 1067 556 1067 q 477 1056 503 1067 q 440 1019 451 1044 z "},"ȍ":{"ha":1056,"x_min":44,"x_max":1011,"o":"m 483 -15 q 224 37 324 -15 q 84 179 124 89 q 67 383 44 269 q 126 519 83 460 q 232 622 168 579 q 381 685 296 664 q 572 707 467 707 q 832 655 732 707 q 972 513 932 603 q 989 310 1011 424 q 929 173 971 233 q 824 70 888 113 q 674 6 760 28 q 483 -15 589 -15 m 500 189 q 603 206 560 189 q 676 253 647 222 q 714 331 704 285 q 690 457 731 411 q 554 503 649 503 q 453 487 497 503 q 381 440 408 471 q 342 361 353 408 q 366 235 325 282 q 500 189 407 189 m 672 776 l 567 1075 l 793 1075 l 818 776 l 672 776 m 383 776 l 278 1075 l 504 1075 l 529 776 l 383 776 z "},"ö":{"ha":1056,"x_min":44,"x_max":1011,"o":"m 483 -15 q 224 37 324 -15 q 84 179 124 89 q 67 383 44 269 q 126 519 83 460 q 232 622 168 579 q 381 685 296 664 q 572 707 467 707 q 832 655 732 707 q 972 513 932 603 q 989 310 1011 424 q 929 173 971 233 q 824 70 888 113 q 674 6 760 28 q 483 -15 589 -15 m 500 189 q 603 206 560 189 q 676 253 647 222 q 714 331 704 285 q 690 457 731 411 q 554 503 649 503 q 453 487 497 503 q 381 440 408 471 q 342 361 353 408 q 366 235 325 282 q 500 189 407 189 m 668 806 l 704 1033 l 944 1033 l 908 806 l 668 806 m 293 806 l 331 1033 l 571 1033 l 535 806 l 293 806 z "}}}
